GeoramaExtended-Medium.ufo
<glyph name="exclam" format="2">
  <advance width="296.748"/>
  <unicode hex="0021"/>
  <outline>
    <contour>
      <point x="96.01899999999999" y="261.85" type="line"/>
      <point x="202.57799999999997" y="261.85" type="line"/>
      <point x="210.66199999999998" y="740.0" type="line"/>
      <point x="88.32199999999999" y="740.0" type="line"/>
    </contour>
    <contour>
      <point x="78.13699999999999" y="54.496" type="curve" smooth="yes"/>
      <point x="78.13699999999999" y="12.738999999999999"/>
      <point x="96.263" y="-4.601"/>
      <point x="148.374" y="-4.601" type="curve" smooth="yes"/>
      <point x="201.05499999999998" y="-4.601"/>
      <point x="218.611" y="12.738999999999999"/>
      <point x="218.611" y="54.496" type="curve" smooth="yes"/>
      <point x="218.611" y="96.68299999999999"/>
      <point x="201.05499999999998" y="114.023"/>
      <point x="148.374" y="114.023" type="curve" smooth="yes"/>
      <point x="95.693" y="114.023"/>
      <point x="78.13699999999999" y="96.68299999999999"/>
    </contour>
  </outline>
</glyph>
<glyph name="numbersign" format="2">
  <advance width="825.5459999999999"/>
  <unicode hex="0023"/>
  <outline>
    <contour>
      <point x="113.14200000000001" y="448.11699999999996" type="line"/>
      <point x="229.326" y="448.11699999999996" type="line"/>
      <point x="185.083" y="246.432" type="line"/>
      <point x="74.614" y="246.432" type="line"/>
      <point x="74.614" y="166.55700000000002" type="line"/>
      <point x="169.87699999999998" y="166.55700000000002" type="line"/>
      <point x="135.39299999999997" y="0.0" type="line"/>
      <point x="256.228" y="0.0" type="line"/>
      <point x="290.712" y="166.55700000000002" type="line"/>
      <point x="462.506" y="166.55700000000002" type="line"/>
      <point x="428.022" y="0.0" type="line"/>
      <point x="548.857" y="0.0" type="line"/>
      <point x="583.341" y="166.55700000000002" type="line"/>
      <point x="712.7049999999999" y="166.55700000000002" type="line"/>
      <point x="712.7049999999999" y="246.432" type="line"/>
      <point x="598.5469999999999" y="246.432" type="line"/>
      <point x="642.79" y="448.11699999999996" type="line"/>
      <point x="751.233" y="448.11699999999996" type="line"/>
      <point x="751.233" y="527.648" type="line"/>
      <point x="657.4669999999999" y="527.648" type="line"/>
      <point x="694.173" y="700.0" type="line"/>
      <point x="573.338" y="700.0" type="line"/>
      <point x="536.632" y="527.648" type="line"/>
      <point x="364.83799999999997" y="527.648" type="line"/>
      <point x="401.544" y="700.0" type="line"/>
      <point x="280.70899999999995" y="700.0" type="line"/>
      <point x="244.003" y="527.648" type="line"/>
      <point x="113.14200000000001" y="527.648" type="line"/>
    </contour>
    <contour>
      <point x="350.161" y="448.11699999999996" type="line"/>
      <point x="521.955" y="448.11699999999996" type="line"/>
      <point x="477.712" y="246.432" type="line"/>
      <point x="305.918" y="246.432" type="line"/>
    </contour>
  </outline>
</glyph>
<glyph name="dollar" format="2">
  <advance width="825.5459999999999"/>
  <unicode hex="0024"/>
  <outline>
    <contour>
      <point x="393.86899999999997" y="-10.0" type="curve" smooth="yes"/>
      <point x="623.841" y="-13.612"/>
      <point x="756.8389999999999" y="46.53"/>
      <point x="756.8389999999999" y="189.934" type="curve" smooth="yes"/>
      <point x="756.8389999999999" y="316.58"/>
      <point x="649.4739999999999" y="364.7269999999999"/>
      <point x="481.09099999999995" y="398.39300000000003" type="curve" smooth="yes"/>
      <point x="323.391" y="429.598"/>
      <point x="229.787" y="447.743"/>
      <point x="229.787" y="520.187" type="curve" smooth="yes"/>
      <point x="229.787" y="581.7919999999999"/>
      <point x="301.31299999999993" y="611.48"/>
      <point x="431.36699999999996" y="611.48" type="curve" smooth="yes"/>
      <point x="514.3419999999999" y="611.48"/>
      <point x="621.5189999999999" y="596.2259999999999"/>
      <point x="693.9699999999999" y="574.2249999999999" type="curve"/>
      <point x="715.964" y="671.672" type="line"/>
      <point x="637.403" y="694.2850000000001"/>
      <point x="528.8629999999999" y="710.0"/>
      <point x="434.29999999999995" y="710.0" type="curve" smooth="yes"/>
      <point x="226.511" y="709.202"/>
      <point x="103.866" y="646.1360000000001"/>
      <point x="103.866" y="509.953" type="curve" smooth="yes"/>
      <point x="103.866" y="384.31499999999994"/>
      <point x="204.32899999999995" y="337.014"/>
      <point x="355.30899999999997" y="304.72499999999997" type="curve" smooth="yes"/>
      <point x="523.833" y="270.726"/>
      <point x="629.726" y="252.542"/>
      <point x="629.726" y="179.48799999999997" type="curve" smooth="yes"/>
      <point x="629.726" y="114.15400000000001"/>
      <point x="562.409" y="85.509"/>
      <point x="420.58599999999996" y="85.509" type="curve" smooth="yes"/>
      <point x="324.19899999999996" y="85.509"/>
      <point x="191.78099999999998" y="107.27900000000001"/>
      <point x="92.20700000000001" y="139.331" type="curve"/>
      <point x="69.309" y="42.531" type="line"/>
      <point x="161.38199999999998" y="12.401999999999997"/>
      <point x="291.401" y="-8.796000000000001"/>
    </contour>
    <contour>
      <point x="382.361" y="-105.0" type="line"/>
      <point x="475.33199999999994" y="-105.0" type="line"/>
      <point x="475.33199999999994" y="5.185000000000001" type="line"/>
      <point x="382.361" y="0.9759999999999998" type="line"/>
    </contour>
    <contour>
      <point x="382.361" y="696.316" type="line"/>
      <point x="475.33199999999994" y="699.3240000000001" type="line"/>
      <point x="475.33199999999994" y="804.742" type="line"/>
      <point x="382.361" y="804.742" type="line"/>
    </contour>
  </outline>
</glyph>
<glyph name="ampersand" format="2">
  <advance width="867.2239999999999"/>
  <unicode hex="0026"/>
  <outline>
    <contour>
      <point x="714.086" y="-6.284000000000002" type="line"/>
      <point x="863.742" y="2.8219999999999983" type="line"/>
      <point x="345.60200000000003" y="419.0640000000001" type="line" smooth="yes"/>
      <point x="294.066" y="461.42799999999994"/>
      <point x="269.75399999999996" y="494.518"/>
      <point x="269.75399999999996" y="532.454" type="curve" smooth="yes"/>
      <point x="269.75399999999996" y="589.8259999999999"/>
      <point x="320.502" y="622.06"/>
      <point x="417.63599999999997" y="622.06" type="curve" smooth="yes"/>
      <point x="502.1580000000001" y="622.06"/>
      <point x="556.29" y="590.7180000000001"/>
      <point x="556.29" y="531.542" type="curve" smooth="yes"/>
      <point x="556.29" y="485.098"/>
      <point x="528.618" y="453.67999999999995"/>
      <point x="472.5719999999999" y="434.774" type="curve"/>
      <point x="534.266" y="381.752" type="line"/>
      <point x="630.7819999999999" y="416.782"/>
      <point x="671.32" y="472.60600000000005"/>
      <point x="671.32" y="547.302" type="curve" smooth="yes"/>
      <point x="671.32" y="653.4060000000001"/>
      <point x="582.6259999999999" y="710.0"/>
      <point x="413.76599999999996" y="710.0" type="curve" smooth="yes"/>
      <point x="224.47000000000003" y="710.0"/>
      <point x="143.974" y="636.838"/>
      <point x="143.974" y="531.594" type="curve" smooth="yes"/>
      <point x="143.974" y="471.486"/>
      <point x="165.972" y="424.53"/>
      <point x="223.888" y="375.034" type="curve" smooth="yes"/>
    </contour>
    <contour>
      <point x="363.044" y="-10.0" type="curve" smooth="yes"/>
      <point x="462.908" y="-10.0"/>
      <point x="557.944" y="17.572000000000003"/>
      <point x="629.296" y="71.82600000000001" type="curve"/>
      <point x="564.86" y="138.04799999999997" type="line"/>
      <point x="523.762" y="99.53"/>
      <point x="462.06800000000004" y="76.65"/>
      <point x="376.80400000000003" y="76.65" type="curve" smooth="yes"/>
      <point x="248.88" y="76.65"/>
      <point x="165.37" y="129.19799999999998"/>
      <point x="165.37" y="213.762" type="curve" smooth="yes"/>
      <point x="165.37" y="275.70400000000006"/>
      <point x="203.796" y="316.452"/>
      <point x="277.94199999999995" y="344.692" type="curve"/>
      <point x="215.05799999999996" y="402.3" type="line"/>
      <point x="101.77799999999999" y="363.81000000000006"/>
      <point x="46.89999999999999" y="297.324"/>
      <point x="46.89999999999999" y="200.432" type="curve" smooth="yes"/>
      <point x="46.89999999999999" y="71.908"/>
      <point x="161.01799999999997" y="-10.0"/>
    </contour>
    <contour>
      <point x="698.8979999999999" y="112.06200000000001" type="line"/>
      <point x="754.2639999999999" y="167.814"/>
      <point x="788.7239999999999" y="236.81799999999998"/>
      <point x="788.7239999999999" y="316.33599999999996" type="curve" smooth="yes"/>
      <point x="788.7239999999999" y="337.99"/>
      <point x="786.14" y="352.60599999999994"/>
      <point x="782.22" y="370.568" type="curve"/>
      <point x="686.25" y="367.606" type="line"/>
      <point x="690.1700000000001" y="350.07400000000007"/>
      <point x="691.3659999999999" y="334.836"/>
      <point x="690.0759999999999" y="319.34599999999995" type="curve" smooth="yes"/>
      <point x="686.6359999999999" y="265.328"/>
      <point x="670.3619999999999" y="220.07600000000002"/>
      <point x="625.3900000000001" y="177.648" type="curve"/>
    </contour>
  </outline>
</glyph>
<glyph name="quotesingle" format="2">
  <advance width="212.887"/>
  <unicode hex="0027"/>
  <outline>
    <contour>
      <point x="58.540000000000006" y="427.0" type="line"/>
      <point x="153.96" y="427.0" type="line"/>
      <point x="160.981" y="700.0" type="line"/>
      <point x="51.90599999999999" y="700.0" type="line"/>
    </contour>
  </outline>
</glyph>
<glyph name="parenleft" format="2">
  <advance width="396.50600000000003"/>
  <unicode hex="0028"/>
  <outline>
    <contour>
      <point x="85.23499999999999" y="265.0" type="curve" smooth="yes"/>
      <point x="85.23499999999999" y="17.165999999999997"/>
      <point x="169.549" y="-189.875"/>
      <point x="369.61499999999995" y="-220.171" type="curve"/>
      <point x="369.61499999999995" y="-136.966" type="line"/>
      <point x="240.555" y="-100.116"/>
      <point x="187.87899999999996" y="45.297"/>
      <point x="187.87899999999996" y="265.0" type="curve" smooth="yes"/>
      <point x="187.87899999999996" y="484.70300000000003"/>
      <point x="240.555" y="630.116"/>
      <point x="369.61499999999995" y="666.9659999999999" type="curve"/>
      <point x="369.61499999999995" y="750.171" type="line"/>
      <point x="169.549" y="719.875"/>
      <point x="85.23499999999999" y="512.8340000000001"/>
    </contour>
  </outline>
</glyph>
<glyph name="parenright" format="2">
  <advance width="396.50600000000003"/>
  <unicode hex="0029"/>
  <outline>
    <contour>
      <point x="26.890999999999995" y="-136.966" type="curve"/>
      <point x="26.890999999999995" y="-220.171" type="line"/>
      <point x="226.957" y="-189.875"/>
      <point x="311.27099999999996" y="17.165999999999997"/>
      <point x="311.27099999999996" y="265.0" type="curve" smooth="yes"/>
      <point x="311.27099999999996" y="512.8340000000001"/>
      <point x="226.957" y="719.875"/>
      <point x="26.890999999999995" y="750.171" type="curve"/>
      <point x="26.890999999999995" y="666.9659999999999" type="line"/>
      <point x="155.951" y="630.116"/>
      <point x="208.62699999999998" y="484.70300000000003"/>
      <point x="208.62699999999998" y="265.0" type="curve" smooth="yes"/>
      <point x="208.62699999999998" y="45.297"/>
      <point x="155.951" y="-100.116"/>
    </contour>
  </outline>
</glyph>
<glyph name="asterisk" format="2">
  <advance width="411.416"/>
  <unicode hex="002A"/>
  <outline>
    <contour>
      <point x="111.273" y="332.241" type="line"/>
      <point x="206.107" y="453.419" type="line"/>
      <point x="299.34499999999997" y="331.842" type="line"/>
      <point x="344.206" y="362.943" type="line"/>
      <point x="261.302" y="494.39899999999994" type="line"/>
      <point x="401.241" y="549.1750000000001" type="line"/>
      <point x="383.98800000000006" y="600.337" type="line"/>
      <point x="240.618" y="560.5039999999999" type="line"/>
      <point x="234.68399999999997" y="714.019" type="line"/>
      <point x="177.53000000000003" y="714.019" type="line"/>
      <point x="171.596" y="560.5039999999999" type="line"/>
      <point x="27.428" y="600.337" type="line"/>
      <point x="10.175" y="549.1750000000001" type="line"/>
      <point x="150.912" y="494.39899999999994" type="line"/>
      <point x="66.013" y="363.74100000000004" type="line"/>
    </contour>
  </outline>
</glyph>
<glyph name="plus" format="2">
  <advance width="576.272"/>
  <unicode hex="002B"/>
  <outline>
    <contour>
      <point x="235.09300000000002" y="88.25399999999999" type="line"/>
      <point x="340.87800000000004" y="88.25399999999999" type="line"/>
      <point x="340.87800000000004" y="256.42499999999995" type="line"/>
      <point x="520.9879999999999" y="256.42499999999995" type="line"/>
      <point x="520.9879999999999" y="350.16999999999996" type="line"/>
      <point x="340.87800000000004" y="350.16999999999996" type="line"/>
      <point x="340.87800000000004" y="518.04" type="line"/>
      <point x="235.09300000000002" y="518.04" type="line"/>
      <point x="235.09300000000002" y="350.16999999999996" type="line"/>
      <point x="55.284" y="350.16999999999996" type="line"/>
      <point x="55.284" y="256.42499999999995" type="line"/>
      <point x="235.09300000000002" y="256.42499999999995" type="line"/>
    </contour>
  </outline>
</glyph>
<glyph name="comma" format="2">
  <advance width="246.75900000000001"/>
  <unicode hex="002C"/>
  <outline>
    <contour>
      <point x="68.062" y="64.716" type="line"/>
      <point x="74.625" y="41.404999999999994"/>
      <point x="78.004" y="17.385"/>
      <point x="78.004" y="-2.9979999999999993" type="curve" smooth="yes"/>
      <point x="78.004" y="-65.38000000000001"/>
      <point x="54.693999999999996" y="-133.0"/>
      <point x="2.546999999999997" y="-176.631" type="curve"/>
      <point x="94.351" y="-197.71699999999998" type="line"/>
      <point x="162.905" y="-148.233"/>
      <point x="195.44199999999998" y="-74.175"/>
      <point x="195.44199999999998" y="-3.6620000000000017" type="curve" smooth="yes"/>
      <point x="195.44199999999998" y="23.903"/>
      <point x="190.55700000000002" y="48.991"/>
      <point x="181.918" y="69.934" type="curve"/>
    </contour>
  </outline>
</glyph>
<glyph name="hyphen" format="2">
  <advance width="394.107"/>
  <unicode hex="002D"/>
  <outline>
    <contour>
      <point x="46.838" y="245.97" type="line"/>
      <point x="347.269" y="245.97" type="line"/>
      <point x="347.269" y="342.424" type="line"/>
      <point x="46.838" y="342.424" type="line"/>
    </contour>
  </outline>
</glyph>
<glyph name="period" format="2">
  <advance width="251.575"/>
  <unicode hex="002E"/>
  <outline>
    <contour>
      <point x="55.75" y="54.883" type="curve" smooth="yes"/>
      <point x="55.75" y="13.126"/>
      <point x="73.876" y="-4.2139999999999995"/>
      <point x="125.987" y="-4.2139999999999995" type="curve" smooth="yes"/>
      <point x="178.668" y="-4.2139999999999995"/>
      <point x="196.22400000000002" y="13.126"/>
      <point x="196.22400000000002" y="54.883" type="curve" smooth="yes"/>
      <point x="196.22400000000002" y="97.07"/>
      <point x="178.668" y="114.41"/>
      <point x="125.987" y="114.41" type="curve" smooth="yes"/>
      <point x="73.306" y="114.41"/>
      <point x="55.75" y="97.07"/>
    </contour>
  </outline>
</glyph>
<glyph name="slash" format="2">
  <advance width="453.303"/>
  <unicode hex="002F"/>
  <outline>
    <contour>
      <point x="6.052" y="-210.0" type="line"/>
      <point x="105.025" y="-210.0" type="line"/>
      <point x="447.2509999999999" y="740.0" type="line"/>
      <point x="348.149" y="740.0" type="line"/>
    </contour>
  </outline>
</glyph>
<glyph name="zero" format="2">
  <advance width="825.5459999999999"/>
  <unicode hex="0030"/>
  <outline>
    <contour>
      <point x="37.98799999999999" y="350.0" type="curve" smooth="yes"/>
      <point x="37.98799999999999" y="71.106"/>
      <point x="206.83299999999997" y="-10.0"/>
      <point x="412.77299999999997" y="-10.0" type="curve" smooth="yes"/>
      <point x="618.928" y="-10.0"/>
      <point x="787.558" y="71.62199999999999"/>
      <point x="787.558" y="350.0" type="curve" smooth="yes"/>
      <point x="787.558" y="628.678"/>
      <point x="620.8629999999999" y="710.0"/>
      <point x="412.77299999999997" y="710.0" type="curve" smooth="yes"/>
      <point x="206.446" y="710.0"/>
      <point x="37.98799999999999" y="629.71"/>
    </contour>
    <contour>
      <point x="167.337" y="348.32300000000004" type="curve" smooth="yes"/>
      <point x="167.337" y="562.497"/>
      <point x="280.21099999999996" y="618.19"/>
      <point x="412.77299999999997" y="618.19" type="curve" smooth="yes"/>
      <point x="545.937" y="618.19"/>
      <point x="658.811" y="562.626"/>
      <point x="658.811" y="348.32300000000004" type="curve" smooth="yes"/>
      <point x="658.811" y="138.448"/>
      <point x="546.324" y="81.81"/>
      <point x="412.77299999999997" y="81.81" type="curve" smooth="yes"/>
      <point x="279.824" y="81.81"/>
      <point x="167.337" y="138.319"/>
    </contour>
  </outline>
</glyph>
<glyph name="one" format="2">
  <advance width="825.5459999999999"/>
  <unicode hex="0031"/>
  <outline>
    <contour>
      <point x="98.557" y="0.0" type="line"/>
      <point x="778.663" y="0.0" type="line"/>
      <point x="778.663" y="95.24999999999999" type="line"/>
      <point x="527.8530000000001" y="95.24999999999999" type="line"/>
      <point x="527.8530000000001" y="703.99" type="line"/>
      <point x="463.78" y="703.99" type="line"/>
      <point x="84.825" y="546.477" type="line"/>
      <point x="114.92299999999999" y="451.3310000000001" type="line"/>
      <point x="401.04099999999994" y="573.263" type="line"/>
      <point x="401.04099999999994" y="95.24999999999999" type="line"/>
      <point x="98.557" y="95.24999999999999" type="line"/>
    </contour>
  </outline>
</glyph>
<glyph name="two" format="2">
  <advance width="826.0899999999999"/>
  <unicode hex="0032"/>
  <outline>
    <contour>
      <point x="76.0" y="76.77" type="curve"/>
      <point x="79.63999999999999" y="0.0" type="line"/>
      <point x="760.8599999999999" y="0.0" type="line"/>
      <point x="760.8599999999999" y="95.67999999999999" type="line"/>
      <point x="287.71000000000004" y="95.67999999999999" type="line"/>
      <point x="602.07" y="289.7"/>
      <point x="680.1999999999999" y="365.54"/>
      <point x="680.1999999999999" y="492.25" type="curve" smooth="yes"/>
      <point x="680.1999999999999" y="624.52"/>
      <point x="578.7199999999999" y="710.0"/>
      <point x="385.26" y="710.0" type="curve" smooth="yes"/>
      <point x="285.52" y="710.0"/>
      <point x="172.89" y="683.34"/>
      <point x="94.93999999999998" y="640.33" type="curve"/>
      <point x="131.10000000000002" y="545.2099999999999" type="line"/>
      <point x="205.10999999999996" y="582.2800000000001"/>
      <point x="287.44" y="601.9200000000001"/>
      <point x="366.77" y="601.9200000000001" type="curve" smooth="yes"/>
      <point x="493.40999999999985" y="601.9200000000001"/>
      <point x="549.3299999999999" y="554.4"/>
      <point x="549.3299999999999" y="475.62" type="curve" smooth="yes"/>
      <point x="549.3299999999999" y="374.90999999999997"/>
      <point x="473.22999999999996" y="313.19000000000005"/>
    </contour>
  </outline>
</glyph>
<glyph name="three" format="2">
  <advance width="826.0899999999998"/>
  <unicode hex="0033"/>
  <outline>
    <contour>
      <point x="39.29999999999999" y="58.099999999999994" type="line"/>
      <point x="135.44" y="11.7"/>
      <point x="233.82000000000002" y="-9.5"/>
      <point x="373.04999999999995" y="-9.5" type="curve" smooth="yes"/>
      <point x="618.9599999999999" y="-9.5"/>
      <point x="755.17" y="69.71"/>
      <point x="755.17" y="207.35999999999999" type="curve" smooth="yes"/>
      <point x="755.17" y="294.19"/>
      <point x="689.64" y="353.32"/>
      <point x="569.7900000000001" y="368.78" type="curve"/>
      <point x="662.18" y="388.51"/>
      <point x="713.9400000000002" y="444.00000000000006"/>
      <point x="713.9400000000002" y="524.98" type="curve" smooth="yes"/>
      <point x="713.9400000000002" y="642.1400000000001"/>
      <point x="607.61" y="710.0"/>
      <point x="387.98" y="710.0" type="curve" smooth="yes"/>
      <point x="267.04" y="710.0"/>
      <point x="155.99999999999994" y="691.4199999999998"/>
      <point x="82.24999999999999" y="659.75" type="curve"/>
      <point x="105.94999999999999" y="567.43" type="line"/>
      <point x="186.07999999999996" y="596.74"/>
      <point x="276.85" y="610.4500000000002"/>
      <point x="366.90999999999997" y="610.4500000000002" type="curve" smooth="yes"/>
      <point x="515.35" y="610.4500000000002"/>
      <point x="589.8800000000001" y="571.6600000000001"/>
      <point x="589.8800000000001" y="504.63" type="curve" smooth="yes"/>
      <point x="589.8800000000001" y="439.66"/>
      <point x="527.02" y="403.0799999999999"/>
      <point x="391.71" y="403.0799999999999" type="curve" smooth="yes"/>
      <point x="223.14999999999998" y="403.0799999999999" type="line"/>
      <point x="223.14999999999998" y="317.71999999999997" type="line"/>
      <point x="376.25" y="317.71999999999997" type="line" smooth="yes"/>
      <point x="541.9300000000002" y="317.71999999999997"/>
      <point x="627.2400000000001" y="286.48"/>
      <point x="627.2400000000001" y="214.23999999999998" type="curve" smooth="yes"/>
      <point x="627.2400000000001" y="132.59"/>
      <point x="540.1700000000001" y="87.47000000000001"/>
      <point x="365.73999999999995" y="87.47000000000001" type="curve" smooth="yes"/>
      <point x="249.57000000000002" y="87.47000000000001"/>
      <point x="150.95999999999998" y="106.74"/>
      <point x="68.29000000000002" y="144.19" type="curve"/>
    </contour>
  </outline>
</glyph>
<glyph name="four" format="2">
  <advance width="826.0899999999999"/>
  <unicode hex="0034"/>
  <outline>
    <contour>
      <point x="28.390000000000004" y="153.11" type="line"/>
      <point x="508.57" y="153.11" type="line"/>
      <point x="508.57" y="0.0" type="line"/>
      <point x="635.64" y="0.0" type="line"/>
      <point x="635.64" y="153.11" type="line"/>
      <point x="790.1300000000001" y="153.11" type="line"/>
      <point x="790.1300000000001" y="241.05" type="line"/>
      <point x="635.64" y="241.05" type="line"/>
      <point x="635.64" y="699.93" type="line"/>
      <point x="543.3100000000001" y="704.5600000000001" type="line"/>
      <point x="25.970000000000002" y="237.62" type="line"/>
    </contour>
    <contour>
      <point x="156.71999999999997" y="241.05" type="line"/>
      <point x="509.8599999999999" y="555.61" type="line"/>
      <point x="509.8599999999999" y="241.05" type="line"/>
    </contour>
  </outline>
</glyph>
<glyph name="five" format="2">
  <advance width="826.0619999999999"/>
  <unicode hex="0035"/>
  <outline>
    <contour>
      <point x="52.69499999999999" y="55.48700000000001" type="line"/>
      <point x="145.16" y="11.97"/>
      <point x="237.53199999999998" y="-9.687000000000001"/>
      <point x="377.45799999999997" y="-9.687000000000001" type="curve" smooth="yes"/>
      <point x="618.523" y="-9.687000000000001"/>
      <point x="757.2539999999999" y="67.01299999999999"/>
      <point x="757.2539999999999" y="223.32" type="curve" smooth="yes"/>
      <point x="757.2539999999999" y="368.32300000000004"/>
      <point x="658.1119999999999" y="420.817"/>
      <point x="457.56600000000003" y="420.817" type="curve" smooth="yes"/>
      <point x="215.49599999999995" y="420.817" type="line"/>
      <point x="242.52099999999996" y="600.88" type="line"/>
      <point x="705.637" y="600.88" type="line"/>
      <point x="705.637" y="700.0" type="line"/>
      <point x="152.22" y="700.0" type="line"/>
      <point x="100.05499999999999" y="343.447" type="line"/>
      <point x="110.27" y="333.307" type="line"/>
      <point x="408.75399999999996" y="333.307" type="line" smooth="yes"/>
      <point x="581.664" y="333.307"/>
      <point x="631.0439999999999" y="296.726"/>
      <point x="631.0439999999999" y="218.805" type="curve" smooth="yes"/>
      <point x="631.0439999999999" y="133.642"/>
      <point x="556.3899999999999" y="87.49799999999999"/>
      <point x="371.0079999999999" y="87.49799999999999" type="curve" smooth="yes"/>
      <point x="240.54599999999996" y="87.49799999999999"/>
      <point x="155.824" y="110.09899999999999"/>
      <point x="82.727" y="142.89499999999998" type="curve"/>
    </contour>
  </outline>
</glyph>
<glyph name="six" format="2">
  <advance width="826.0619999999999"/>
  <unicode hex="0036"/>
  <outline>
    <contour>
      <point x="431.562" y="-10.0" type="curve" smooth="yes"/>
      <point x="658.7159999999999" y="-10.0"/>
      <point x="782.3100000000002" y="73.39200000000001"/>
      <point x="782.3100000000002" y="224.852" type="curve" smooth="yes"/>
      <point x="782.3100000000002" y="365.39000000000004"/>
      <point x="674.424" y="440.302"/>
      <point x="481.37600000000003" y="440.302" type="curve" smooth="yes"/>
      <point x="354.39" y="440.302"/>
      <point x="227.90200000000002" y="407.07599999999996"/>
      <point x="153.95" y="355.08799999999997" type="curve"/>
      <point x="157.73999999999998" y="266.14400000000006" type="line"/>
      <point x="229.632" y="311.854"/>
      <point x="337.39200000000005" y="348.96400000000006"/>
      <point x="440.914" y="348.96400000000006" type="curve" smooth="yes"/>
      <point x="577.242" y="348.96400000000006"/>
      <point x="656.96" y="308.198"/>
      <point x="656.96" y="223.00599999999997" type="curve" smooth="yes"/>
      <point x="656.96" y="134.328"/>
      <point x="578.832" y="84.73600000000002"/>
      <point x="441.84000000000003" y="84.73600000000002" type="curve" smooth="yes"/>
      <point x="262.00399999999996" y="84.73600000000002"/>
      <point x="171.30800000000002" y="160.53799999999998"/>
      <point x="171.30800000000002" y="343.122" type="curve" smooth="yes"/>
      <point x="171.30800000000002" y="524.27"/>
      <point x="267.80999999999995" y="610.5340000000001"/>
      <point x="476.86000000000007" y="610.5340000000001" type="curve" smooth="yes"/>
      <point x="572.43" y="610.5340000000001"/>
      <point x="644.6039999999999" y="597.558"/>
      <point x="728.7979999999999" y="576.3900000000001" type="curve"/>
      <point x="752.956" y="670.9580000000001" type="line"/>
      <point x="677.18" y="695.4019999999999"/>
      <point x="582.394" y="710.0"/>
      <point x="461.464" y="710.0" type="curve" smooth="yes"/>
      <point x="189.01999999999998" y="710.0"/>
      <point x="42.518" y="583.746"/>
      <point x="42.518" y="336.13399999999996" type="curve" smooth="yes"/>
      <point x="42.518" y="100.84599999999998"/>
      <point x="173.058" y="-10.0"/>
    </contour>
  </outline>
</glyph>
<glyph name="seven" format="2">
  <advance width="826.0619999999999"/>
  <unicode hex="0037"/>
  <outline>
    <contour>
      <point x="265.18399999999997" y="0.0" type="curve"/>
      <point x="394.40400000000005" y="0.0" type="line"/>
      <point x="397.02599999999995" y="122.572"/>
      <point x="442.236" y="219.244"/>
      <point x="538.414" y="343.502" type="curve" smooth="yes"/>
      <point x="754.3300000000002" y="621.51" type="line"/>
      <point x="754.3300000000002" y="700.0" type="line"/>
      <point x="73.50200000000001" y="700.0" type="line"/>
      <point x="73.50200000000001" y="595.2900000000001" type="line"/>
      <point x="599.106" y="595.2900000000001" type="line"/>
      <point x="424.72599999999994" y="377.922" type="line" smooth="yes"/>
      <point x="303.67" y="227.092"/>
      <point x="265.18399999999997" y="134.096"/>
    </contour>
  </outline>
</glyph>
<glyph name="eight" format="2">
  <advance width="826.0899999999999"/>
  <unicode hex="0038"/>
  <outline>
    <contour>
      <point x="516.96" y="383.86" type="curve"/>
      <point x="613.3399999999999" y="354.14" type="line"/>
      <point x="716.0599999999998" y="401.07"/>
      <point x="755.5999999999999" y="465.08"/>
      <point x="755.5999999999999" y="532.7600000000001" type="curve" smooth="yes"/>
      <point x="755.5999999999999" y="646.12"/>
      <point x="636.56" y="710.0"/>
      <point x="416.6099999999999" y="710.0" type="curve" smooth="yes"/>
      <point x="197.15999999999997" y="710.0"/>
      <point x="75.52000000000001" y="642.7600000000001"/>
      <point x="75.52000000000001" y="518.9999999999999" type="curve" smooth="yes"/>
      <point x="75.52000000000001" y="234.42000000000004"/>
      <point x="664.65" y="382.63"/>
      <point x="664.65" y="189.43" type="curve" smooth="yes"/>
      <point x="664.65" y="112.64000000000001"/>
      <point x="577.93" y="74.92999999999999"/>
      <point x="419.59" y="74.92999999999999" type="curve" smooth="yes"/>
      <point x="250.04999999999998" y="74.92999999999999"/>
      <point x="158.35999999999999" y="119.92999999999999"/>
      <point x="158.35999999999999" y="201.81999999999996" type="curve" smooth="yes"/>
      <point x="158.35999999999999" y="265.09000000000003"/>
      <point x="202.78" y="311.23"/>
      <point x="293.19" y="347.57" type="curve"/>
      <point x="202.62999999999997" y="389.46999999999997" type="line"/>
      <point x="84.97999999999998" y="344.69"/>
      <point x="29.57" y="275.62"/>
      <point x="29.57" y="193.23" type="curve" smooth="yes"/>
      <point x="29.57" y="62.43"/>
      <point x="160.73" y="-10.0"/>
      <point x="405.83000000000004" y="-10.0" type="curve" smooth="yes"/>
      <point x="663.46" y="-10.0"/>
      <point x="796.8800000000001" y="58.49999999999999"/>
      <point x="796.8800000000001" y="201.97" type="curve" smooth="yes"/>
      <point x="796.8800000000001" y="480.30999999999995"/>
      <point x="197.43" y="345.86"/>
      <point x="197.43" y="521.9300000000001" type="curve" smooth="yes"/>
      <point x="197.43" y="586.4000000000001"/>
      <point x="268.92999999999995" y="620.84"/>
      <point x="409.72999999999996" y="620.84" type="curve" smooth="yes"/>
      <point x="557.9100000000001" y="620.84"/>
      <point x="634.9799999999999" y="584.1700000000001"/>
      <point x="634.9799999999999" y="516.35" type="curve" smooth="yes"/>
      <point x="634.9799999999999" y="463.98999999999995"/>
      <point x="607.8899999999999" y="426.04"/>
    </contour>
  </outline>
</glyph>
<glyph name="nine" format="2">
  <advance width="826.0619999999999"/>
  <unicode hex="0039"/>
  <outline>
    <contour>
      <point x="364.89799999999997" y="-10.0" type="curve" smooth="yes"/>
      <point x="637.3419999999999" y="-10.0"/>
      <point x="778.946" y="114.53399999999999"/>
      <point x="778.946" y="359.566" type="curve" smooth="yes"/>
      <point x="778.946" y="597.434"/>
      <point x="653.996" y="710.0"/>
      <point x="405.00199999999995" y="710.0" type="curve" smooth="yes"/>
      <point x="172.40999999999997" y="710.0"/>
      <point x="39.154" y="627.626"/>
      <point x="39.154" y="474.816" type="curve" smooth="yes"/>
      <point x="39.154" y="334.76800000000003"/>
      <point x="148.72199999999998" y="259.698"/>
      <point x="337.938" y="259.698" type="curve" smooth="yes"/>
      <point x="466.644" y="259.698"/>
      <point x="592.7019999999999" y="289.13800000000003"/>
      <point x="667.514" y="341.5559999999999" type="curve"/>
      <point x="666.556" y="431.78000000000003" type="line"/>
      <point x="592.818" y="382.9440000000001"/>
      <point x="483.64199999999994" y="348.456"/>
      <point x="380.55000000000007" y="348.456" type="curve" smooth="yes"/>
      <point x="249.464" y="348.456"/>
      <point x="164.074" y="393.67999999999995"/>
      <point x="164.074" y="477.95200000000006" type="curve" smooth="yes"/>
      <point x="164.074" y="568.4099999999999"/>
      <point x="252.29399999999998" y="615.694"/>
      <point x="394.724" y="615.694" type="curve" smooth="yes"/>
      <point x="565.05" y="615.694"/>
      <point x="651.0159999999998" y="539.8919999999999"/>
      <point x="651.0159999999998" y="356.878" type="curve" smooth="yes"/>
      <point x="651.0159999999998" y="175.72999999999996"/>
      <point x="558.1219999999998" y="87.74600000000002"/>
      <point x="349.50199999999995" y="87.74600000000002" type="curve" smooth="yes"/>
      <point x="262.102" y="87.74600000000002"/>
      <point x="185.46" y="102.442"/>
      <point x="92.66600000000001" y="123.17999999999999" type="curve"/>
      <point x="68.508" y="30.331999999999994" type="line"/>
      <point x="152.884" y="5.457999999999999"/>
      <point x="252.56799999999998" y="-10.0"/>
    </contour>
  </outline>
</glyph>
<glyph name="less" format="2">
  <advance width="576.272"/>
  <unicode hex="003C"/>
  <outline>
    <contour>
      <point x="523.526" y="63.003" type="line"/>
      <point x="523.526" y="158.316" type="line"/>
      <point x="160.14600000000002" y="300.867" type="line"/>
      <point x="523.526" y="444.215" type="line"/>
      <point x="523.526" y="539.2600000000001" type="line"/>
      <point x="52.745999999999995" y="347.159" type="line"/>
      <point x="52.745999999999995" y="253.67200000000003" type="line"/>
    </contour>
  </outline>
</glyph>
<glyph name="equal" format="2">
  <advance width="573.692"/>
  <unicode hex="003D"/>
  <outline>
    <contour>
      <point x="518.408" y="237.334" type="line"/>
      <point x="55.284" y="237.334" type="line"/>
      <point x="55.284" y="143.58900000000003" type="line"/>
      <point x="518.408" y="143.58900000000003" type="line"/>
    </contour>
    <contour>
      <point x="518.408" y="459.943" type="line"/>
      <point x="55.284" y="459.943" type="line"/>
      <point x="55.284" y="366.19800000000004" type="line"/>
      <point x="518.408" y="366.19800000000004" type="line"/>
    </contour>
  </outline>
</glyph>
<glyph name="greater" format="2">
  <advance width="576.272"/>
  <unicode hex="003E"/>
  <outline>
    <contour>
      <point x="523.526" y="253.50100000000003" type="line"/>
      <point x="523.526" y="346.988" type="line"/>
      <point x="52.745999999999995" y="539.2600000000001" type="line"/>
      <point x="52.745999999999995" y="443.474" type="line"/>
      <point x="416.126" y="300.69599999999997" type="line"/>
      <point x="52.745999999999995" y="157.974" type="line"/>
      <point x="52.745999999999995" y="63.003" type="line"/>
    </contour>
  </outline>
</glyph>
<glyph name="question" format="2">
  <advance width="581.9079999999999"/>
  <unicode hex="003F"/>
  <outline>
    <contour>
      <point x="215.903" y="260.653" type="line"/>
      <point x="322.591" y="260.653" type="line"/>
      <point x="323.193" y="322.986" type="line"/>
      <point x="485.14599999999996" y="371.13899999999995"/>
      <point x="554.2869999999999" y="433.16499999999996"/>
      <point x="554.2869999999999" y="542.43" type="curve" smooth="yes"/>
      <point x="554.2869999999999" y="694.83"/>
      <point x="421.63100000000003" y="749.8710000000001"/>
      <point x="290.16499999999996" y="749.8710000000001" type="curve" smooth="yes"/>
      <point x="198.428" y="749.8710000000001"/>
      <point x="87.84" y="722.987"/>
      <point x="13.552" y="675.606" type="curve"/>
      <point x="47.888" y="586.0920000000001" type="line"/>
      <point x="119.82700000000001" y="627.299"/>
      <point x="200.1" y="647.998"/>
      <point x="271.073" y="647.998" type="curve" smooth="yes"/>
      <point x="350.138" y="647.998"/>
      <point x="425.326" y="617.2620000000001"/>
      <point x="425.326" y="533.957" type="curve" smooth="yes"/>
      <point x="425.326" y="471.682"/>
      <point x="384.548" y="423.807"/>
      <point x="213.28" y="380.703" type="curve"/>
    </contour>
    <contour>
      <point x="201.245" y="54.496" type="curve" smooth="yes"/>
      <point x="201.245" y="12.738999999999999"/>
      <point x="219.58399999999997" y="-4.601"/>
      <point x="271.65299999999996" y="-4.601" type="curve" smooth="yes"/>
      <point x="324.034" y="-4.601"/>
      <point x="341.89000000000004" y="12.738999999999999"/>
      <point x="341.89000000000004" y="54.496" type="curve" smooth="yes"/>
      <point x="341.89000000000004" y="96.68299999999999"/>
      <point x="324.034" y="114.023"/>
      <point x="271.65299999999996" y="114.023" type="curve" smooth="yes"/>
      <point x="218.843" y="114.023"/>
      <point x="201.245" y="96.68299999999999"/>
    </contour>
  </outline>
</glyph>
<glyph name="at" format="2">
  <advance width="980.4719999999999"/>
  <unicode hex="0040"/>
  <outline>
    <contour>
      <point x="463.884" y="-123.86" type="curve" smooth="yes"/>
      <point x="553.8219999999999" y="-123.86"/>
      <point x="645.1859999999999" y="-103.17"/>
      <point x="715.032" y="-75.4" type="curve"/>
      <point x="696.472" y="-13.574000000000002" type="line"/>
      <point x="634.276" y="-39.57"/>
      <point x="554.1" y="-57.676"/>
      <point x="472.914" y="-57.676" type="curve" smooth="yes"/>
      <point x="271.818" y="-57.676"/>
      <point x="126.90200000000002" y="32.626"/>
      <point x="126.90200000000002" y="267.61800000000005" type="curve" smooth="yes"/>
      <point x="126.90200000000002" y="479.996"/>
      <point x="257.46999999999997" y="646.438"/>
      <point x="500.64399999999995" y="646.438" type="curve" smooth="yes"/>
      <point x="738.962" y="646.438"/>
      <point x="857.66" y="533.524"/>
      <point x="857.66" y="335.244" type="curve" smooth="yes"/>
      <point x="857.66" y="208.96399999999997"/>
      <point x="814.78" y="129.136"/>
      <point x="763.88" y="129.136" type="curve" smooth="yes"/>
      <point x="723.746" y="129.136"/>
      <point x="699.43" y="158.404"/>
      <point x="705.128" y="245.18400000000003" type="curve" smooth="yes"/>
      <point x="722.084" y="494.086" type="line"/>
      <point x="656.802" y="514.962"/>
      <point x="581.082" y="528.694"/>
      <point x="520.0739999999998" y="528.694" type="curve" smooth="yes"/>
      <point x="343.222" y="528.694"/>
      <point x="246.812" y="410.358"/>
      <point x="246.812" y="262.838" type="curve" smooth="yes"/>
      <point x="246.812" y="131.22199999999998"/>
      <point x="314.21" y="62.784000000000006"/>
      <point x="416.034" y="62.784000000000006" type="curve" smooth="yes"/>
      <point x="503.1959999999999" y="62.784000000000006"/>
      <point x="573.266" y="117.56"/>
      <point x="610.672" y="206.264" type="curve"/>
      <point x="620.246" y="115.16"/>
      <point x="653.5859999999999" y="56.25800000000001"/>
      <point x="744.6899999999999" y="56.25800000000001" type="curve" smooth="yes"/>
      <point x="868.2819999999999" y="56.25800000000001"/>
      <point x="929.6780000000001" y="188.28799999999998"/>
      <point x="929.6780000000001" y="337.566" type="curve" smooth="yes"/>
      <point x="929.6780000000001" y="575.0240000000001"/>
      <point x="777.8359999999999" y="709.9019999999999"/>
      <point x="510.53399999999993" y="709.9019999999999" type="curve" smooth="yes"/>
      <point x="215.65999999999997" y="709.9019999999999"/>
      <point x="51.94800000000001" y="518.29"/>
      <point x="51.94800000000001" y="268.22" type="curve" smooth="yes"/>
      <point x="51.94800000000001" y="-9.388000000000002"/>
      <point x="221.83599999999998" y="-123.86"/>
    </contour>
    <contour>
      <point x="454.55999999999995" y="153.20600000000002" type="curve" smooth="yes"/>
      <point x="404.506" y="153.20600000000002"/>
      <point x="366.056" y="190.694"/>
      <point x="366.056" y="272.98600000000005" type="curve" smooth="yes"/>
      <point x="366.056" y="366.324"/>
      <point x="421.71599999999995" y="447.676"/>
      <point x="510.55999999999995" y="447.676" type="curve" smooth="yes"/>
      <point x="540.308" y="447.676"/>
      <point x="574.5559999999999" y="442.99"/>
      <point x="608.258" y="433.02" type="curve"/>
      <point x="599.24" y="328.28000000000003" type="line" smooth="yes"/>
      <point x="574.088" y="197.66600000000003"/>
      <point x="516.052" y="153.20600000000002"/>
    </contour>
  </outline>
</glyph>
<glyph name="A" format="2">
  <advance width="823.0229999999999"/>
  <unicode hex="0041"/>
  <anchor x="814.151" y="0.0" name="ogonek"/>
  <anchor x="406.974" y="0.0" name="bottom"/>
  <anchor x="412.39199999999994" y="700.0" name="top"/>
  <outline>
    <contour>
      <point x="9.474" y="0.0" type="line"/>
      <point x="147.92000000000002" y="0.0" type="line"/>
      <point x="223.702" y="165.198" type="line"/>
      <point x="590.352" y="165.198" type="line"/>
      <point x="666.9209999999999" y="0.0" type="line"/>
      <point x="814.151" y="0.0" type="line"/>
      <point x="480.40299999999996" y="705.7" type="line"/>
      <point x="342.12100000000004" y="705.7" type="line"/>
    </contour>
    <contour>
      <point x="259.33" y="264.049" type="line"/>
      <point x="407.38" y="598.626" type="line"/>
      <point x="554.822" y="264.049" type="line"/>
    </contour>
  </outline>
</glyph>
<glyph name="B" format="2">
  <advance width="851.2199999999999"/>
  <unicode hex="0042"/>
  <anchor x="425.89" y="700.0" name="top"/>
  <anchor x="425.89" y="0.0" name="bottom"/>
  <outline>
    <contour>
      <point x="89.68199999999999" y="3.247999999999999" type="line"/>
      <point x="273.04" y="-7.944"/>
      <point x="318.136" y="-10.0"/>
      <point x="443.03799999999995" y="-10.0" type="curve" smooth="yes"/>
      <point x="716.094" y="-10.0"/>
      <point x="808.744" y="46.738"/>
      <point x="808.744" y="199.04399999999998" type="curve" smooth="yes"/>
      <point x="808.744" y="294.86600000000004"/>
      <point x="739.978" y="360.25399999999996"/>
      <point x="626.366" y="377.82" type="curve"/>
      <point x="626.366" y="379.778" type="line"/>
      <point x="714.208" y="404.354"/>
      <point x="759.4260000000002" y="460.338"/>
      <point x="759.4260000000002" y="541.4680000000001" type="curve" smooth="yes"/>
      <point x="759.4260000000002" y="663.72"/>
      <point x="673.326" y="710.0"/>
      <point x="434.53000000000003" y="710.0" type="curve" smooth="yes"/>
      <point x="344.164" y="710.0"/>
      <point x="246.38799999999998" y="706.0840000000001"/>
      <point x="89.68199999999999" y="696.2379999999999" type="curve"/>
    </contour>
    <contour>
      <point x="220.62199999999996" y="403.83799999999997" type="line"/>
      <point x="220.62199999999996" y="605.222" type="line"/>
      <point x="334.04599999999994" y="612.1140000000001"/>
      <point x="345.036" y="613.1140000000001"/>
      <point x="421.76399999999995" y="613.1140000000001" type="curve" smooth="yes"/>
      <point x="579.5759999999999" y="613.1140000000001"/>
      <point x="633.216" y="583.4580000000001"/>
      <point x="633.216" y="508.78800000000007" type="curve" smooth="yes"/>
      <point x="633.216" y="446.992"/>
      <point x="578.9780000000001" y="403.83799999999997"/>
      <point x="493.668" y="403.83799999999997" type="curve" smooth="yes"/>
    </contour>
    <contour>
      <point x="220.62199999999996" y="94.87599999999998" type="curve"/>
      <point x="220.62199999999996" y="311.598" type="line"/>
      <point x="496.69" y="311.598" type="line" smooth="yes"/>
      <point x="614.996" y="311.598"/>
      <point x="672.214" y="274.04200000000003"/>
      <point x="672.214" y="204.04999999999998" type="curve" smooth="yes"/>
      <point x="672.214" y="118.61600000000001"/>
      <point x="613.542" y="86.82999999999998"/>
      <point x="430.462" y="86.82999999999998" type="curve" smooth="yes"/>
      <point x="376.458" y="86.82999999999998"/>
      <point x="326.842" y="88.886"/>
    </contour>
  </outline>
</glyph>
<glyph name="C" format="2">
  <advance width="834.4110000000001"/>
  <unicode hex="0043"/>
  <anchor x="462.752" y="700.0" name="top"/>
  <anchor x="457.72200000000004" y="0.0" name="bottom"/>
  <outline>
    <contour>
      <point x="53.492999999999995" y="335.496" type="curve" smooth="yes"/>
      <point x="53.492999999999995" y="90.613"/>
      <point x="198.98" y="-10.0"/>
      <point x="465.335" y="-10.0" type="curve" smooth="yes"/>
      <point x="604.6009999999999" y="-10.0"/>
      <point x="704.7679999999999" y="6.608999999999998"/>
      <point x="793.64" y="32.577" type="curve"/>
      <point x="769.8359999999998" y="125.85" type="line"/>
      <point x="683.6689999999999" y="103.44999999999999"/>
      <point x="580.261" y="90.06800000000001"/>
      <point x="484.16799999999995" y="90.06800000000001" type="curve" smooth="yes"/>
      <point x="285.25299999999993" y="90.06800000000001"/>
      <point x="186.755" y="165.095"/>
      <point x="186.755" y="338.162" type="curve" smooth="yes"/>
      <point x="186.755" y="526.549"/>
      <point x="288.094" y="608.385"/>
      <point x="494.65000000000003" y="608.385" type="curve" smooth="yes"/>
      <point x="580.761" y="608.385"/>
      <point x="655.458" y="599.698"/>
      <point x="741.923" y="580.166" type="curve"/>
      <point x="768.178" y="676.02" type="line"/>
      <point x="678.404" y="700.539"/>
      <point x="606.364" y="710.0"/>
      <point x="486.48099999999994" y="710.0" type="curve" smooth="yes"/>
      <point x="205.22599999999997" y="710.0"/>
      <point x="53.492999999999995" y="593.1419999999999"/>
    </contour>
  </outline>
</glyph>
<glyph name="D" format="2">
  <advance width="908.41"/>
  <unicode hex="0044"/>
  <anchor x="448.27799999999996" y="700.0" name="top"/>
  <outline>
    <contour>
      <point x="430.8179999999999" y="-10.0" type="curve" smooth="yes"/>
      <point x="704.204" y="-10.0"/>
      <point x="854.788" y="105.62200000000001"/>
      <point x="854.788" y="345.776" type="curve" smooth="yes"/>
      <point x="854.788" y="598.388"/>
      <point x="718.3019999999999" y="710.0"/>
      <point x="414.1819999999999" y="710.0" type="curve" smooth="yes"/>
      <point x="306.91999999999996" y="710.0"/>
      <point x="210.55399999999997" y="707.042"/>
      <point x="89.68199999999999" y="700.168" type="curve"/>
      <point x="89.68199999999999" y="-1.1120000000000008" type="line"/>
      <point x="202.63599999999994" y="-5.070000000000001"/>
      <point x="314.21999999999997" y="-10.0"/>
    </contour>
    <contour>
      <point x="434.06399999999996" y="83.446" type="curve" smooth="yes"/>
      <point x="374.3759999999999" y="83.446"/>
      <point x="282.284" y="86.55799999999999"/>
      <point x="220.622" y="89.712" type="curve"/>
      <point x="220.622" y="610.6759999999999" type="line"/>
      <point x="282.59799999999996" y="614.3580000000001"/>
      <point x="365.61999999999995" y="616.512"/>
      <point x="423.2" y="616.512" type="curve" smooth="yes"/>
      <point x="623.612" y="616.512"/>
      <point x="720.6980000000001" y="535.9280000000001"/>
      <point x="720.6980000000001" y="346.30400000000003" type="curve" smooth="yes"/>
      <point x="720.6980000000001" y="167.376"/>
      <point x="616.44" y="83.446"/>
    </contour>
  </outline>
</glyph>
<glyph name="E" format="2">
  <advance width="780.7799999999999"/>
  <unicode hex="0045"/>
  <anchor x="742.874" y="0.0" name="ogonek"/>
  <anchor x="416.34799999999996" y="0.0" name="bottom"/>
  <anchor x="415.49" y="700.0" name="top"/>
  <outline>
    <contour>
      <point x="89.68199999999999" y="0.0" type="line"/>
      <point x="743.304" y="0.0" type="line"/>
      <point x="743.304" y="106.85999999999999" type="line"/>
      <point x="221.052" y="106.85999999999999" type="line"/>
      <point x="221.052" y="313.72200000000004" type="line"/>
      <point x="691.9860000000001" y="313.72200000000004" type="line"/>
      <point x="691.9860000000001" y="417.96000000000004" type="line"/>
      <point x="221.052" y="417.96000000000004" type="line"/>
      <point x="221.052" y="593.14" type="line"/>
      <point x="719.832" y="593.14" type="line"/>
      <point x="719.832" y="700.0" type="line"/>
      <point x="89.68199999999999" y="700.0" type="line"/>
    </contour>
  </outline>
</glyph>
<glyph name="F" format="2">
  <advance width="741.452"/>
  <unicode hex="0046"/>
  <outline>
    <contour>
      <point x="89.68199999999999" y="0.0" type="line"/>
      <point x="221.05199999999996" y="0.0" type="line"/>
      <point x="221.05199999999996" y="257.674" type="line"/>
      <point x="657.07" y="257.674" type="line"/>
      <point x="657.07" y="361.48199999999997" type="line"/>
      <point x="220.622" y="361.48199999999997" type="line"/>
      <point x="220.622" y="592.28" type="line"/>
      <point x="716.3919999999999" y="592.28" type="line"/>
      <point x="716.3919999999999" y="700.0" type="line"/>
      <point x="89.68199999999999" y="700.0" type="line"/>
    </contour>
  </outline>
</glyph>
<glyph name="G" format="2">
  <advance width="875.112"/>
  <unicode hex="0047"/>
  <anchor x="454.815" y="700.0" name="top"/>
  <anchor x="454.13500000000005" y="0.0" name="bottom"/>
  <outline>
    <contour>
      <point x="53.492999999999995" y="335.75399999999996" type="curve" smooth="yes"/>
      <point x="53.492999999999995" y="106.284"/>
      <point x="188.911" y="-10.0"/>
      <point x="447.381" y="-10.0" type="curve" smooth="yes"/>
      <point x="587.784" y="-10.0"/>
      <point x="712.176" y="9.032999999999998"/>
      <point x="804.8359999999999" y="46.45" type="curve"/>
      <point x="804.8359999999999" y="365.828" type="line"/>
      <point x="465.15500000000003" y="365.828" type="line"/>
      <point x="465.15500000000003" y="275.34999999999997" type="line"/>
      <point x="688.387" y="275.34999999999997" type="line"/>
      <point x="688.387" y="112.52300000000001" type="line"/>
      <point x="628.846" y="93.40299999999999"/>
      <point x="554.553" y="83.962"/>
      <point x="467.46099999999996" y="83.962" type="curve" smooth="yes"/>
      <point x="285.62799999999993" y="83.962"/>
      <point x="186.49699999999996" y="165.509"/>
      <point x="186.49699999999996" y="337.259" type="curve" smooth="yes"/>
      <point x="186.49699999999996" y="516.1179999999999"/>
      <point x="287.585" y="608.6429999999999"/>
      <point x="481.22499999999997" y="608.6429999999999" type="curve" smooth="yes"/>
      <point x="566.0769999999999" y="608.6429999999999"/>
      <point x="655.042" y="597.648"/>
      <point x="746.462" y="574.85" type="curve"/>
      <point x="771.298" y="670.1640000000001" type="line"/>
      <point x="678.7259999999999" y="697.52"/>
      <point x="589.2379999999999" y="710.0"/>
      <point x="473.701" y="710.0" type="curve" smooth="yes"/>
      <point x="199.435" y="710.0"/>
      <point x="53.492999999999995" y="580.449"/>
    </contour>
  </outline>
</glyph>
<glyph name="H" format="2">
  <advance width="930.8919999999999"/>
  <unicode hex="0048"/>
  <anchor x="465.71" y="700.0" name="top"/>
  <outline>
    <contour>
      <point x="89.42399999999999" y="0.0" type="line"/>
      <point x="219.71900000000002" y="0.0" type="line"/>
      <point x="219.71900000000002" y="258.39400000000006" type="line"/>
      <point x="711.173" y="258.39400000000006" type="line"/>
      <point x="711.173" y="0.0" type="line"/>
      <point x="841.468" y="0.0" type="line"/>
      <point x="841.468" y="700.0" type="line"/>
      <point x="711.173" y="700.0" type="line"/>
      <point x="711.173" y="365.728" type="line"/>
      <point x="219.71900000000002" y="365.728" type="line"/>
      <point x="219.71900000000002" y="700.0" type="line"/>
      <point x="89.42399999999999" y="700.0" type="line"/>
    </contour>
  </outline>
</glyph>
<glyph name="I" format="2">
  <advance width="309.143"/>
  <unicode hex="0049"/>
  <anchor x="219.71900000000002" y="0.0" name="ogonek"/>
  <anchor x="154.636" y="0.0" name="bottom"/>
  <anchor x="154.636" y="700.0" name="top"/>
  <outline>
    <contour>
      <point x="89.42399999999999" y="0.0" type="line"/>
      <point x="219.71900000000002" y="0.0" type="line"/>
      <point x="219.71900000000002" y="700.0" type="line"/>
      <point x="89.42399999999999" y="700.0" type="line"/>
    </contour>
  </outline>
</glyph>
<glyph name="J" format="2">
  <advance width="658.9019999999999"/>
  <unicode hex="004A"/>
  <anchor x="329.459" y="700.0" name="top"/>
  <outline>
    <contour>
      <point x="16.037999999999997" y="30.883999999999993" type="line"/>
      <point x="108.58399999999999" y="3.5009999999999994"/>
      <point x="212.70499999999996" y="-10.399"/>
      <point x="298.39899999999994" y="-10.399" type="curve" smooth="yes"/>
      <point x="493.736" y="-10.399"/>
      <point x="584.668" y="72.206"/>
      <point x="584.668" y="249.44400000000002" type="curve" smooth="yes"/>
      <point x="584.668" y="700.0" type="line"/>
      <point x="77.066" y="700.0" type="line"/>
      <point x="77.066" y="595.16" type="line"/>
      <point x="454.37299999999993" y="595.16" type="line"/>
      <point x="454.37299999999993" y="268.28099999999995" type="line" smooth="yes"/>
      <point x="454.37299999999993" y="140.494"/>
      <point x="389.822" y="90.958"/>
      <point x="268.127" y="90.958" type="curve" smooth="yes"/>
      <point x="206.291" y="90.958"/>
      <point x="123.113" y="104.17099999999999"/>
      <point x="41.991" y="126.265" type="curve"/>
    </contour>
  </outline>
</glyph>
<glyph name="K" format="2">
  <advance width="852.0399999999998"/>
  <unicode hex="004B"/>
  <anchor x="424.9799999999999" y="700.0" name="top"/>
  <anchor x="417.81" y="0.0" name="bottom"/>
  <outline>
    <contour>
      <point x="806.42" y="-10.0" type="curve" smooth="yes"/>
      <point x="812.93" y="-10.0"/>
      <point x="821.1499999999999" y="-10.0"/>
      <point x="829.7299999999999" y="-8.5" type="curve"/>
      <point x="829.7299999999999" y="111.26" type="line"/>
      <point x="823.0799999999999" y="110.69"/>
      <point x="816.3599999999999" y="110.69"/>
      <point x="810.7099999999999" y="110.69" type="curve" smooth="yes"/>
      <point x="748.22" y="110.97"/>
      <point x="694.1999999999999" y="133.81"/>
      <point x="582.3299999999999" y="211.25" type="curve" smooth="yes"/>
      <point x="220.21999999999994" y="461.41999999999996" type="line"/>
      <point x="220.21999999999994" y="700.0" type="line"/>
      <point x="89.71" y="700.0" type="line"/>
      <point x="89.71" y="0.0" type="line"/>
      <point x="220.21999999999994" y="0.0" type="line"/>
      <point x="220.21999999999994" y="323.04999999999995" type="line"/>
      <point x="556.29" y="89.89999999999999" type="line" smooth="yes"/>
      <point x="660.5099999999999" y="17.82"/>
      <point x="733.27" y="-10.0"/>
    </contour>
    <contour>
      <point x="379.6899999999999" y="309.76000000000005" type="line"/>
      <point x="538.81" y="378.69"/>
      <point x="716.3499999999998" y="493.43999999999994"/>
      <point x="808.36" y="647.6999999999999" type="curve"/>
      <point x="712.24" y="708.87" type="line"/>
      <point x="607.1899999999999" y="547.8"/>
      <point x="421.12999999999994" y="432.53999999999996"/>
      <point x="289.36999999999995" y="366.83" type="curve"/>
    </contour>
  </outline>
</glyph>
<glyph name="L" format="2">
  <advance width="717.5699999999999"/>
  <unicode hex="004C"/>
  <anchor x="359.049" y="350.0" name="center"/>
  <anchor x="154.636" y="700.0" name="top"/>
  <anchor x="444.445" y="700.0" name="topright"/>
  <anchor x="387.039" y="0.0" name="bottom"/>
  <outline>
    <contour>
      <point x="89.42399999999999" y="0.0" type="line"/>
      <point x="693.49" y="0.0" type="line"/>
      <point x="693.49" y="106.43100000000001" type="line"/>
      <point x="219.84799999999998" y="106.43100000000001" type="line"/>
      <point x="219.84799999999998" y="700.0" type="line"/>
      <point x="89.42399999999999" y="700.0" type="line"/>
    </contour>
  </outline>
</glyph>
<glyph name="M" format="2">
  <advance width="1037.4270000000001"/>
  <unicode hex="004D"/>
  <outline>
    <contour>
      <point x="89.62399999999998" y="0.0" type="line"/>
      <point x="210.072" y="0.0" type="line"/>
      <point x="210.072" y="536.614" type="line"/>
      <point x="487.72799999999995" y="208.23499999999999" type="line"/>
      <point x="546.361" y="208.23499999999999" type="line"/>
      <point x="827.355" y="540.656" type="line"/>
      <point x="827.355" y="0.0" type="line"/>
      <point x="947.8029999999999" y="0.0" type="line"/>
      <point x="947.8029999999999" y="700.0" type="line"/>
      <point x="822.12" y="700.0" type="line"/>
      <point x="521.092" y="336.929" type="line"/>
      <point x="221.972" y="700.0" type="line"/>
      <point x="89.62399999999998" y="700.0" type="line"/>
    </contour>
  </outline>
</glyph>
<glyph name="N" format="2">
  <advance width="905.44"/>
  <unicode hex="004E"/>
  <anchor x="452.9699999999999" y="700.0" name="top"/>
  <anchor x="452.9699999999999" y="0.0" name="bottom"/>
  <outline>
    <contour>
      <point x="89.49499999999999" y="0.0" type="line"/>
      <point x="207.96499999999997" y="0.0" type="line"/>
      <point x="207.96499999999997" y="522.3499999999999" type="line"/>
      <point x="699.55" y="-0.8600000000000002" type="line"/>
      <point x="815.9449999999999" y="-0.8600000000000002" type="line"/>
      <point x="815.9449999999999" y="700.0" type="line"/>
      <point x="697.475" y="700.0" type="line"/>
      <point x="697.475" y="170.965" type="line"/>
      <point x="206.03500000000003" y="703.99" type="line"/>
      <point x="89.49499999999999" y="703.99" type="line"/>
    </contour>
  </outline>
</glyph>
<glyph name="O" format="2">
  <advance width="952.155"/>
  <unicode hex="004F"/>
  <anchor x="555.225" y="0.6450000000000009" name="ogonek"/>
  <anchor x="475.115" y="700.0" name="top"/>
  <anchor x="731.3149999999999" y="677.605" name="topright"/>
  <anchor x="475.76" y="0.0" name="bottom"/>
  <outline>
    <contour>
      <point x="475.33" y="83.46000000000001" type="curve" smooth="yes"/>
      <point x="328.72499999999997" y="83.46000000000001"/>
      <point x="186.525" y="141.42999999999998"/>
      <point x="186.525" y="350.145" type="curve" smooth="yes"/>
      <point x="186.525" y="563.6300000000001"/>
      <point x="327.21999999999997" y="617.4"/>
      <point x="475.33" y="617.4" type="curve" smooth="yes"/>
      <point x="625.9449999999999" y="617.4"/>
      <point x="764.8449999999998" y="561.62"/>
      <point x="764.8449999999998" y="350.36" type="curve" smooth="yes"/>
      <point x="764.8449999999998" y="139.6"/>
      <point x="625.73" y="83.46000000000001"/>
    </contour>
    <contour>
      <point x="475.76" y="-10.0" type="curve" smooth="yes"/>
      <point x="716.0449999999998" y="-10.0"/>
      <point x="898.0749999999999" y="74.14499999999998"/>
      <point x="898.0749999999999" y="353.64500000000004" type="curve" smooth="yes"/>
      <point x="898.0749999999999" y="623.9200000000001"/>
      <point x="718.2950000000001" y="710.0"/>
      <point x="475.33" y="710.0" type="curve" smooth="yes"/>
      <point x="230.725" y="710.0"/>
      <point x="54.07999999999999" y="622.28"/>
      <point x="54.07999999999999" y="351.005" type="curve" smooth="yes"/>
      <point x="54.07999999999999" y="80.77"/>
      <point x="237.82" y="-10.0"/>
    </contour>
  </outline>
</glyph>
<glyph name="P" format="2">
  <advance width="853.245"/>
  <unicode hex="0050"/>
  <outline>
    <contour>
      <point x="89.42399999999999" y="0.0" type="line"/>
      <point x="219.84799999999998" y="0.0" type="line"/>
      <point x="219.84799999999998" y="220.715" type="line"/>
      <point x="338.269" y="217.228"/>
      <point x="355.399" y="216.829"/>
      <point x="461.815" y="216.829" type="curve" smooth="yes"/>
      <point x="722.847" y="216.829"/>
      <point x="814.089" y="282.911"/>
      <point x="814.089" y="468.609" type="curve" smooth="yes"/>
      <point x="814.089" y="643.957"/>
      <point x="738.6779999999999" y="710.0"/>
      <point x="420.404" y="710.0" type="curve" smooth="yes"/>
      <point x="369.431" y="710.0"/>
      <point x="271.15899999999993" y="707.828"/>
      <point x="89.42399999999999" y="700.942" type="curve"/>
    </contour>
    <contour>
      <point x="219.97699999999998" y="609.3000000000001" type="line"/>
      <point x="340.038" y="614.596"/>
      <point x="377.82899999999995" y="615.565"/>
      <point x="430.25" y="615.565" type="curve" smooth="yes"/>
      <point x="632.256" y="615.565"/>
      <point x="681.558" y="572.3380000000001"/>
      <point x="681.558" y="469.343" type="curve" smooth="yes"/>
      <point x="681.558" y="354.37600000000003"/>
      <point x="633.749" y="312.122"/>
      <point x="415.288" y="312.122" type="curve" smooth="yes"/>
      <point x="343.806" y="312.122"/>
      <point x="304.78999999999996" y="313.62000000000006"/>
      <point x="219.97699999999998" y="316.45" type="curve"/>
    </contour>
  </outline>
</glyph>
<glyph name="Q" format="2">
  <advance width="952.2839999999999"/>
  <unicode hex="0051"/>
  <outline>
    <contour>
      <point x="608.156" y="20.811999999999998" type="curve"/>
      <point x="491.24999999999994" y="2.816" type="line"/>
      <point x="545.808" y="-130.0"/>
      <point x="617.192" y="-202.953"/>
      <point x="727.635" y="-202.953" type="curve" smooth="yes"/>
      <point x="764.3870000000001" y="-202.953"/>
      <point x="806.4779999999998" y="-195.458"/>
      <point x="850.8169999999999" y="-178.269" type="curve"/>
      <point x="834.545" y="-82.681" type="line"/>
      <point x="804.6709999999998" y="-95.446"/>
      <point x="776.115" y="-101.53800000000001"/>
      <point x="750.9949999999999" y="-101.53800000000001" type="curve" smooth="yes"/>
      <point x="687.231" y="-101.53800000000001"/>
      <point x="644.8950000000001" y="-57.763"/>
    </contour>
    <component base="O"/>
  </outline>
</glyph>
<glyph name="R" format="2">
  <advance width="885.1099999999999"/>
  <unicode hex="0052"/>
  <anchor x="433.03999999999996" y="700.0" name="top"/>
  <anchor x="445.1499999999999" y="0.0" name="bottom"/>
  <outline>
    <contour>
      <point x="839.2299999999999" y="-10.0" type="curve" smooth="yes"/>
      <point x="849.3199999999999" y="-10.0"/>
      <point x="859.26" y="-9.0"/>
      <point x="866.8399999999999" y="-8.0" type="curve"/>
      <point x="866.27" y="106.1" type="line"/>
      <point x="860.91" y="105.53"/>
      <point x="852.98" y="105.03"/>
      <point x="848.6899999999999" y="105.03" type="curve" smooth="yes"/>
      <point x="783.9999999999999" y="105.03"/>
      <point x="692.8000000000002" y="175.77"/>
      <point x="587.2900000000001" y="287.78" type="curve"/>
      <point x="719.7900000000001" y="311.96"/>
      <point x="801.5100000000001" y="365.60999999999996"/>
      <point x="801.5100000000001" y="501.1" type="curve" smooth="yes"/>
      <point x="801.5100000000001" y="655.9599999999999"/>
      <point x="698.78" y="709.93"/>
      <point x="408.57000000000005" y="709.93" type="curve" smooth="yes"/>
      <point x="322.61999999999995" y="709.93"/>
      <point x="229.14" y="707.5699999999999"/>
      <point x="89.71" y="701.2099999999999" type="curve"/>
      <point x="89.71" y="0.0" type="line"/>
      <point x="220.64999999999998" y="0.0" type="line"/>
      <point x="220.64999999999998" y="261.84" type="line"/>
      <point x="274.72999999999996" y="260.2"/>
      <point x="332.91999999999996" y="259.56"/>
      <point x="380.86999999999995" y="259.56" type="curve" smooth="yes"/>
      <point x="396.18999999999994" y="259.56"/>
      <point x="425.63" y="259.2"/>
      <point x="440.94999999999993" y="259.77" type="curve"/>
      <point x="587.5899999999999" y="97.60999999999999"/>
      <point x="726.2900000000001" y="-10.0"/>
    </contour>
    <contour>
      <point x="409.75" y="358.25" type="curve" smooth="yes"/>
      <point x="351.48" y="358.25"/>
      <point x="295.50999999999993" y="359.75"/>
      <point x="220.64999999999998" y="362.25" type="curve"/>
      <point x="220.64999999999998" y="612.69" type="line"/>
      <point x="307.7" y="617.26"/>
      <point x="335.37000000000006" y="617.3299999999999"/>
      <point x="414.65999999999997" y="617.3299999999999" type="curve" smooth="yes"/>
      <point x="605.2900000000001" y="617.3299999999999"/>
      <point x="666.6999999999999" y="584.64"/>
      <point x="666.6999999999999" y="485.98" type="curve" smooth="yes"/>
      <point x="666.6999999999999" y="387.4"/>
      <point x="602.9699999999999" y="358.25"/>
    </contour>
  </outline>
</glyph>
<glyph name="S" format="2">
  <advance width="792.6499999999997"/>
  <unicode hex="0053"/>
  <anchor x="400.3" y="700.0" name="top"/>
  <anchor x="392.55999999999995" y="0.0" name="bottom"/>
  <outline>
    <contour>
      <point x="705.7199999999999" y="671.5" type="line"/>
      <point x="650.91" y="686.12"/>
      <point x="532.7399999999999" y="710.0"/>
      <point x="411.23" y="710.0" type="curve" smooth="yes"/>
      <point x="171.67" y="710.0"/>
      <point x="54.08" y="639.9200000000001"/>
      <point x="54.08" y="508.06" type="curve" smooth="yes"/>
      <point x="54.08" y="387.48"/>
      <point x="157.09" y="338.7199999999999"/>
      <point x="321.7299999999999" y="305.67" type="curve" smooth="yes"/>
      <point x="505.97999999999996" y="271.25000000000006"/>
      <point x="620.41" y="254.66000000000003"/>
      <point x="620.41" y="183.26000000000002" type="curve" smooth="yes"/>
      <point x="620.41" y="116.82000000000001"/>
      <point x="544.7899999999998" y="85.25"/>
      <point x="394.02000000000004" y="85.25" type="curve" smooth="yes"/>
      <point x="276.01" y="85.25"/>
      <point x="127.95999999999998" y="114.66000000000001"/>
      <point x="50.28999999999999" y="139.82999999999998" type="curve"/>
      <point x="25.23" y="42.92999999999999" type="line"/>
      <point x="102.32999999999998" y="18.26"/>
      <point x="254.58999999999995" y="-10.0"/>
      <point x="380.68999999999994" y="-10.0" type="curve" smooth="yes"/>
      <point x="621.9300000000001" y="-10.0"/>
      <point x="754.8599999999999" y="55.30000000000001"/>
      <point x="754.8599999999999" y="194.57999999999998" type="curve" smooth="yes"/>
      <point x="754.8599999999999" y="319.04"/>
      <point x="644.1800000000001" y="363.5"/>
      <point x="460.03000000000003" y="396.91" type="curve" smooth="yes"/>
      <point x="284.81" y="428.24999999999994"/>
      <point x="188.1" y="445.84000000000003"/>
      <point x="188.1" y="517.95" type="curve" smooth="yes"/>
      <point x="188.1" y="581.1199999999999"/>
      <point x="265.08000000000004" y="614.8199999999999"/>
      <point x="405.21000000000004" y="614.8199999999999" type="curve" smooth="yes"/>
      <point x="509.6699999999999" y="614.8199999999999"/>
      <point x="630.6500000000001" y="592.2999999999998"/>
      <point x="682.02" y="575.96" type="curve"/>
    </contour>
  </outline>
</glyph>
<glyph name="T" format="2">
  <advance width="750.9459999999999"/>
  <unicode hex="0054"/>
  <anchor x="375.47299999999996" y="700.0" name="top"/>
  <anchor x="375.47299999999996" y="0.0" name="bottom"/>
  <outline>
    <contour>
      <point x="735.8720000000001" y="593.452" type="line"/>
      <point x="735.8720000000001" y="700.0" type="line"/>
      <point x="15.074000000000002" y="700.0" type="line"/>
      <point x="15.074000000000002" y="593.452" type="line"/>
      <point x="310.39" y="593.452" type="line"/>
      <point x="310.39" y="0.0" type="line"/>
      <point x="440.685" y="0.0" type="line"/>
      <point x="440.685" y="593.452" type="line"/>
    </contour>
  </outline>
</glyph>
<glyph name="U" format="2">
  <advance width="897.7299999999999"/>
  <unicode hex="0055"/>
  <anchor x="530.3059999999999" y="0.258" name="ogonek"/>
  <anchor x="449.015" y="700.0" name="top"/>
  <anchor x="823.496" y="700.0" name="topright"/>
  <anchor x="449.015" y="0.0" name="bottom"/>
  <outline>
    <contour>
      <point x="74.23400000000001" y="253.972" type="line"/>
      <point x="74.23400000000001" y="53.97999999999999"/>
      <point x="234.786" y="-10.0"/>
      <point x="448.757" y="-10.0" type="curve" smooth="yes"/>
      <point x="663.631" y="-10.0"/>
      <point x="823.496" y="53.97999999999999"/>
      <point x="823.496" y="253.972" type="curve" smooth="yes"/>
      <point x="823.496" y="700.0" type="line"/>
      <point x="695.351" y="700.0" type="line"/>
      <point x="695.351" y="260.379" type="line" smooth="yes"/>
      <point x="695.351" y="125.711"/>
      <point x="577.951" y="88.131"/>
      <point x="449.66" y="88.131" type="curve" smooth="yes"/>
      <point x="323.605" y="88.131"/>
      <point x="202.12099999999998" y="123.002"/>
      <point x="202.12099999999998" y="260.379" type="curve" smooth="yes"/>
      <point x="202.12099999999998" y="700.0" type="line"/>
      <point x="74.23400000000001" y="700.0" type="line"/>
    </contour>
  </outline>
</glyph>
<glyph name="V" format="2">
  <advance width="820.6429999999999"/>
  <unicode hex="0056"/>
  <outline>
    <contour>
      <point x="342.111" y="0.0" type="line"/>
      <point x="479.865" y="0.0" type="line"/>
      <point x="815.813" y="697.865" type="line"/>
      <point x="676.806" y="702.936" type="line"/>
      <point x="411.59" y="117.5" type="line"/>
      <point x="144.74" y="702.936" type="line"/>
      <point x="4.83" y="697.865" type="line"/>
    </contour>
  </outline>
</glyph>
<glyph name="W" format="2">
  <advance width="1071.19"/>
  <unicode hex="0057"/>
  <anchor x="535.345" y="700.0" name="top"/>
  <anchor x="535.345" y="0.0" name="bottom"/>
  <outline>
    <contour>
      <point x="852.2519999999998" y="0.0" type="line"/>
      <point x="1064.796" y="698.763" type="line"/>
      <point x="926.627" y="702.038" type="line"/>
      <point x="791.0659999999999" y="145.623" type="line"/>
      <point x="599.751" y="666.276" type="line"/>
      <point x="478.19000000000005" y="666.276" type="line"/>
      <point x="281.758" y="144.41899999999998" type="line"/>
      <point x="142.757" y="702.038" type="line"/>
      <point x="6.393999999999999" y="698.763" type="line"/>
      <point x="215.06799999999998" y="0.0" type="line"/>
      <point x="338.30999999999995" y="0.0" type="line"/>
      <point x="532.077" y="498.08500000000004" type="line"/>
      <point x="718.7489999999999" y="0.0" type="line"/>
    </contour>
  </outline>
</glyph>
<glyph name="X" format="2">
  <advance width="798.7900000000001"/>
  <unicode hex="0058"/>
  <outline>
    <contour>
      <point x="10.309999999999999" y="3.42" type="line"/>
      <point x="156.25" y="-3.9899999999999998" type="line"/>
      <point x="397.39" y="278.85" type="line"/>
      <point x="633.1500000000001" y="-3.9899999999999998" type="line"/>
      <point x="786.7600000000001" y="3.42" type="line"/>
      <point x="483.2" y="362.28999999999996" type="line"/>
      <point x="770.06" y="696.44" type="line"/>
      <point x="630.64" y="702.5600000000001" type="line"/>
      <point x="407.84999999999997" y="440.72" type="line"/>
      <point x="189.65" y="703.4200000000001" type="line"/>
      <point x="33.03000000000001" y="696.44" type="line"/>
      <point x="326.40999999999997" y="359.93" type="line"/>
    </contour>
  </outline>
</glyph>
<glyph name="Y" format="2">
  <advance width="808.5999999999999"/>
  <unicode hex="0059"/>
  <anchor x="404.471" y="700.0" name="top"/>
  <anchor x="407.093" y="0.0" name="bottom"/>
  <outline>
    <contour>
      <point x="342.052" y="0.0" type="line"/>
      <point x="472.347" y="0.0" type="line"/>
      <point x="472.347" y="273.61" type="line"/>
      <point x="803.4570000000001" y="696.295" type="line"/>
      <point x="662.506" y="703.705" type="line"/>
      <point x="407.866" y="350.46599999999995" type="line"/>
      <point x="146.61399999999998" y="703.705" type="line"/>
      <point x="4.4590000000000005" y="696.295" type="line"/>
      <point x="342.052" y="273.61" type="line"/>
    </contour>
  </outline>
</glyph>
<glyph name="Z" format="2">
  <advance width="781.688"/>
  <unicode hex="005A"/>
  <anchor x="391.42599999999993" y="350.0" name="center"/>
  <anchor x="391.42599999999993" y="0.0" name="bottom"/>
  <anchor x="393.823" y="700.0" name="top"/>
  <outline>
    <contour>
      <point x="33.205000000000005" y="0.0" type="line"/>
      <point x="753.001" y="0.0" type="line"/>
      <point x="753.001" y="97.143" type="line"/>
      <point x="207.586" y="97.143" type="line"/>
      <point x="207.586" y="98.928" type="line"/>
      <point x="718.782" y="610.61" type="line"/>
      <point x="718.782" y="700.0" type="line"/>
      <point x="55.731" y="700.0" type="line"/>
      <point x="55.731" y="603.2869999999999" type="line"/>
      <point x="547.841" y="603.2869999999999" type="line"/>
      <point x="547.841" y="601.072" type="line"/>
      <point x="33.205000000000005" y="89.82000000000001" type="line"/>
    </contour>
  </outline>
</glyph>
<glyph name="bracketleft" format="2">
  <advance width="396.50600000000003"/>
  <unicode hex="005B"/>
  <outline>
    <contour>
      <point x="179.03199999999998" y="-131.95000000000002" type="line"/>
      <point x="179.03199999999998" y="661.95" type="line"/>
      <point x="364.656" y="661.95" type="line"/>
      <point x="364.656" y="740.0" type="line"/>
      <point x="81.24499999999999" y="740.0" type="line"/>
      <point x="81.24499999999999" y="-210.0" type="line"/>
      <point x="364.656" y="-210.0" type="line"/>
      <point x="364.656" y="-131.95000000000002" type="line"/>
    </contour>
  </outline>
</glyph>
<glyph name="backslash" format="2">
  <advance width="453.303"/>
  <unicode hex="005C"/>
  <outline>
    <contour>
      <point x="105.154" y="740.0" type="line"/>
      <point x="6.052" y="740.0" type="line"/>
      <point x="348.27799999999996" y="-210.0" type="line"/>
      <point x="447.2509999999999" y="-210.0" type="line"/>
    </contour>
  </outline>
</glyph>
<glyph name="bracketright" format="2">
  <advance width="396.50600000000003"/>
  <unicode hex="005D"/>
  <outline>
    <contour>
      <point x="31.85" y="-131.95000000000002" type="line"/>
      <point x="31.85" y="-210.0" type="line"/>
      <point x="315.26099999999997" y="-210.0" type="line"/>
      <point x="315.26099999999997" y="740.0" type="line"/>
      <point x="31.85" y="740.0" type="line"/>
      <point x="31.85" y="661.95" type="line"/>
      <point x="217.474" y="661.95" type="line"/>
      <point x="217.474" y="-131.95000000000002" type="line"/>
    </contour>
  </outline>
</glyph>
<glyph name="asciicircum" format="2">
  <advance width="576.272"/>
  <unicode hex="005E"/>
  <outline>
    <contour>
      <point x="48.405" y="249.85299999999995" type="line"/>
      <point x="148.03300000000002" y="249.85299999999995" type="line"/>
      <point x="288.136" y="580.433" type="line"/>
      <point x="428.669" y="249.85299999999995" type="line"/>
      <point x="527.867" y="249.85299999999995" type="line"/>
      <point x="341.437" y="705.7" type="line"/>
      <point x="234.835" y="705.7" type="line"/>
    </contour>
  </outline>
</glyph>
<glyph name="underscore" format="2">
  <advance width="896.762"/>
  <unicode hex="005F"/>
  <outline>
    <contour>
      <point x="8.6" y="-167.69099999999997" type="line"/>
      <point x="888.1619999999999" y="-167.69099999999997" type="line"/>
      <point x="888.1619999999999" y="-84.051" type="line"/>
      <point x="8.6" y="-84.051" type="line"/>
    </contour>
  </outline>
</glyph>
<glyph name="a" format="2">
  <advance width="679.6999999999999"/>
  <unicode hex="0061"/>
  <anchor x="660.1" y="6.3100000000000005" name="ogonek"/>
  <anchor x="337.64000000000004" y="0.0" name="bottom"/>
  <anchor x="337.49" y="538.6" name="top"/>
  <outline>
    <contour>
      <point x="42.16000000000001" y="137.57" type="curve" smooth="yes"/>
      <point x="42.16000000000001" y="34.230000000000004"/>
      <point x="117.21" y="-10.0"/>
      <point x="212.23000000000002" y="-10.0" type="curve" smooth="yes"/>
      <point x="321.66999999999996" y="-10.0"/>
      <point x="403.80999999999995" y="25.770000000000003"/>
      <point x="471.46" y="75.53999999999999" type="curve"/>
      <point x="484.35999999999996" y="10.600000000000005"/>
      <point x="525.3300000000002" y="-10.0"/>
      <point x="587.0699999999999" y="-10.0" type="curve" smooth="yes"/>
      <point x="618.56" y="-10.0"/>
      <point x="648.3999999999999" y="-2.3400000000000003"/>
      <point x="673.0" y="12.76" type="curve"/>
      <point x="660.98" y="92.97" type="line"/>
      <point x="651.0600000000001" y="88.83"/>
      <point x="640.0600000000001" y="87.69"/>
      <point x="631.2099999999999" y="87.69" type="curve" smooth="yes"/>
      <point x="603.6099999999999" y="87.69"/>
      <point x="585.9899999999999" y="102.74000000000001"/>
      <point x="586.1299999999999" y="157.53000000000003" type="curve" smooth="yes"/>
      <point x="586.4799999999999" y="363.18" type="line" smooth="yes"/>
      <point x="586.6899999999999" y="490.07"/>
      <point x="495.40000000000003" y="548.6"/>
      <point x="315.37" y="548.6" type="curve" smooth="yes"/>
      <point x="240.32999999999996" y="548.6"/>
      <point x="156.72" y="535.88"/>
      <point x="82.07" y="516.38" type="curve"/>
      <point x="99.53999999999999" y="428.08" type="line"/>
      <point x="170.29999999999998" y="447.0"/>
      <point x="250.41" y="456.78999999999996"/>
      <point x="308.27" y="456.78999999999996" type="curve" smooth="yes"/>
      <point x="409.89" y="456.78999999999996"/>
      <point x="462.62999999999994" y="424.28999999999996"/>
      <point x="462.48999999999995" y="361.89" type="curve" smooth="yes"/>
      <point x="462.41999999999996" y="313.21999999999997" type="line"/>
      <point x="172.58999999999997" y="301.59999999999997"/>
      <point x="42.16000000000001" y="277.78000000000003"/>
    </contour>
    <contour>
      <point x="169.66" y="144.72" type="curve" smooth="yes"/>
      <point x="169.66" y="229.01999999999998"/>
      <point x="272.7899999999999" y="242.23"/>
      <point x="462.3499999999999" y="249.07000000000002" type="curve"/>
      <point x="462.13999999999993" y="143.04" type="line"/>
      <point x="404.67" y="95.71000000000001"/>
      <point x="316.02" y="67.55000000000001"/>
      <point x="257.87999999999994" y="67.55000000000001" type="curve" smooth="yes"/>
      <point x="203.02999999999997" y="67.55000000000001"/>
      <point x="169.66" y="92.87"/>
    </contour>
  </outline>
</glyph>
<glyph name="b" format="2">
  <advance width="720.479"/>
  <unicode hex="0062"/>
  <outline>
    <contour>
      <point x="75.705" y="18.436999999999998" type="line"/>
      <point x="179.815" y="-0.4670000000000005"/>
      <point x="267.215" y="-10.0"/>
      <point x="342.276" y="-10.0" type="curve" smooth="yes"/>
      <point x="571.394" y="-10.0"/>
      <point x="675.9749999999999" y="79.70299999999999"/>
      <point x="675.9749999999999" y="282.81600000000003" type="curve" smooth="yes"/>
      <point x="675.9749999999999" y="452.241"/>
      <point x="590.095" y="548.6"/>
      <point x="442.15999999999997" y="548.6" type="curve" smooth="yes"/>
      <point x="361.13599999999997" y="548.6"/>
      <point x="287.596" y="524.558"/>
      <point x="199.98000000000002" y="468.31500000000005" type="curve"/>
      <point x="199.98000000000002" y="740.0" type="line"/>
      <point x="75.705" y="740.0" type="line"/>
    </contour>
    <contour>
      <point x="199.98000000000002" y="91.245" type="curve"/>
      <point x="199.98000000000002" y="386.07" type="line"/>
      <point x="275.989" y="432.816"/>
      <point x="333.191" y="451.8"/>
      <point x="394.86499999999995" y="451.8" type="curve" smooth="yes"/>
      <point x="491.90199999999993" y="451.8"/>
      <point x="549.077" y="390.26300000000003"/>
      <point x="549.077" y="275.893" type="curve" smooth="yes"/>
      <point x="549.077" y="134.481"/>
      <point x="481.824" y="73.803"/>
      <point x="344.388" y="73.803" type="curve" smooth="yes"/>
      <point x="303.078" y="73.803"/>
      <point x="254.595" y="79.36999999999999"/>
    </contour>
  </outline>
</glyph>
<glyph name="c" format="2">
  <advance width="662.4110000000001"/>
  <unicode hex="0063"/>
  <anchor x="375.05499999999995" y="538.6" name="top"/>
  <anchor x="375.22599999999994" y="0.0" name="bottom"/>
  <outline>
    <contour>
      <point x="44.93399999999999" y="256.96799999999996" type="curve" smooth="yes"/>
      <point x="44.93399999999999" y="78.21199999999999"/>
      <point x="156.157" y="-10.0"/>
      <point x="373.431" y="-10.0" type="curve" smooth="yes"/>
      <point x="458.077" y="-10.0"/>
      <point x="555.488" y="2.425"/>
      <point x="631.8240000000001" y="21.673" type="curve"/>
      <point x="615.3109999999999" y="102.434" type="line"/>
      <point x="541.561" y="86.926"/>
      <point x="466.83599999999996" y="77.339"/>
      <point x="397.81699999999995" y="77.339" type="curve" smooth="yes"/>
      <point x="253.771" y="77.339"/>
      <point x="170.112" y="124.653"/>
      <point x="170.112" y="260.027" type="curve" smooth="yes"/>
      <point x="170.112" y="406.049"/>
      <point x="252.413" y="460.057"/>
      <point x="392.156" y="460.057" type="curve" smooth="yes"/>
      <point x="453.86499999999995" y="460.057"/>
      <point x="533.756" y="450.665"/>
      <point x="603.581" y="436.27000000000004" type="curve"/>
      <point x="618.4599999999999" y="521.4169999999999" type="line"/>
      <point x="552.42" y="538.09"/>
      <point x="461.08199999999994" y="548.6"/>
      <point x="385.87499999999994" y="548.6" type="curve" smooth="yes"/>
      <point x="170.84099999999995" y="548.6"/>
      <point x="44.93399999999999" y="448.874"/>
    </contour>
  </outline>
</glyph>
<glyph name="d" format="2">
  <advance width="721.21"/>
  <unicode hex="0064"/>
  <anchor x="361.944" y="275.0" name="center"/>
  <anchor x="356.228" y="740.0" name="top"/>
  <anchor x="723.2600000000001" y="740.0" name="topright"/>
  <anchor x="361.944" y="0.0" name="bottom"/>
  <outline>
    <contour>
      <point x="539.714" y="-1.29" type="line"/>
      <point x="645.72" y="-1.29" type="line"/>
      <point x="645.72" y="740.0" type="line"/>
      <point x="520.8000000000001" y="740.0" type="line"/>
      <point x="520.8000000000001" y="535.826" type="line"/>
      <point x="471.35" y="544.1940000000001"/>
      <point x="418.84399999999994" y="548.6"/>
      <point x="372.39799999999997" y="548.6" type="curve" smooth="yes"/>
      <point x="149.558" y="548.6"/>
      <point x="44.589999999999996" y="456.01599999999996"/>
      <point x="44.589999999999996" y="256.988" type="curve" smooth="yes"/>
      <point x="44.589999999999996" y="87.566"/>
      <point x="130.85599999999997" y="-10.0"/>
      <point x="277.84200000000004" y="-10.0" type="curve" smooth="yes"/>
      <point x="360.06999999999994" y="-10.0"/>
      <point x="432.79799999999994" y="13.7"/>
      <point x="520.8" y="70.23" type="curve"/>
    </contour>
    <contour>
      <point x="520.37" y="152.014" type="line"/>
      <point x="444.834" y="106.30000000000001"/>
      <point x="387.202" y="86.886"/>
      <point x="326.00199999999995" y="86.886" type="curve" smooth="yes"/>
      <point x="229.13600000000002" y="86.886"/>
      <point x="172.08999999999997" y="148.66999999999996"/>
      <point x="172.08999999999997" y="264.72799999999995" type="curve" smooth="yes"/>
      <point x="172.08999999999997" y="404.33399999999995"/>
      <point x="239.042" y="463.89400000000006"/>
      <point x="376.048" y="463.89400000000006" type="curve" smooth="yes"/>
      <point x="418.046" y="463.89400000000006"/>
      <point x="465.92599999999993" y="458.628"/>
      <point x="520.37" y="446.624" type="curve"/>
    </contour>
  </outline>
</glyph>
<glyph name="e" format="2">
  <advance width="696.5239999999999"/>
  <unicode hex="0065"/>
  <anchor x="599.272" y="14.723999999999998" name="ogonek"/>
  <anchor x="361.01000000000005" y="0.0" name="bottom"/>
  <anchor x="363.8519999999999" y="538.6" name="top"/>
  <outline>
    <contour>
      <point x="359.24799999999993" y="-10.0" type="curve" smooth="yes"/>
      <point x="474.356" y="-10.0"/>
      <point x="572.588" y="5.228"/>
      <point x="648.05" y="25.317999999999998" type="curve"/>
      <point x="634.1179999999999" y="109.734" type="line"/>
      <point x="560.198" y="94.042"/>
      <point x="463.406" y="79.188"/>
      <point x="375.63000000000005" y="79.188" type="curve" smooth="yes"/>
      <point x="247.878" y="79.188"/>
      <point x="171.66" y="123.85"/>
      <point x="171.66" y="224.302" type="curve" smooth="yes"/>
      <point x="171.66" y="231.46"/>
      <point x="171.758" y="237.272"/>
      <point x="172.71599999999998" y="244.33200000000005" type="curve"/>
      <point x="397.59" y="246.052"/>
      <point x="578.6759999999999" y="259.47200000000004"/>
      <point x="651.7359999999999" y="263.88800000000003" type="curve"/>
      <point x="652.694" y="280.942"/>
      <point x="653.1659999999999" y="299.748"/>
      <point x="653.1659999999999" y="309.95" type="curve" smooth="yes"/>
      <point x="653.1659999999999" y="476.10799999999995"/>
      <point x="562.6740000000001" y="548.6"/>
      <point x="377.3" y="548.6" type="curve" smooth="yes"/>
      <point x="197.02599999999998" y="548.6"/>
      <point x="44.58999999999999" y="466.342"/>
      <point x="44.58999999999999" y="253.342" type="curve" smooth="yes"/>
      <point x="44.58999999999999" y="73.59399999999998"/>
      <point x="162.08199999999997" y="-10.0"/>
    </contour>
    <contour>
      <point x="174.3" y="321.0079999999999" type="curve"/>
      <point x="192.77999999999997" y="433.51"/>
      <point x="285.98799999999994" y="466.76400000000007"/>
      <point x="370.41999999999996" y="466.76400000000007" type="curve" smooth="yes"/>
      <point x="477.35799999999995" y="466.76400000000007"/>
      <point x="525.568" y="424.3759999999999"/>
      <point x="528.148" y="333.40400000000005" type="curve"/>
      <point x="486.44199999999995" y="330.278"/>
      <point x="340.018" y="321.868"/>
    </contour>
  </outline>
</glyph>
<glyph name="f" format="2">
  <advance width="482.23799999999994"/>
  <unicode hex="0066"/>
  <outline>
    <contour>
      <point x="127.666" y="0.0" type="line"/>
      <point x="250.22099999999998" y="0.0" type="line"/>
      <point x="250.22099999999998" y="405.347" type="line"/>
      <point x="464.1" y="405.347" type="line"/>
      <point x="464.1" y="489.805" type="line"/>
      <point x="250.34999999999997" y="489.805" type="line"/>
      <point x="250.34999999999997" y="505.77799999999996" type="line" smooth="yes"/>
      <point x="250.34999999999997" y="616.057"/>
      <point x="298.98799999999994" y="659.104"/>
      <point x="389.0849999999999" y="659.104" type="curve" smooth="yes"/>
      <point x="432.544" y="659.104"/>
      <point x="479.13199999999995" y="651.4789999999999"/>
      <point x="525.6759999999999" y="638.363" type="curve"/>
      <point x="541.47" y="721.9619999999999" type="line"/>
      <point x="478.621" y="741.8219999999999"/>
      <point x="422.771" y="750.399"/>
      <point x="362.54900000000004" y="750.399" type="curve" smooth="yes"/>
      <point x="213.58599999999998" y="750.399"/>
      <point x="127.666" y="675.256"/>
      <point x="127.666" y="507.842" type="curve" smooth="yes"/>
      <point x="127.666" y="489.805" type="line"/>
      <point x="24.695" y="479.861" type="line"/>
      <point x="24.695" y="405.347" type="line"/>
      <point x="127.666" y="405.347" type="line"/>
    </contour>
  </outline>
</glyph>
<glyph name="g" format="2">
  <advance width="719.7059999999999"/>
  <unicode hex="0067"/>
  <anchor x="351.96199999999993" y="538.6" name="top"/>
  <anchor x="342.056" y="-217.0" name="bottom"/>
  <outline>
    <contour>
      <point x="324.98199999999997" y="-220.0" type="curve" smooth="yes"/>
      <point x="580.5939999999998" y="-220.0"/>
      <point x="697.4019999999999" y="-150.96599999999998"/>
      <point x="697.4019999999999" y="-29.224000000000004" type="curve" smooth="yes"/>
      <point x="697.4019999999999" y="58.22999999999999"/>
      <point x="638.8779999999999" y="108.116"/>
      <point x="522.256" y="108.116" type="curve" smooth="yes"/>
      <point x="258.88599999999997" y="108.116" type="line" smooth="yes"/>
      <point x="192.73399999999998" y="108.116"/>
      <point x="160.102" y="127.42199999999998"/>
      <point x="160.102" y="164.25" type="curve" smooth="yes"/>
      <point x="160.102" y="194.612"/>
      <point x="183.18" y="214.226"/>
      <point x="221.626" y="230.86" type="curve"/>
      <point x="153.942" y="252.704" type="line"/>
      <point x="92.10000000000001" y="225.148"/>
      <point x="58.444" y="187.97"/>
      <point x="58.444" y="133.286" type="curve" smooth="yes"/>
      <point x="58.444" y="47.687999999999995"/>
      <point x="137.59399999999997" y="12.048"/>
      <point x="266.332" y="12.048" type="curve" smooth="yes"/>
      <point x="478.438" y="12.048" type="line" smooth="yes"/>
      <point x="547.516" y="12.048"/>
      <point x="578.072" y="-2.9339999999999993"/>
      <point x="578.072" y="-43.648" type="curve" smooth="yes"/>
      <point x="578.072" y="-102.598"/>
      <point x="507.34199999999987" y="-139.412"/>
      <point x="337.88199999999995" y="-139.412" type="curve" smooth="yes"/>
      <point x="189.81599999999997" y="-139.412"/>
      <point x="127.41799999999999" y="-110.41"/>
      <point x="127.41799999999999" y="-51.763999999999996" type="curve" smooth="yes"/>
      <point x="127.41799999999999" y="-15.576000000000004"/>
      <point x="145.892" y="12.423999999999996"/>
      <point x="210.992" y="29.488000000000003" type="curve"/>
      <point x="138.66400000000002" y="52.730000000000004" type="line"/>
      <point x="43.276" y="26.233999999999998"/>
      <point x="21.418" y="-21.316000000000003"/>
      <point x="21.418" y="-74.65199999999999" type="curve" smooth="yes"/>
      <point x="21.418" y="-172.21"/>
      <point x="121.66000000000003" y="-220.0"/>
    </contour>
    <contour>
      <point x="349.112" y="200.89399999999998" type="curve" smooth="yes"/>
      <point x="536.232" y="200.89399999999998"/>
      <point x="626.996" y="259.84399999999994"/>
      <point x="626.996" y="374.98999999999995" type="curve" smooth="yes"/>
      <point x="626.996" y="490.136"/>
      <point x="536.232" y="549.03"/>
      <point x="349.112" y="549.03" type="curve" smooth="yes"/>
      <point x="161.992" y="549.03"/>
      <point x="71.65799999999999" y="490.136"/>
      <point x="71.65799999999999" y="374.98999999999995" type="curve" smooth="yes"/>
      <point x="71.65799999999999" y="259.84399999999994"/>
      <point x="161.992" y="200.89399999999998"/>
    </contour>
    <contour>
      <point x="349.112" y="276.22400000000005" type="curve" smooth="yes"/>
      <point x="238.492" y="276.22400000000005"/>
      <point x="189.268" y="306.49199999999996"/>
      <point x="189.268" y="374.98999999999995" type="curve" smooth="yes"/>
      <point x="189.268" y="443.96"/>
      <point x="238.492" y="474.13"/>
      <point x="349.112" y="474.13" type="curve" smooth="yes"/>
      <point x="459.73199999999997" y="474.13"/>
      <point x="508.9559999999999" y="443.96"/>
      <point x="508.9559999999999" y="374.98999999999995" type="curve" smooth="yes"/>
      <point x="508.9559999999999" y="306.49199999999996"/>
      <point x="459.73199999999997" y="276.22400000000005"/>
    </contour>
    <contour>
      <point x="564.418" y="454.45799999999997" type="line"/>
      <point x="579.4780000000001" y="481.806"/>
      <point x="606.228" y="493.67400000000004"/>
      <point x="644.584" y="493.67400000000004" type="curve" smooth="yes"/>
      <point x="660.084" y="493.67400000000004"/>
      <point x="675.9819999999999" y="492.716"/>
      <point x="691.0799999999999" y="489.37000000000006" type="curve"/>
      <point x="702.928" y="575.59" type="line"/>
      <point x="683.704" y="578.936"/>
      <point x="668.5300000000001" y="580.324"/>
      <point x="649.314" y="580.324" type="curve" smooth="yes"/>
      <point x="578.004" y="580.324"/>
      <point x="530.84" y="554.4259999999999"/>
      <point x="513.3119999999998" y="502.56000000000006" type="curve"/>
    </contour>
  </outline>
</glyph>
<glyph name="h" format="2">
  <advance width="723.4809999999999"/>
  <unicode hex="0068"/>
  <anchor x="358.693" y="395.0" name="center"/>
  <anchor x="361.703" y="0.0" name="bottom"/>
  <anchor x="362.946" y="740.0" name="top"/>
  <outline>
    <contour>
      <point x="75.49" y="0.0" type="line"/>
      <point x="200.41000000000003" y="0.0" type="line"/>
      <point x="200.41000000000003" y="396.08" type="line"/>
      <point x="272.29099999999994" y="428.88"/>
      <point x="326.8469999999999" y="451.069"/>
      <point x="399.049" y="451.069" type="curve" smooth="yes"/>
      <point x="482.24199999999996" y="451.069"/>
      <point x="523.0709999999999" y="409.143"/>
      <point x="523.0709999999999" y="330.221" type="curve" smooth="yes"/>
      <point x="523.0709999999999" y="0.0" type="line"/>
      <point x="647.991" y="0.0" type="line"/>
      <point x="647.991" y="369.351" type="line" smooth="yes"/>
      <point x="647.991" y="479.416"/>
      <point x="581.3739999999999" y="548.6"/>
      <point x="448.14799999999997" y="548.6" type="curve" smooth="yes"/>
      <point x="354.91400000000004" y="548.6"/>
      <point x="287.052" y="521.5269999999998"/>
      <point x="200.41000000000003" y="477.92500000000007" type="curve"/>
      <point x="200.41000000000003" y="740.0" type="line"/>
      <point x="75.49" y="740.0" type="line"/>
    </contour>
  </outline>
</glyph>
<glyph name="i" format="2">
  <advance width="275.685"/>
  <unicode hex="0069"/>
  <anchor x="199.581" y="0.0" name="ogonek"/>
  <anchor x="137.90699999999998" y="0.0" name="bottom"/>
  <outline>
    <contour>
      <point x="137.90699999999998" y="630.861" type="curve" smooth="yes"/>
      <point x="194.071" y="630.861"/>
      <point x="213.906" y="647.6419999999999"/>
      <point x="213.906" y="687.851" type="curve" smooth="yes"/>
      <point x="213.906" y="728.318"/>
      <point x="193.81300000000002" y="744.97"/>
      <point x="137.90699999999998" y="744.97" type="curve" smooth="yes"/>
      <point x="81.87199999999999" y="744.97"/>
      <point x="61.778999999999996" y="728.318"/>
      <point x="61.778999999999996" y="687.851" type="curve" smooth="yes"/>
      <point x="61.778999999999996" y="647.513"/>
      <point x="82.44199999999998" y="630.861"/>
    </contour>
    <contour>
      <point x="75.705" y="0.0" type="line"/>
      <point x="199.98000000000002" y="0.0" type="line"/>
      <point x="199.98000000000002" y="538.6" type="line"/>
      <point x="75.705" y="538.6" type="line"/>
    </contour>
  </outline>
</glyph>
<glyph name="j" format="2">
  <advance width="284.73999999999995"/>
  <unicode hex="006A"/>
  <outline>
    <contour>
      <point x="209.434" y="538.6" type="line"/>
      <point x="85.15899999999999" y="538.6" type="line"/>
      <point x="85.15899999999999" y="36.274" type="line" smooth="yes"/>
      <point x="85.15899999999999" y="-45.479"/>
      <point x="61.504999999999995" y="-88.13400000000001"/>
      <point x="11.238" y="-106.374" type="curve" smooth="yes"/>
      <point x="3.3400000000000016" y="-109.62299999999999"/>
      <point x="-4.300000000000001" y="-111.91499999999999"/>
      <point x="-13.155000000000001" y="-113.37899999999999" type="curve"/>
      <point x="-14.119" y="-208.70600000000002" type="line"/>
      <point x="5.711" y="-208.405"/>
      <point x="32.981" y="-206.662"/>
      <point x="50.767" y="-203.242" type="curve" smooth="yes"/>
      <point x="160.84799999999998" y="-182.95"/>
      <point x="209.434" y="-104.448"/>
      <point x="209.434" y="32.102999999999994" type="curve" smooth="yes"/>
    </contour>
    <contour>
      <point x="146.56300000000002" y="630.861" type="curve" smooth="yes"/>
      <point x="202.556" y="630.861"/>
      <point x="222.562" y="647.6419999999999"/>
      <point x="222.562" y="687.851" type="curve" smooth="yes"/>
      <point x="222.562" y="728.318"/>
      <point x="202.298" y="744.97"/>
      <point x="146.56300000000002" y="744.97" type="curve" smooth="yes"/>
      <point x="90.528" y="744.97"/>
      <point x="70.435" y="728.318"/>
      <point x="70.435" y="687.851" type="curve" smooth="yes"/>
      <point x="70.435" y="647.513"/>
      <point x="91.098" y="630.861"/>
    </contour>
  </outline>
</glyph>
<glyph name="k" format="2">
  <advance width="677.29"/>
  <unicode hex="006B"/>
  <anchor x="135.79999999999998" y="740.0" name="top"/>
  <anchor x="349.42999999999995" y="0.0" name="bottom"/>
  <outline>
    <contour>
      <point x="629.13" y="-9.430000000000001" type="curve" smooth="yes"/>
      <point x="642.6599999999999" y="-9.430000000000001"/>
      <point x="652.17" y="-8.86"/>
      <point x="660.6100000000001" y="-7.43" type="curve"/>
      <point x="658.4" y="109.74999999999999" type="line"/>
      <point x="651.6800000000001" y="109.17999999999999"/>
      <point x="645.3899999999999" y="108.67999999999999"/>
      <point x="640.3100000000001" y="108.67999999999999" type="curve" smooth="yes"/>
      <point x="599.3000000000001" y="108.67999999999999"/>
      <point x="549.2399999999999" y="132.94"/>
      <point x="419.51" y="230.94" type="curve" smooth="yes"/>
      <point x="195.67999999999998" y="400.17" type="line"/>
      <point x="195.67999999999998" y="740.0" type="line"/>
      <point x="75.49000000000001" y="740.0" type="line"/>
      <point x="75.49000000000001" y="0.0" type="line"/>
      <point x="195.67999999999998" y="0.0" type="line"/>
      <point x="195.67999999999998" y="264.45" type="line"/>
      <point x="399.59999999999997" y="109.97" type="line" smooth="yes"/>
      <point x="541.71" y="1.6500000000000004"/>
      <point x="581.96" y="-9.430000000000001"/>
    </contour>
    <contour>
      <point x="333.93999999999994" y="252.06" type="line"/>
      <point x="432.84000000000003" y="315.21"/>
      <point x="577.5899999999999" y="414.47999999999996"/>
      <point x="631.3299999999999" y="538.03" type="curve"/>
      <point x="500.0200000000001" y="548.1" type="line"/>
      <point x="454.23" y="444.18000000000006"/>
      <point x="345.5799999999999" y="369.84"/>
      <point x="217.38999999999996" y="285.34000000000003" type="curve"/>
    </contour>
  </outline>
</glyph>
<glyph name="l" format="2">
  <advance width="353.69300000000004"/>
  <unicode hex="006C"/>
  <anchor x="176.895" y="395.0" name="center"/>
  <anchor x="137.90699999999998" y="740.0" name="top"/>
  <anchor x="277.735" y="740.0" name="topright"/>
  <anchor x="211.865" y="0.0" name="bottom"/>
  <outline>
    <contour>
      <point x="199.98000000000002" y="740.0" type="line"/>
      <point x="75.705" y="740.0" type="line"/>
      <point x="75.705" y="172.657" type="line" smooth="yes"/>
      <point x="75.705" y="29.77"/>
      <point x="137.853" y="-10.0"/>
      <point x="238.44699999999997" y="-10.0" type="curve" smooth="yes"/>
      <point x="283.449" y="-10.0"/>
      <point x="322.631" y="-0.8449999999999998"/>
      <point x="355.48199999999997" y="11.469999999999999" type="curve"/>
      <point x="341.678" y="101.13099999999999" type="line"/>
      <point x="316.957" y="93.84700000000001"/>
      <point x="293.822" y="89.24900000000001"/>
      <point x="273.191" y="89.24900000000001" type="curve" smooth="yes"/>
      <point x="232.12800000000001" y="89.24900000000001"/>
      <point x="199.98000000000002" y="103.691"/>
      <point x="199.98000000000002" y="180.354" type="curve" smooth="yes"/>
    </contour>
  </outline>
</glyph>
<glyph name="m" format="2">
  <advance width="1087.519"/>
  <unicode hex="006D"/>
  <outline>
    <contour>
      <point x="75.705" y="0.0" type="line"/>
      <point x="200.10899999999998" y="0.0" type="line"/>
      <point x="200.10899999999998" y="394.143" type="line"/>
      <point x="258.54400000000004" y="426.926"/>
      <point x="306.687" y="448.214"/>
      <point x="370.455" y="448.214" type="curve" smooth="yes"/>
      <point x="464.323" y="448.214"/>
      <point x="482.6840000000001" y="380.738"/>
      <point x="482.6840000000001" y="328.441" type="curve" smooth="yes"/>
      <point x="482.6840000000001" y="0.0" type="line"/>
      <point x="607.088" y="0.0" type="line"/>
      <point x="607.088" y="339.70700000000005" type="line" smooth="yes"/>
      <point x="607.088" y="356.32200000000006"/>
      <point x="605.777" y="376.673"/>
      <point x="600.2320000000001" y="396.48" type="curve"/>
      <point x="644.4469999999999" y="420.34599999999995"/>
      <point x="702.3620000000001" y="450.51"/>
      <point x="775.047" y="450.51" type="curve" smooth="yes"/>
      <point x="870.2099999999999" y="450.51"/>
      <point x="887.668" y="382.93600000000004"/>
      <point x="887.668" y="330.037" type="curve" smooth="yes"/>
      <point x="887.668" y="0.0" type="line"/>
      <point x="1012.072" y="0.0" type="line"/>
      <point x="1012.072" y="369.64" type="line" smooth="yes"/>
      <point x="1012.072" y="454.49600000000004"/>
      <point x="967.3" y="548.6"/>
      <point x="830.6389999999999" y="548.6" type="curve" smooth="yes"/>
      <point x="728.875" y="548.6"/>
      <point x="653.7829999999999" y="512.0799999999999"/>
      <point x="577.569" y="468.331" type="curve"/>
      <point x="552.171" y="515.699"/>
      <point x="507.4699999999999" y="546.605"/>
      <point x="422.736" y="546.605" type="curve" smooth="yes"/>
      <point x="336.985" y="546.605"/>
      <point x="266.188" y="517.431"/>
      <point x="188.58499999999998" y="472.284" type="curve"/>
      <point x="188.58499999999998" y="538.6" type="line"/>
      <point x="75.705" y="538.6" type="line"/>
    </contour>
  </outline>
</glyph>
<glyph name="n" format="2">
  <advance width="723.2230000000001"/>
  <unicode hex="006E"/>
  <anchor x="364.47999999999996" y="538.6" name="top"/>
  <anchor x="365.61999999999995" y="0.0" name="bottom"/>
  <outline>
    <contour>
      <point x="75.705" y="0.0" type="line"/>
      <point x="200.10899999999998" y="0.0" type="line"/>
      <point x="200.10899999999998" y="396.252" type="line"/>
      <point x="272.03299999999996" y="429.181"/>
      <point x="326.761" y="451.714"/>
      <point x="399.264" y="451.714" type="curve" smooth="yes"/>
      <point x="482.45699999999994" y="451.714"/>
      <point x="523.372" y="409.48699999999997"/>
      <point x="523.372" y="330.436" type="curve" smooth="yes"/>
      <point x="523.372" y="0.0" type="line"/>
      <point x="647.776" y="0.0" type="line"/>
      <point x="647.776" y="370.03899999999993" type="line" smooth="yes"/>
      <point x="647.776" y="477.911"/>
      <point x="582.2769999999999" y="548.6"/>
      <point x="447.933" y="548.6" type="curve" smooth="yes"/>
      <point x="351.431" y="548.6"/>
      <point x="281.364" y="520.151"/>
      <point x="188.58499999999998" y="473.367" type="curve"/>
      <point x="188.58499999999998" y="538.6" type="line"/>
      <point x="75.705" y="538.6" type="line"/>
    </contour>
  </outline>
</glyph>
<glyph name="o" format="2">
  <advance width="730.794"/>
  <unicode hex="006F"/>
  <anchor x="455.433" y="1.8919999999999997" name="ogonek"/>
  <anchor x="365.397" y="538.6" name="top"/>
  <anchor x="525.0840000000001" y="532.59" name="topright"/>
  <anchor x="365.397" y="0.0" name="bottom"/>
  <outline>
    <contour>
      <point x="44.805" y="270.829" type="curve" smooth="yes"/>
      <point x="44.805" y="82.879"/>
      <point x="138.63099999999997" y="-10.0"/>
      <point x="365.397" y="-10.0" type="curve" smooth="yes"/>
      <point x="592.163" y="-10.0"/>
      <point x="685.9890000000001" y="82.879"/>
      <point x="685.9890000000001" y="270.829" type="curve" smooth="yes"/>
      <point x="685.9890000000001" y="449.679"/>
      <point x="604.0629999999999" y="548.6"/>
      <point x="365.397" y="548.6" type="curve" smooth="yes"/>
      <point x="126.12899999999999" y="548.6"/>
      <point x="44.805" y="449.679"/>
    </contour>
    <contour>
      <point x="171.445" y="270.829" type="curve" smooth="yes"/>
      <point x="171.445" y="398.24699999999996"/>
      <point x="219.70499999999996" y="461.69000000000005"/>
      <point x="365.397" y="461.69000000000005" type="curve" smooth="yes"/>
      <point x="510.96000000000004" y="461.69000000000005"/>
      <point x="558.747" y="398.24699999999996"/>
      <point x="558.747" y="270.829" type="curve" smooth="yes"/>
      <point x="558.747" y="137.01299999999998"/>
      <point x="502.67199999999997" y="77.03899999999999"/>
      <point x="365.397" y="77.03899999999999" type="curve" smooth="yes"/>
      <point x="227.993" y="77.03899999999999"/>
      <point x="171.445" y="137.01299999999998"/>
    </contour>
  </outline>
</glyph>
<glyph name="p" format="2">
  <advance width="720.608"/>
  <unicode hex="0070"/>
  <outline>
    <contour>
      <point x="75.705" y="-210.0" type="line"/>
      <point x="200.40999999999997" y="-210.0" type="line"/>
      <point x="200.40999999999997" y="3.6889999999999983" type="line"/>
      <point x="255.446" y="-5.508000000000001"/>
      <point x="303.43299999999994" y="-10.0"/>
      <point x="347.952" y="-10.0" type="curve" smooth="yes"/>
      <point x="571.007" y="-10.0"/>
      <point x="676.104" y="82.928"/>
      <point x="676.104" y="281.78400000000005" type="curve" smooth="yes"/>
      <point x="676.104" y="450.95099999999996"/>
      <point x="589.966" y="548.6"/>
      <point x="443.06299999999993" y="548.6" type="curve" smooth="yes"/>
      <point x="360.319" y="548.6"/>
      <point x="282.866" y="523.1389999999999"/>
      <point x="190.133" y="463.843" type="curve"/>
      <point x="188.58499999999998" y="540.31" type="line"/>
      <point x="75.705" y="540.31" type="line"/>
    </contour>
    <contour>
      <point x="344.51699999999994" y="74.319" type="curve" smooth="yes"/>
      <point x="303.078" y="74.319"/>
      <point x="254.595" y="80.015"/>
      <point x="200.10899999999998" y="92.148" type="curve"/>
      <point x="200.10899999999998" y="386.97299999999996" type="line"/>
      <point x="275.85999999999996" y="433.461"/>
      <point x="333.191" y="452.31600000000003"/>
      <point x="394.736" y="452.31600000000003" type="curve" smooth="yes"/>
      <point x="491.90199999999993" y="452.31600000000003"/>
      <point x="549.077" y="390.52099999999996"/>
      <point x="549.077" y="273.829" type="curve" smooth="yes"/>
      <point x="549.077" y="134.739"/>
      <point x="481.824" y="74.319"/>
    </contour>
  </outline>
</glyph>
<glyph name="q" format="2">
  <advance width="720.737"/>
  <unicode hex="0071"/>
  <outline>
    <contour>
      <point x="645.032" y="520.85" type="line"/>
      <point x="541.441" y="539.4960000000001"/>
      <point x="454.42499999999995" y="548.6"/>
      <point x="378.461" y="548.6" type="curve" smooth="yes"/>
      <point x="150.63299999999998" y="548.6"/>
      <point x="44.504" y="457.99399999999997"/>
      <point x="44.504" y="259.39599999999996" type="curve" smooth="yes"/>
      <point x="44.504" y="87.175"/>
      <point x="130.426" y="-10.0"/>
      <point x="278.577" y="-10.0" type="curve" smooth="yes"/>
      <point x="359.859" y="-10.0"/>
      <point x="433.39900000000006" y="14.041999999999998"/>
      <point x="520.7570000000001" y="70.15599999999999" type="curve"/>
      <point x="520.7570000000001" y="-210.0" type="line"/>
      <point x="645.032" y="-210.0" type="line"/>
    </contour>
    <contour>
      <point x="520.6279999999999" y="446.92600000000004" type="curve"/>
      <point x="520.6279999999999" y="152.272" type="line"/>
      <point x="444.877" y="105.655"/>
      <point x="387.546" y="86.542"/>
      <point x="325.87199999999996" y="86.542" type="curve" smooth="yes"/>
      <point x="229.006" y="86.542"/>
      <point x="171.66" y="148.421"/>
      <point x="171.66" y="262.44899999999996" type="curve" smooth="yes"/>
      <point x="171.66" y="403.86100000000005"/>
      <point x="238.913" y="464.539"/>
      <point x="376.34900000000005" y="464.539" type="curve" smooth="yes"/>
      <point x="417.66" y="464.539"/>
      <point x="466.14199999999994" y="458.972"/>
    </contour>
  </outline>
</glyph>
<glyph name="r" format="2">
  <advance width="514.5079999999999"/>
  <unicode hex="0072"/>
  <anchor x="280.373" y="538.6" name="top"/>
  <anchor x="137.77800000000002" y="0.0" name="bottom"/>
  <outline>
    <contour>
      <point x="188.45600000000002" y="538.6" type="line"/>
      <point x="75.705" y="538.6" type="line"/>
      <point x="75.705" y="0.0" type="line"/>
      <point x="199.851" y="0.0" type="line"/>
      <point x="199.851" y="369.793" type="line"/>
      <point x="269.745" y="425.0"/>
      <point x="331.848" y="444.79100000000005"/>
      <point x="389.98199999999997" y="444.79100000000005" type="curve" smooth="yes"/>
      <point x="421.40299999999996" y="444.79100000000005"/>
      <point x="456.90000000000003" y="439.45099999999996"/>
      <point x="489.304" y="431.55199999999996" type="curve"/>
      <point x="507.794" y="535.1469999999999" type="line"/>
      <point x="479.443" y="543.033"/>
      <point x="443.02099999999996" y="548.6"/>
      <point x="407.39199999999994" y="548.6" type="curve" smooth="yes"/>
      <point x="331.60699999999997" y="548.6"/>
      <point x="271.31899999999996" y="522.268"/>
      <point x="188.45600000000002" y="452.889" type="curve"/>
    </contour>
  </outline>
</glyph>
<glyph name="s" format="2">
  <advance width="604.09"/>
  <unicode hex="0073"/>
  <anchor x="299.51000000000005" y="538.6" name="top"/>
  <anchor x="302.78999999999996" y="0.0" name="bottom"/>
  <outline>
    <contour>
      <point x="33.400000000000006" y="26.84" type="line"/>
      <point x="97.28" y="6.5699999999999985"/>
      <point x="197.69" y="-10.0"/>
      <point x="291.12" y="-10.0" type="curve" smooth="yes"/>
      <point x="447.65999999999985" y="-10.0"/>
      <point x="572.0599999999998" y="30.189999999999998"/>
      <point x="572.0599999999998" y="156.3" type="curve" smooth="yes"/>
      <point x="572.0599999999998" y="263.53999999999996"/>
      <point x="474.45000000000005" y="294.55999999999995"/>
      <point x="349.53999999999996" y="315.34" type="curve" smooth="yes"/>
      <point x="246.72" y="332.12"/>
      <point x="168.41" y="338.57"/>
      <point x="168.41" y="395.97" type="curve" smooth="yes"/>
      <point x="168.41" y="441.38000000000005"/>
      <point x="221.40999999999997" y="462.38"/>
      <point x="318.08" y="462.38" type="curve" smooth="yes"/>
      <point x="396.39" y="462.38"/>
      <point x="479.19999999999993" y="444.66"/>
      <point x="518.6099999999999" y="432.95" type="curve"/>
      <point x="533.71" y="518.6" type="line"/>
      <point x="490.78999999999985" y="531.31"/>
      <point x="410.2799999999999" y="548.6"/>
      <point x="319.36999999999995" y="548.6" type="curve" smooth="yes"/>
      <point x="140.69000000000003" y="548.6"/>
      <point x="52.09" y="493.73"/>
      <point x="52.09" y="383.07" type="curve" smooth="yes"/>
      <point x="52.09" y="287.95"/>
      <point x="132.9" y="248.54000000000002"/>
      <point x="252.52" y="230.12000000000003" type="curve" smooth="yes"/>
      <point x="364.17999999999995" y="212.35"/>
      <point x="452.7300000000001" y="198.81"/>
      <point x="452.7300000000001" y="145.55" type="curve" smooth="yes"/>
      <point x="452.7300000000001" y="98.37"/>
      <point x="399.3299999999999" y="74.50000000000001"/>
      <point x="297.14000000000004" y="74.50000000000001" type="curve" smooth="yes"/>
      <point x="215.45" y="74.50000000000001"/>
      <point x="102.99" y="94.08"/>
      <point x="48.57" y="112.06" type="curve"/>
    </contour>
  </outline>
</glyph>
<glyph name="t" format="2">
  <advance width="518.528"/>
  <unicode hex="0074"/>
  <anchor x="255.099" y="275.0" name="center"/>
  <anchor x="196.292" y="663.581" name="top"/>
  <anchor x="392.446" y="780.22" name="topright"/>
  <anchor x="298.13599999999997" y="0.0" name="bottom"/>
  <outline>
    <contour>
      <point x="312.68399999999997" y="-10.0" type="curve" smooth="yes"/>
      <point x="370.83899999999994" y="-10.0"/>
      <point x="433.32899999999995" y="-0.17100000000000098"/>
      <point x="503.058" y="20.413" type="curve"/>
      <point x="486.392" y="111.74000000000001" type="line"/>
      <point x="439.402" y="98.44"/>
      <point x="397.12999999999994" y="89.25"/>
      <point x="353.754" y="89.25" type="curve" smooth="yes"/>
      <point x="281.979" y="89.25"/>
      <point x="251.12" y="120.872"/>
      <point x="251.12" y="193.686" type="curve" smooth="yes"/>
      <point x="251.12" y="454.142" type="line"/>
      <point x="478.893" y="454.142" type="line"/>
      <point x="478.893" y="538.6" type="line"/>
      <point x="251.12" y="538.6" type="line"/>
      <point x="251.12" y="663.581" type="line"/>
      <point x="141.293" y="663.581" type="line"/>
      <point x="126.845" y="538.6" type="line"/>
      <point x="8.004999999999999" y="528.7850000000001" type="line"/>
      <point x="8.004999999999999" y="454.271" type="line"/>
      <point x="126.845" y="454.271" type="line"/>
      <point x="126.845" y="186.634" type="line" smooth="yes"/>
      <point x="126.845" y="45.126"/>
      <point x="194.125" y="-10.0"/>
    </contour>
  </outline>
</glyph>
<glyph name="u" format="2">
  <advance width="724.702"/>
  <unicode hex="0075"/>
  <anchor x="718.003" y="12.501999999999999" name="ogonek"/>
  <anchor x="356.66700000000003" y="538.6" name="top"/>
  <anchor x="630.232" y="538.6" name="topright"/>
  <anchor x="362.802" y="0.0" name="bottom"/>
  <outline>
    <contour>
      <point x="270.067" y="-10.0" type="curve" smooth="yes"/>
      <point x="365.76099999999997" y="-10.0"/>
      <point x="436.389" y="19.352000000000004"/>
      <point x="521.458" y="64.383" type="curve"/>
      <point x="538.505" y="13.054000000000002"/>
      <point x="575.475" y="-10.0"/>
      <point x="626.314" y="-10.0" type="curve" smooth="yes"/>
      <point x="659.508" y="-10.0"/>
      <point x="694.894" y="-0.5920000000000001"/>
      <point x="718.003" y="12.501999999999999" type="curve"/>
      <point x="705.769" y="90.722" type="line"/>
      <point x="696.5740000000001" y="86.53899999999999"/>
      <point x="686.967" y="84.57"/>
      <point x="677.415" y="84.57" type="curve" smooth="yes"/>
      <point x="651.9169999999999" y="84.57"/>
      <point x="630.232" y="101.035"/>
      <point x="630.232" y="154.069" type="curve" smooth="yes"/>
      <point x="630.232" y="538.6" type="line"/>
      <point x="505.95699999999994" y="538.6" type="line"/>
      <point x="505.95699999999994" y="140.14299999999997" type="line"/>
      <point x="437.316" y="106.98"/>
      <point x="387.366" y="85.68200000000002"/>
      <point x="318.478" y="85.68200000000002" type="curve" smooth="yes"/>
      <point x="241.067" y="85.68200000000002"/>
      <point x="199.851" y="125.914"/>
      <point x="199.851" y="195.97" type="curve" smooth="yes"/>
      <point x="199.851" y="538.6" type="line"/>
      <point x="75.447" y="538.6" type="line"/>
      <point x="75.447" y="163.806" type="line" smooth="yes"/>
      <point x="75.447" y="54.10999999999999"/>
      <point x="147.637" y="-10.0"/>
    </contour>
  </outline>
</glyph>
<glyph name="v" format="2">
  <advance width="668.098"/>
  <unicode hex="0076"/>
  <outline>
    <contour>
      <point x="269.79299999999995" y="0.0" type="line"/>
      <point x="397.26099999999997" y="0.0" type="line"/>
      <point x="658.1519999999999" y="535.864" type="line"/>
      <point x="524.508" y="541.336" type="line"/>
      <point x="338.44100000000003" y="104.06899999999999" type="line"/>
      <point x="144.01999999999998" y="541.336" type="line"/>
      <point x="9.731" y="535.864" type="line"/>
    </contour>
  </outline>
</glyph>
<glyph name="w" format="2">
  <advance width="957.0369999999998"/>
  <unicode hex="0077"/>
  <anchor x="478.4189999999999" y="538.6" name="top"/>
  <anchor x="478.4189999999999" y="0.0" name="bottom"/>
  <outline>
    <contour>
      <point x="196.36399999999998" y="0.0" type="line"/>
      <point x="332.753" y="0.0" type="line"/>
      <point x="475.36600000000004" y="409.711" type="line"/>
      <point x="623.5530000000001" y="0.0" type="line"/>
      <point x="754.997" y="0.0" type="line"/>
      <point x="944.9879999999999" y="535.992" type="line"/>
      <point x="824.6639999999999" y="540.966" type="line"/>
      <point x="690.947" y="112.185" type="line"/>
      <point x="543.6309999999999" y="538.6" type="line"/>
      <point x="412.90599999999995" y="538.6" type="line"/>
      <point x="268.22999999999996" y="112.088" type="line"/>
      <point x="135.512" y="540.966" type="line"/>
      <point x="11.548999999999998" y="535.992" type="line"/>
    </contour>
  </outline>
</glyph>
<glyph name="x" format="2">
  <advance width="691.0499999999998"/>
  <unicode hex="0078"/>
  <outline>
    <contour>
      <point x="10.400000000000002" y="2.28" type="line"/>
      <point x="158.98999999999998" y="-4.630000000000001" type="line"/>
      <point x="345.23999999999995" y="201.02" type="line"/>
      <point x="533.3499999999998" y="-4.630000000000001" type="line"/>
      <point x="680.72" y="2.28" type="line"/>
      <point x="420.43999999999994" y="277.51" type="line"/>
      <point x="666.1599999999999" y="535.1800000000001" type="line"/>
      <point x="529.5400000000001" y="542.52" type="line"/>
      <point x="352.61999999999995" y="346.91" type="line"/>
      <point x="176.63" y="542.52" type="line"/>
      <point x="28.400000000000002" y="535.11" type="line"/>
      <point x="277.06" y="272.2100000000001" type="line"/>
    </contour>
  </outline>
</glyph>
<glyph name="y" format="2">
  <advance width="670.7330000000001"/>
  <unicode hex="0079"/>
  <anchor x="330.991" y="538.6" name="top"/>
  <anchor x="533.495" y="0.0" name="bottom"/>
  <outline>
    <contour>
      <point x="212.782" y="-207.96400000000003" type="line"/>
      <point x="334.19399999999996" y="-212.938" type="line"/>
      <point x="660.7890000000001" y="538.1600000000001" type="line"/>
      <point x="535.033" y="542.834" type="line"/>
      <point x="353.12799999999993" y="96.12599999999999" type="line"/>
      <point x="148.448" y="542.932" type="line"/>
      <point x="9.902" y="537.46" type="line"/>
      <point x="279.10900000000004" y="0.0" type="line"/>
      <point x="301.762" y="0.0" type="line"/>
    </contour>
  </outline>
</glyph>
<glyph name="z" format="2">
  <advance width="645.868"/>
  <unicode hex="007A"/>
  <anchor x="328.966" y="538.6" name="top"/>
  <outline>
    <contour>
      <point x="34.252" y="0.0" type="line"/>
      <point x="615.6060000000001" y="0.0" type="line"/>
      <point x="615.6060000000001" y="88.75800000000001" type="line"/>
      <point x="201.04799999999997" y="88.75800000000001" type="line"/>
      <point x="588.0319999999999" y="461.26000000000005" type="line"/>
      <point x="588.0319999999999" y="538.6" type="line"/>
      <point x="52.30399999999998" y="538.6" type="line"/>
      <point x="52.30399999999998" y="450.27200000000005" type="line"/>
      <point x="425.14799999999997" y="450.27200000000005" type="line"/>
      <point x="34.252" y="77.77" type="line"/>
    </contour>
  </outline>
</glyph>
<glyph name="braceleft" format="2">
  <advance width="400.439"/>
  <unicode hex="007B"/>
  <outline>
    <contour>
      <point x="113.91599999999998" y="-54.333000000000006" type="curve" smooth="yes"/>
      <point x="113.91599999999998" y="-150.64600000000002"/>
      <point x="172.414" y="-210.12900000000002"/>
      <point x="283.255" y="-210.12900000000002" type="curve" smooth="yes"/>
      <point x="360.666" y="-210.12900000000002" type="line"/>
      <point x="360.666" y="-132.07899999999998" type="line"/>
      <point x="314.215" y="-132.07899999999998" type="line" smooth="yes"/>
      <point x="244.015" y="-132.07899999999998"/>
      <point x="223.09799999999998" y="-90.336"/>
      <point x="223.09799999999998" y="-41.43300000000001" type="curve" smooth="yes"/>
      <point x="223.09799999999998" y="20.263000000000005"/>
      <point x="257.689" y="79.254"/>
      <point x="257.689" y="145.276" type="curve" smooth="yes"/>
      <point x="257.689" y="188.317"/>
      <point x="246.767" y="242.407"/>
      <point x="185.797" y="265.0" type="curve"/>
      <point x="246.36800000000002" y="290.259"/>
      <point x="257.689" y="340.75600000000003"/>
      <point x="257.689" y="383.797" type="curve" smooth="yes"/>
      <point x="257.689" y="450.21799999999996"/>
      <point x="223.09799999999998" y="507.21399999999994"/>
      <point x="223.09799999999998" y="570.506" type="curve" smooth="yes"/>
      <point x="223.09799999999998" y="619.409"/>
      <point x="244.015" y="661.95"/>
      <point x="314.215" y="661.95" type="curve" smooth="yes"/>
      <point x="360.666" y="661.95" type="line"/>
      <point x="360.666" y="740.0" type="line"/>
      <point x="283.255" y="740.0" type="line" smooth="yes"/>
      <point x="172.414" y="740.0"/>
      <point x="113.91599999999998" y="679.7189999999999"/>
      <point x="113.91599999999998" y="583.406" type="curve" smooth="yes"/>
      <point x="113.91599999999998" y="499.37"/>
      <point x="150.87199999999999" y="443.229"/>
      <point x="150.87199999999999" y="382.077" type="curve" smooth="yes"/>
      <point x="150.87199999999999" y="344.035"/>
      <point x="139.319" y="304.24"/>
      <point x="97.10600000000001" y="304.24" type="curve" smooth="yes"/>
      <point x="77.65399999999998" y="304.24" type="line"/>
      <point x="77.65399999999998" y="225.631" type="line"/>
      <point x="97.10600000000001" y="225.631" type="line" smooth="yes"/>
      <point x="139.319" y="225.631"/>
      <point x="150.87199999999999" y="185.209"/>
      <point x="150.87199999999999" y="146.99599999999998" type="curve" smooth="yes"/>
      <point x="150.87199999999999" y="86.129"/>
      <point x="113.91599999999998" y="27.708"/>
    </contour>
  </outline>
</glyph>
<glyph name="bar" format="2">
  <advance width="270.05400000000003"/>
  <unicode hex="007C"/>
  <outline>
    <contour>
      <point x="185.017" y="790.1289999999999" type="line"/>
      <point x="85.03699999999999" y="790.1289999999999" type="line"/>
      <point x="85.03699999999999" y="-210.0" type="line"/>
      <point x="185.017" y="-210.0" type="line"/>
    </contour>
  </outline>
</glyph>
<glyph name="braceright" format="2">
  <advance width="400.439"/>
  <unicode hex="007D"/>
  <outline>
    <contour>
      <point x="39.772999999999996" y="-132.07899999999998" type="line"/>
      <point x="39.772999999999996" y="-210.12900000000002" type="line"/>
      <point x="117.35499999999999" y="-210.12900000000002" type="line" smooth="yes"/>
      <point x="228.196" y="-210.12900000000002"/>
      <point x="286.69399999999996" y="-150.64600000000002"/>
      <point x="286.69399999999996" y="-54.333000000000006" type="curve" smooth="yes"/>
      <point x="286.69399999999996" y="27.708"/>
      <point x="249.73799999999997" y="86.129"/>
      <point x="249.73799999999997" y="146.99599999999998" type="curve" smooth="yes"/>
      <point x="249.73799999999997" y="185.209"/>
      <point x="261.291" y="225.631"/>
      <point x="303.504" y="225.631" type="curve" smooth="yes"/>
      <point x="322.78499999999997" y="225.631" type="line"/>
      <point x="322.78499999999997" y="304.24" type="line"/>
      <point x="303.504" y="304.24" type="line" smooth="yes"/>
      <point x="261.12" y="304.24"/>
      <point x="249.73799999999997" y="344.035"/>
      <point x="249.73799999999997" y="382.077" type="curve" smooth="yes"/>
      <point x="249.73799999999997" y="443.229"/>
      <point x="286.69399999999996" y="499.37"/>
      <point x="286.69399999999996" y="583.406" type="curve" smooth="yes"/>
      <point x="286.69399999999996" y="679.7189999999999"/>
      <point x="228.196" y="740.0"/>
      <point x="117.35499999999999" y="740.0" type="curve" smooth="yes"/>
      <point x="39.772999999999996" y="740.0" type="line"/>
      <point x="39.772999999999996" y="661.95" type="line"/>
      <point x="84.202" y="661.95" type="line" smooth="yes"/>
      <point x="154.231" y="661.95"/>
      <point x="175.319" y="619.409"/>
      <point x="175.319" y="570.506" type="curve" smooth="yes"/>
      <point x="175.319" y="507.21399999999994"/>
      <point x="140.728" y="450.21799999999996"/>
      <point x="140.728" y="383.797" type="curve" smooth="yes"/>
      <point x="140.728" y="340.75600000000003"/>
      <point x="151.878" y="290.259"/>
      <point x="212.61999999999998" y="265.0" type="curve"/>
      <point x="151.47899999999998" y="242.407"/>
      <point x="140.728" y="188.317"/>
      <point x="140.728" y="145.276" type="curve" smooth="yes"/>
      <point x="140.728" y="79.254"/>
      <point x="175.319" y="20.263000000000005"/>
      <point x="175.319" y="-41.43300000000001" type="curve" smooth="yes"/>
      <point x="175.319" y="-90.336"/>
      <point x="154.231" y="-132.07899999999998"/>
      <point x="84.202" y="-132.07899999999998" type="curve" smooth="yes"/>
    </contour>
  </outline>
</glyph>
<glyph name="asciitilde" format="2">
  <advance width="576.272"/>
  <unicode hex="007E"/>
  <outline>
    <contour>
      <point x="512.345" y="246.639" type="curve"/>
      <point x="512.345" y="342.62" type="line"/>
      <point x="486.07800000000003" y="318.369"/>
      <point x="455.784" y="300.77"/>
      <point x="414.193" y="300.77" type="curve" smooth="yes"/>
      <point x="311.604" y="300.77"/>
      <point x="254.948" y="395.699"/>
      <point x="163.534" y="395.699" type="curve" smooth="yes"/>
      <point x="112.754" y="395.699"/>
      <point x="81.497" y="371.62199999999996"/>
      <point x="64.399" y="357.09799999999996" type="curve"/>
      <point x="64.399" y="260.718" type="line"/>
      <point x="88.76899999999999" y="280.172"/>
      <point x="115.81899999999999" y="300.96500000000003"/>
      <point x="160.85000000000002" y="300.96500000000003" type="curve" smooth="yes"/>
      <point x="250.502" y="300.96500000000003"/>
      <point x="310.941" y="205.735"/>
      <point x="415.121" y="205.735" type="curve" smooth="yes"/>
      <point x="456.42" y="205.735"/>
      <point x="488.723" y="224.50400000000002"/>
    </contour>
  </outline>
</glyph>
<glyph name="exclamdown" format="2">
  <advance width="296.748"/>
  <unicode hex="00A1"/>
  <outline>
    <contour>
      <point x="202.836" y="276.449" type="line"/>
      <point x="96.27699999999999" y="276.449" type="line"/>
      <point x="88.19299999999998" y="-201.701" type="line"/>
      <point x="210.533" y="-201.701" type="line"/>
    </contour>
    <contour>
      <point x="218.611" y="483.803" type="curve" smooth="yes"/>
      <point x="218.611" y="525.56"/>
      <point x="201.05499999999998" y="542.9"/>
      <point x="148.374" y="542.9" type="curve" smooth="yes"/>
      <point x="96.263" y="542.9"/>
      <point x="78.13699999999999" y="525.56"/>
      <point x="78.13699999999999" y="483.803" type="curve" smooth="yes"/>
      <point x="78.13699999999999" y="441.616"/>
      <point x="95.693" y="424.276"/>
      <point x="148.374" y="424.276" type="curve" smooth="yes"/>
      <point x="201.05499999999998" y="424.276"/>
      <point x="218.611" y="441.616"/>
    </contour>
  </outline>
</glyph>
<glyph name="cent" format="2">
  <advance width="825.5459999999999"/>
  <unicode hex="00A2"/>
  <outline>
    <contour>
      <point x="428.24699999999996" y="-10.129" type="curve" smooth="yes"/>
      <point x="517.957" y="-10.129"/>
      <point x="620.399" y="1.0999999999999996"/>
      <point x="694.687" y="19.45" type="curve"/>
      <point x="678.905" y="106.92" type="line"/>
      <point x="609.37" y="92.537"/>
      <point x="527.412" y="83.789"/>
      <point x="457.351" y="83.789" type="curve" smooth="yes"/>
      <point x="324.39300000000003" y="83.789"/>
      <point x="249.113" y="143.51999999999998"/>
      <point x="249.113" y="260.543" type="curve" smooth="yes"/>
      <point x="249.113" y="386.67400000000004"/>
      <point x="328.08799999999997" y="453.17699999999996"/>
      <point x="463.785" y="453.17699999999996" type="curve" smooth="yes"/>
      <point x="534.271" y="453.17699999999996"/>
      <point x="591.88" y="446.32"/>
      <point x="666.875" y="429.131" type="curve"/>
      <point x="682.054" y="521.4169999999999" type="line"/>
      <point x="608.0169999999999" y="539.7410000000001"/>
      <point x="542.712" y="548.8580000000001"/>
      <point x="453.938" y="548.8580000000001" type="curve" smooth="yes"/>
      <point x="231.81400000000002" y="548.8580000000001"/>
      <point x="126.429" y="429.59499999999997"/>
      <point x="126.429" y="257.963" type="curve" smooth="yes"/>
      <point x="126.429" y="83.538"/>
      <point x="232.65699999999998" y="-10.129"/>
    </contour>
    <contour>
      <point x="378.45199999999994" y="-105.129" type="line"/>
      <point x="471.12199999999996" y="-105.129" type="line"/>
      <point x="471.12199999999996" y="1.7630000000000003" type="line"/>
      <point x="378.45199999999994" y="4.844" type="line"/>
    </contour>
    <contour>
      <point x="378.45199999999994" y="531.423" type="line"/>
      <point x="471.12199999999996" y="537.924" type="line"/>
      <point x="471.12199999999996" y="643.471" type="line"/>
      <point x="378.45199999999994" y="643.471" type="line"/>
    </contour>
  </outline>
</glyph>
<glyph name="sterling" format="2">
  <advance width="826.0619999999999"/>
  <unicode hex="00A3"/>
  <outline>
    <contour>
      <point x="95.89399999999999" y="0.0" type="line"/>
      <point x="753.558" y="0.0" type="line"/>
      <point x="753.558" y="94.81999999999998" type="line"/>
      <point x="244.78" y="94.81999999999998" type="line"/>
      <point x="316.01199999999994" y="150.37"/>
      <point x="348.91200000000003" y="195.116"/>
      <point x="348.91200000000003" y="253.52800000000002" type="curve" smooth="yes"/>
      <point x="348.91200000000003" y="339.00399999999996"/>
      <point x="271.476" y="393.52000000000004"/>
      <point x="271.476" y="480.24800000000005" type="curve" smooth="yes"/>
      <point x="271.476" y="568.17"/>
      <point x="347.19399999999996" y="610.4499999999999"/>
      <point x="471.152" y="610.4499999999999" type="curve" smooth="yes"/>
      <point x="547.0740000000001" y="610.4499999999999"/>
      <point x="646.34" y="598.5719999999999"/>
      <point x="715.946" y="580.628" type="curve"/>
      <point x="732.9300000000001" y="672.7" type="line"/>
      <point x="661.432" y="694.8739999999999"/>
      <point x="552.784" y="710.0"/>
      <point x="459.11199999999997" y="710.0" type="curve" smooth="yes"/>
      <point x="254.706" y="710.0"/>
      <point x="143.976" y="633.024"/>
      <point x="143.976" y="506.81000000000006" type="curve" smooth="yes"/>
      <point x="143.976" y="397.294"/>
      <point x="229.152" y="338.8"/>
      <point x="229.152" y="251.61200000000002" type="curve" smooth="yes"/>
      <point x="229.152" y="189.646"/>
      <point x="194.48" y="153.812"/>
      <point x="95.89399999999999" y="79.77" type="curve"/>
    </contour>
    <contour>
      <point x="89.38000000000001" y="317.41" type="line"/>
      <point x="627.7" y="317.41" type="line"/>
      <point x="627.7" y="400.19" type="line"/>
      <point x="89.38000000000001" y="400.19" type="line"/>
    </contour>
  </outline>
</glyph>
<glyph name="currency" format="2">
  <advance width="493.30999999999995"/>
  <unicode hex="00A4"/>
  <outline>
    <contour>
      <point x="49.483" y="438.27200000000005" type="line"/>
      <point x="114.79700000000001" y="371.95799999999997" type="line"/>
      <point x="101.602" y="351.40900000000005"/>
      <point x="93.429" y="326.56899999999996"/>
      <point x="93.429" y="298.84700000000004" type="curve" smooth="yes"/>
      <point x="93.429" y="270.695"/>
      <point x="101.602" y="245.29600000000002"/>
      <point x="115.79700000000001" y="224.618" type="curve"/>
      <point x="49.483" y="158.304" type="line"/>
      <point x="106.956" y="100.831" type="line"/>
      <point x="180.19299999999998" y="173.767" type="line"/>
      <point x="198.377" y="161.507"/>
      <point x="221.10999999999999" y="155.237"/>
      <point x="245.854" y="155.237" type="curve" smooth="yes"/>
      <point x="270.942" y="155.237"/>
      <point x="294.159" y="161.808"/>
      <point x="312.81600000000003" y="173.939" type="curve"/>
      <point x="386.354" y="100.831" type="line"/>
      <point x="443.827" y="158.304" type="line"/>
      <point x="376.524" y="225.47799999999998" type="line"/>
      <point x="390.246" y="246.113"/>
      <point x="398.548" y="271.039"/>
      <point x="398.548" y="298.84700000000004" type="curve" smooth="yes"/>
      <point x="398.548" y="326.096"/>
      <point x="390.54699999999997" y="350.592"/>
      <point x="376.65299999999996" y="371.09799999999996" type="curve"/>
      <point x="443.827" y="438.27200000000005" type="line"/>
      <point x="386.354" y="495.745" type="line"/>
      <point x="313.332" y="422.72299999999996" type="line"/>
      <point x="294.546" y="435.15500000000003"/>
      <point x="271.64099999999996" y="442.425"/>
      <point x="245.854" y="442.425" type="curve" smooth="yes"/>
      <point x="220.282" y="442.425"/>
      <point x="197.549" y="435.026"/>
      <point x="179.107" y="422.89500000000004" type="curve"/>
      <point x="106.956" y="495.745" type="line"/>
    </contour>
    <contour>
      <point x="245.553" y="220.60199999999998" type="curve" smooth="yes"/>
      <point x="201.742" y="220.60199999999998"/>
      <point x="167.43699999999998" y="254.606"/>
      <point x="167.43699999999998" y="298.718" type="curve" smooth="yes"/>
      <point x="167.43699999999998" y="342.239"/>
      <point x="201.441" y="376.93100000000004"/>
      <point x="245.553" y="376.93100000000004" type="curve" smooth="yes"/>
      <point x="290.23499999999996" y="376.93100000000004"/>
      <point x="324.53999999999996" y="342.239"/>
      <point x="324.53999999999996" y="298.718" type="curve" smooth="yes"/>
      <point x="324.53999999999996" y="254.606"/>
      <point x="289.93399999999997" y="220.60199999999998"/>
    </contour>
  </outline>
</glyph>
<glyph name="yen" format="2">
  <advance width="826.0899999999999"/>
  <unicode hex="00A5"/>
  <outline>
    <contour>
      <point x="116.15" y="326.44" type="line"/>
      <point x="350.35" y="326.44" type="line"/>
      <point x="350.35" y="252.36999999999998" type="line"/>
      <point x="116.15" y="252.36999999999998" type="line"/>
      <point x="116.15" y="187.22" type="line"/>
      <point x="350.35" y="187.22" type="line"/>
      <point x="350.35" y="0.0" type="line"/>
      <point x="483.43999999999994" y="0.0" type="line"/>
      <point x="483.43999999999994" y="187.22" type="line"/>
      <point x="721.5799999999999" y="187.22" type="line"/>
      <point x="721.5799999999999" y="252.36999999999998" type="line"/>
      <point x="483.43999999999994" y="252.36999999999998" type="line"/>
      <point x="483.43999999999994" y="326.44" type="line"/>
      <point x="721.5799999999999" y="326.44" type="line"/>
      <point x="721.5799999999999" y="392.02" type="line"/>
      <point x="483.43999999999994" y="392.02" type="line"/>
      <point x="753.6699999999998" y="696.51" type="line"/>
      <point x="620.1299999999999" y="703.9200000000001" type="line"/>
      <point x="416.67999999999995" y="463.47999999999996" type="line"/>
      <point x="206.39" y="703.9200000000001" type="line"/>
      <point x="73.27999999999999" y="696.51" type="line"/>
      <point x="350.35" y="392.02" type="line"/>
      <point x="116.15" y="392.02" type="line"/>
    </contour>
  </outline>
</glyph>
<glyph name="brokenbar" format="2">
  <advance width="269.92499999999995"/>
  <unicode hex="00A6"/>
  <outline>
    <contour>
      <point x="184.88799999999998" y="391.0" type="line"/>
      <point x="184.88799999999998" y="790.1289999999999" type="line"/>
      <point x="85.03699999999999" y="790.1289999999999" type="line"/>
      <point x="85.03699999999999" y="391.0" type="line"/>
    </contour>
    <contour>
      <point x="85.03699999999999" y="190.12900000000002" type="line"/>
      <point x="85.03699999999999" y="-210.0" type="line"/>
      <point x="184.88799999999998" y="-210.0" type="line"/>
      <point x="184.88799999999998" y="190.12900000000002" type="line"/>
    </contour>
  </outline>
</glyph>
<glyph name="section" format="2">
  <advance width="645.884"/>
  <unicode hex="00A7"/>
  <outline>
    <contour>
      <point x="280.255" y="-220.43" type="curve" smooth="yes"/>
      <point x="465.33000000000004" y="-220.43"/>
      <point x="592.8349999999999" y="-109.139"/>
      <point x="592.8349999999999" y="62.318" type="curve" smooth="yes"/>
      <point x="592.8349999999999" y="153.44899999999998"/>
      <point x="562.387" y="234.30299999999997"/>
      <point x="471.548" y="380.408" type="curve" smooth="yes"/>
      <point x="406.59299999999996" y="489.73299999999995"/>
      <point x="386.051" y="528.4609999999999"/>
      <point x="386.051" y="566.6080000000001" type="curve" smooth="yes"/>
      <point x="386.051" y="612.806"/>
      <point x="417.95099999999996" y="641.636"/>
      <point x="470.46199999999993" y="641.636" type="curve" smooth="yes"/>
      <point x="491.54" y="641.636"/>
      <point x="515.2719999999999" y="637.641"/>
      <point x="548.302" y="626.5530000000001" type="curve"/>
      <point x="566.211" y="723.762" type="line"/>
      <point x="508.1679999999999" y="742.0889999999999"/>
      <point x="450.78900000000004" y="749.958"/>
      <point x="394.50399999999996" y="749.958" type="curve" smooth="yes"/>
      <point x="185.95799999999997" y="749.958"/>
      <point x="67.76" y="641.2469999999998"/>
      <point x="68.265" y="466.334" type="curve" smooth="yes"/>
      <point x="68.695" y="367.28"/>
      <point x="99.53999999999999" y="283.754"/>
      <point x="186.45399999999998" y="145.935" type="curve" smooth="yes"/>
      <point x="241.78" y="52.413999999999994"/>
      <point x="269.27" y="12.705000000000002"/>
      <point x="269.583" y="-37.842999999999996" type="curve" smooth="yes"/>
      <point x="269.89599999999996" y="-79.85900000000001"/>
      <point x="235.61299999999997" y="-110.36600000000001"/>
      <point x="185.778" y="-110.36600000000001" type="curve" smooth="yes"/>
      <point x="148.67700000000002" y="-110.36600000000001"/>
      <point x="120.12699999999998" y="-99.194"/>
      <point x="71.518" y="-67.777" type="curve"/>
      <point x="48.10399999999999" y="-160.018" type="line"/>
      <point x="127.791" y="-204.03799999999998"/>
      <point x="191.536" y="-220.43"/>
    </contour>
    <contour>
      <point x="287.00399999999996" y="-155.457" type="curve" smooth="yes"/>
      <point x="253.34599999999998" y="-155.457"/>
      <point x="225.12599999999998" y="-151.85399999999998"/>
      <point x="200.724" y="-142.129" type="curve"/>
      <point x="224.698" y="-160.54200000000003" type="line"/>
      <point x="306.762" y="-165.505"/>
      <point x="368.52099999999996" y="-110.775"/>
      <point x="368.52099999999996" y="-38.31500000000001" type="curve" smooth="yes"/>
      <point x="368.52099999999996" y="17.432"/>
      <point x="347.604" y="68.598"/>
      <point x="274.895" y="186.60999999999999" type="curve" smooth="yes"/>
      <point x="193.856" y="319.57200000000006"/>
      <point x="165.408" y="394.762"/>
      <point x="165.408" y="481.599" type="curve" smooth="yes"/>
      <point x="165.408" y="601.7880000000001"/>
      <point x="241.664" y="673.034"/>
      <point x="355.127" y="673.034" type="curve" smooth="yes"/>
      <point x="377.601" y="673.034"/>
      <point x="393.46599999999995" y="670.571"/>
      <point x="415.02799999999996" y="663.8830000000002" type="curve"/>
      <point x="396.679" y="682.404" type="line"/>
      <point x="332.75000000000006" y="682.956"/>
      <point x="290.469" y="628.169"/>
      <point x="289.726" y="568.5619999999999" type="curve" smooth="yes"/>
      <point x="289.726" y="512.3090000000001"/>
      <point x="311.06199999999995" y="465.763"/>
      <point x="382.205" y="343.43" type="curve" smooth="yes"/>
      <point x="469.899" y="190.734"/>
      <point x="498.959" y="122.499"/>
      <point x="498.959" y="46.838" type="curve" smooth="yes"/>
      <point x="499.27200000000005" y="-60.89699999999999"/>
      <point x="429.572" y="-155.14399999999998"/>
    </contour>
  </outline>
</glyph>
<glyph name="copyright" format="2">
  <advance width="845.218"/>
  <unicode hex="00A9"/>
  <outline>
    <contour>
      <point x="422.91" y="41.694" type="curve" smooth="yes"/>
      <point x="234.70299999999997" y="41.694"/>
      <point x="112.56499999999998" y="137.932"/>
      <point x="112.56499999999998" y="349.527" type="curve" smooth="yes"/>
      <point x="112.56499999999998" y="561.895"/>
      <point x="235.30499999999998" y="656.156"/>
      <point x="422.91" y="656.156" type="curve" smooth="yes"/>
      <point x="610.2999999999998" y="656.156"/>
      <point x="732.5239999999999" y="561.895"/>
      <point x="732.5239999999999" y="349.527" type="curve" smooth="yes"/>
      <point x="732.5239999999999" y="137.932"/>
      <point x="610.9019999999999" y="41.694"/>
    </contour>
    <contour>
      <point x="422.91" y="710.0" type="curve" smooth="yes"/>
      <point x="203.59400000000002" y="710.0"/>
      <point x="54.120000000000005" y="591.784"/>
      <point x="54.120000000000005" y="349.527" type="curve" smooth="yes"/>
      <point x="54.120000000000005" y="107.57"/>
      <point x="202.99200000000002" y="-10.0"/>
      <point x="422.91" y="-10.0" type="curve" smooth="yes"/>
      <point x="642.226" y="-10.0"/>
      <point x="791.0979999999998" y="107.57"/>
      <point x="791.0979999999998" y="349.527" type="curve" smooth="yes"/>
      <point x="791.0979999999998" y="591.784"/>
      <point x="642.226" y="710.0"/>
    </contour>
    <contour>
      <point x="235.18000000000004" y="340.19" type="curve" smooth="yes"/>
      <point x="235.18000000000004" y="211.02700000000002"/>
      <point x="314.53" y="159.87800000000001"/>
      <point x="424.339" y="159.87800000000001" type="curve" smooth="yes"/>
      <point x="492.71399999999994" y="159.87800000000001"/>
      <point x="555.4509999999999" y="173.355"/>
      <point x="594.769" y="189.285" type="curve"/>
      <point x="581.4139999999999" y="253.36200000000002" type="line"/>
      <point x="550.6379999999999" y="244.386"/>
      <point x="498.485" y="232.85500000000002"/>
      <point x="441.32399999999996" y="232.85500000000002" type="curve" smooth="yes"/>
      <point x="364.28799999999995" y="232.85500000000002"/>
      <point x="326.087" y="265.49999999999994"/>
      <point x="326.087" y="341.695" type="curve" smooth="yes"/>
      <point x="326.087" y="433.79599999999994"/>
      <point x="373.356" y="463.70599999999996"/>
      <point x="453.27299999999997" y="463.70599999999996" type="curve" smooth="yes"/>
      <point x="492.99800000000005" y="463.70599999999996"/>
      <point x="533.8039999999999" y="456.42199999999997"/>
      <point x="568.26" y="446.79699999999997" type="curve"/>
      <point x="583.206" y="512.766" type="line"/>
      <point x="541.269" y="529.83"/>
      <point x="492.46299999999997" y="537.2850000000001"/>
      <point x="441.74899999999997" y="537.2850000000001" type="curve" smooth="yes"/>
      <point x="324.962" y="537.2850000000001"/>
      <point x="235.18000000000004" y="484.24600000000004"/>
    </contour>
  </outline>
</glyph>
<glyph name="ordfeminine" format="2">
  <advance width="470.55400000000003"/>
  <unicode hex="00AA"/>
  <outline>
    <contour>
      <point x="57.919" y="234.897" type="line"/>
      <point x="432.542" y="234.897" type="line"/>
      <point x="432.542" y="301.80699999999996" type="line"/>
      <point x="57.919" y="301.80699999999996" type="line"/>
    </contour>
    <component base="a.superior" xOffset="11.476999999999999"/>
  </outline>
</glyph>
<glyph name="logicalnot" format="2">
  <advance width="576.272"/>
  <unicode hex="00AC"/>
  <outline>
    <contour>
      <point x="55.968" y="340.48400000000004" type="line"/>
      <point x="426.73" y="340.48400000000004" type="line"/>
      <point x="426.73" y="169.733" type="line"/>
      <point x="520.475" y="169.733" type="line"/>
      <point x="520.475" y="434.229" type="line"/>
      <point x="55.968" y="434.229" type="line"/>
    </contour>
  </outline>
</glyph>
<glyph name="registered" format="2">
  <advance width="810.7259999999999"/>
  <unicode hex="00AE"/>
  <outline>
    <contour>
      <point x="400.568" y="207.453" type="curve" smooth="yes"/>
      <point x="614.7869999999999" y="207.453"/>
      <point x="756.606" y="317.024"/>
      <point x="756.606" y="550.184" type="curve" smooth="yes"/>
      <point x="756.606" y="780.763"/>
      <point x="615.303" y="893.3450000000001"/>
      <point x="400.568" y="893.3450000000001" type="curve" smooth="yes"/>
      <point x="192.498" y="893.3450000000001"/>
      <point x="54.120000000000005" y="780.763"/>
      <point x="54.120000000000005" y="550.184" type="curve" smooth="yes"/>
      <point x="54.120000000000005" y="320.507"/>
      <point x="191.337" y="207.453"/>
    </contour>
    <contour>
      <point x="400.568" y="256.642" type="curve" smooth="yes"/>
      <point x="222.00499999999997" y="256.642"/>
      <point x="109.62899999999999" y="349.353"/>
      <point x="109.62899999999999" y="550.184" type="curve" smooth="yes"/>
      <point x="109.62899999999999" y="751.831"/>
      <point x="221.91899999999998" y="841.8340000000001"/>
      <point x="400.568" y="841.8340000000001" type="curve" smooth="yes"/>
      <point x="585.1940000000001" y="841.8340000000001"/>
      <point x="701.0530000000001" y="751.917"/>
      <point x="701.0530000000001" y="550.184" type="curve" smooth="yes"/>
      <point x="701.0530000000001" y="348.62199999999996"/>
      <point x="584.549" y="256.642"/>
    </contour>
    <contour>
      <point x="594.2529999999999" y="387.923" type="curve" smooth="yes"/>
      <point x="597.167" y="387.923"/>
      <point x="600.028" y="387.923"/>
      <point x="603.0690000000001" y="388.09400000000005" type="curve"/>
      <point x="602.5559999999999" y="457.405" type="line"/>
      <point x="601.2869999999999" y="457.234"/>
      <point x="599.3720000000001" y="457.234"/>
      <point x="597.802" y="457.234" type="curve" smooth="yes"/>
      <point x="569.183" y="457.36299999999994"/>
      <point x="526.0929999999998" y="485.38"/>
      <point x="485.56800000000004" y="529.0300000000001" type="curve"/>
      <point x="542.2349999999999" y="536.986"/>
      <point x="576.527" y="563.9060000000001"/>
      <point x="576.527" y="624.274" type="curve" smooth="yes"/>
      <point x="576.527" y="694.991"/>
      <point x="528.4669999999999" y="722.6049999999999"/>
      <point x="394.489" y="722.6049999999999" type="curve" smooth="yes"/>
      <point x="357.97299999999996" y="722.6049999999999"/>
      <point x="310.358" y="721.317"/>
      <point x="240.933" y="718.0169999999999" type="curve"/>
      <point x="240.933" y="390.8140000000001" type="line"/>
      <point x="320.64899999999994" y="390.8140000000001" type="line"/>
      <point x="320.64899999999994" y="509.266" type="line"/>
      <point x="341.8060000000001" y="508.99699999999996"/>
      <point x="357.77099999999996" y="508.12600000000003"/>
      <point x="376.25299999999993" y="508.12600000000003" type="curve" smooth="yes"/>
      <point x="382.5919999999999" y="508.12600000000003"/>
      <point x="388.587" y="508.12600000000003"/>
      <point x="394.7109999999999" y="508.29699999999997" type="curve"/>
      <point x="461.557" y="431.577"/>
      <point x="532.505" y="388.13800000000003"/>
    </contour>
    <contour>
      <point x="390.3179999999999" y="557.915" type="curve" smooth="yes"/>
      <point x="368.954" y="557.915"/>
      <point x="350.83799999999997" y="558.529"/>
      <point x="320.64899999999994" y="559.0130000000001" type="curve"/>
      <point x="320.64899999999994" y="661.978" type="line"/>
      <point x="358.17499999999995" y="664.1619999999998"/>
      <point x="366.395" y="664.4309999999999"/>
      <point x="398.315" y="664.4309999999999" type="curve" smooth="yes"/>
      <point x="476.6559999999999" y="664.4309999999999"/>
      <point x="494.575" y="650.2259999999999"/>
      <point x="494.575" y="614.7300000000001" type="curve" smooth="yes"/>
      <point x="494.575" y="569.2300000000001"/>
      <point x="466.4320000000001" y="557.915"/>
    </contour>
  </outline>
</glyph>
<glyph name="degree" format="2">
  <advance width="335.99"/>
  <unicode hex="00B0"/>
  <outline>
    <contour>
      <point x="167.726" y="438.3" type="curve" smooth="yes"/>
      <point x="256.121" y="438.3"/>
      <point x="304.87199999999996" y="505.24100000000004"/>
      <point x="304.87199999999996" y="578.71" type="curve" smooth="yes"/>
      <point x="304.87199999999996" y="649.47"/>
      <point x="259.303" y="720.26"/>
      <point x="167.726" y="720.26" type="curve" smooth="yes"/>
      <point x="75.54700000000001" y="720.26"/>
      <point x="31.118" y="649.47"/>
      <point x="31.118" y="578.71" type="curve" smooth="yes"/>
      <point x="31.118" y="505.24100000000004"/>
      <point x="79.33099999999999" y="438.3"/>
    </contour>
    <contour>
      <point x="167.726" y="514.114" type="curve" smooth="yes"/>
      <point x="133.67499999999998" y="514.114"/>
      <point x="110.802" y="541.783"/>
      <point x="110.802" y="578.581" type="curve" smooth="yes"/>
      <point x="110.802" y="613.917"/>
      <point x="132.944" y="643.328"/>
      <point x="167.726" y="643.328" type="curve" smooth="yes"/>
      <point x="201.906" y="643.328"/>
      <point x="225.79" y="613.917"/>
      <point x="225.79" y="578.581" type="curve" smooth="yes"/>
      <point x="225.79" y="541.783"/>
      <point x="201.77700000000002" y="514.114"/>
    </contour>
  </outline>
</glyph>
<glyph name="plusminus" format="2">
  <advance width="581.744"/>
  <unicode hex="00B1"/>
  <outline>
    <contour>
      <point x="55.284" y="40.739" type="line"/>
      <point x="526.46" y="40.739" type="line"/>
      <point x="526.46" y="134.48399999999998" type="line"/>
      <point x="343.614" y="134.48399999999998" type="line"/>
      <point x="343.614" y="293.958" type="line"/>
      <point x="526.46" y="293.958" type="line"/>
      <point x="526.46" y="387.703" type="line"/>
      <point x="343.614" y="387.703" type="line"/>
      <point x="343.614" y="551.64" type="line"/>
      <point x="237.829" y="551.64" type="line"/>
      <point x="237.829" y="387.703" type="line"/>
      <point x="55.284" y="387.703" type="line"/>
      <point x="55.284" y="293.958" type="line"/>
      <point x="237.829" y="293.958" type="line"/>
      <point x="237.829" y="134.48399999999998" type="line"/>
      <point x="55.284" y="134.48399999999998" type="line"/>
    </contour>
  </outline>
</glyph>
<glyph name="uni00B2" format="2">
  <advance width="517.859"/>
  <unicode hex="00B2"/>
  <outline>
    <contour>
      <point x="58.50599999999999" y="370.0" type="line"/>
      <point x="462.852" y="370.0" type="line"/>
      <point x="462.852" y="428.484" type="line"/>
      <point x="202.098" y="428.484" type="line"/>
      <point x="367.95099999999996" y="529.6589999999999"/>
      <point x="403.097" y="577.879"/>
      <point x="403.097" y="645.8530000000001" type="curve" smooth="yes"/>
      <point x="403.097" y="724.857"/>
      <point x="340.65" y="772.574"/>
      <point x="236.475" y="772.574" type="curve" smooth="yes"/>
      <point x="179.44500000000002" y="772.574"/>
      <point x="111.101" y="757.092"/>
      <point x="65.816" y="732.115" type="curve"/>
      <point x="89.48700000000001" y="672.134" type="line"/>
      <point x="135.339" y="694.0350000000001"/>
      <point x="175.174" y="702.96"/>
      <point x="215.59699999999998" y="702.96" type="curve" smooth="yes"/>
      <point x="273.72799999999995" y="702.96"/>
      <point x="305.007" y="674.705"/>
      <point x="305.007" y="629.836" type="curve" smooth="yes"/>
      <point x="305.007" y="572.9879999999999"/>
      <point x="247.64299999999997" y="523.7230000000001"/>
      <point x="56.796" y="421.797" type="curve"/>
    </contour>
  </outline>
</glyph>
<glyph name="uni00B3" format="2">
  <advance width="503.00200000000007"/>
  <unicode hex="00B3"/>
  <outline>
    <contour>
      <point x="26.945" y="398.968" type="line"/>
      <point x="88.879" y="371.536"/>
      <point x="154.297" y="361.67699999999996"/>
      <point x="233.215" y="361.67699999999996" type="curve" smooth="yes"/>
      <point x="374.241" y="361.67699999999996"/>
      <point x="464.577" y="403.691"/>
      <point x="464.577" y="485.865" type="curve" smooth="yes"/>
      <point x="464.577" y="536.365"/>
      <point x="428.579" y="568.428"/>
      <point x="358.069" y="579.5360000000001" type="curve"/>
      <point x="408.47" y="589.357"/>
      <point x="441.194" y="622.1519999999999"/>
      <point x="441.194" y="668.8589999999999" type="curve" smooth="yes"/>
      <point x="441.194" y="733.172"/>
      <point x="372.622" y="773.288"/>
      <point x="236.178" y="773.288" type="curve" smooth="yes"/>
      <point x="150.539" y="773.288"/>
      <point x="83.226" y="761.278"/>
      <point x="47.49100000000001" y="748.983" type="curve"/>
      <point x="63.429" y="691.2439999999999" type="line"/>
      <point x="85.58099999999999" y="697.3190000000001"/>
      <point x="127.129" y="710.524"/>
      <point x="213.464" y="710.524" type="curve" smooth="yes"/>
      <point x="296.19399999999996" y="710.524"/>
      <point x="352.73499999999996" y="688.145"/>
      <point x="352.73499999999996" y="651.7950000000001" type="curve" smooth="yes"/>
      <point x="352.73499999999996" y="618.2669999999999"/>
      <point x="319.635" y="598.607"/>
      <point x="256.158" y="598.607" type="curve" smooth="yes"/>
      <point x="137.433" y="598.607" type="line"/>
      <point x="137.433" y="545.983" type="line"/>
      <point x="245.13799999999998" y="545.983" type="line" smooth="yes"/>
      <point x="338.68600000000004" y="545.983"/>
      <point x="372.33599999999996" y="528.1980000000001"/>
      <point x="372.33599999999996" y="491.025" type="curve" smooth="yes"/>
      <point x="372.33599999999996" y="447.01599999999996"/>
      <point x="320.777" y="420.33200000000005"/>
      <point x="224.401" y="420.33200000000005" type="curve" smooth="yes"/>
      <point x="138.323" y="420.33200000000005"/>
      <point x="90.65800000000002" y="430.53700000000003"/>
      <point x="46.31400000000001" y="452.425" type="curve"/>
    </contour>
  </outline>
</glyph>
<glyph name="uni00B5" format="2">
  <advance width="724.9599999999999"/>
  <unicode hex="00B5"/>
  <outline>
    <contour>
      <point x="75.705" y="-210.0" type="line"/>
      <point x="198.819" y="-210.0" type="line"/>
      <point x="198.819" y="35.739000000000004" type="line"/>
      <point x="218.914" y="6.606"/>
      <point x="255.056" y="-9.742"/>
      <point x="307.219" y="-9.742" type="curve" smooth="yes"/>
      <point x="391.08799999999997" y="-9.742"/>
      <point x="451.181" y="19.352000000000004"/>
      <point x="523.135" y="62.834999999999994" type="curve"/>
      <point x="540.0529999999999" y="12.409"/>
      <point x="574.7009999999999" y="-10.0"/>
      <point x="626.572" y="-10.0" type="curve" smooth="yes"/>
      <point x="659.766" y="-10.0"/>
      <point x="695.1519999999999" y="-0.5920000000000001"/>
      <point x="718.261" y="12.501999999999999" type="curve"/>
      <point x="706.0269999999999" y="89.303" type="line"/>
      <point x="696.8319999999999" y="85.11999999999999"/>
      <point x="687.2249999999999" y="83.151"/>
      <point x="677.673" y="83.151" type="curve" smooth="yes"/>
      <point x="652.175" y="83.151"/>
      <point x="630.4899999999999" y="99.616"/>
      <point x="630.4899999999999" y="152.65" type="curve" smooth="yes"/>
      <point x="630.4899999999999" y="538.6" type="line"/>
      <point x="506.215" y="538.6" type="line"/>
      <point x="506.215" y="139.498" type="line"/>
      <point x="437.57399999999996" y="106.335"/>
      <point x="387.62399999999997" y="85.037"/>
      <point x="318.73599999999993" y="85.037" type="curve" smooth="yes"/>
      <point x="241.32500000000002" y="85.037"/>
      <point x="200.10899999999998" y="125.26899999999999"/>
      <point x="200.10899999999998" y="195.32500000000002" type="curve" smooth="yes"/>
      <point x="200.10899999999998" y="538.6" type="line"/>
      <point x="75.705" y="538.6" type="line"/>
    </contour>
  </outline>
</glyph>
<glyph name="paragraph" format="2">
  <advance width="746.811"/>
  <unicode hex="00B6"/>
  <outline>
    <contour>
      <point x="555.027" y="-210.0" type="line"/>
      <point x="653.201" y="-210.0" type="line"/>
      <point x="653.201" y="740.0" type="line"/>
      <point x="555.027" y="740.0" type="line"/>
    </contour>
    <contour>
      <point x="302.62700000000007" y="265.609" type="line"/>
      <point x="207.418" y="277.47200000000004"/>
      <point x="161.202" y="344.692"/>
      <point x="161.202" y="459.21000000000004" type="curve" smooth="yes"/>
      <point x="161.202" y="583.807"/>
      <point x="220.205" y="644.287"/>
      <point x="356.93899999999996" y="646.339" type="curve"/>
      <point x="356.93899999999996" y="-210.0" type="line"/>
      <point x="455.113" y="-210.0" type="line"/>
      <point x="455.113" y="740.0" type="line"/>
      <point x="385.355" y="740.0" type="line" smooth="yes"/>
      <point x="146.328" y="740.0"/>
      <point x="54.729" y="643.7669999999999"/>
      <point x="54.729" y="470.089" type="curve" smooth="yes"/>
      <point x="54.729" y="308.952"/>
      <point x="129.219" y="213.58999999999997"/>
      <point x="291.72499999999997" y="196.41699999999997" type="curve"/>
    </contour>
  </outline>
</glyph>
<glyph name="periodcentered" format="2">
  <advance width="247.318"/>
  <unicode hex="00B7"/>
  <outline>
    <contour>
      <point x="53.083999999999996" y="301.19" type="curve" smooth="yes"/>
      <point x="53.083999999999996" y="258.96"/>
      <point x="71.812" y="241.62"/>
      <point x="123.708" y="241.62" type="curve" smooth="yes"/>
      <point x="176.60399999999998" y="241.62"/>
      <point x="194.33200000000002" y="258.96"/>
      <point x="194.33200000000002" y="301.19" type="curve" smooth="yes"/>
      <point x="194.33200000000002" y="343.85"/>
      <point x="176.60399999999998" y="361.19"/>
      <point x="123.708" y="361.19" type="curve" smooth="yes"/>
      <point x="70.812" y="361.19"/>
      <point x="53.083999999999996" y="343.85"/>
    </contour>
  </outline>
</glyph>
<glyph name="uni00B9" format="2">
  <advance width="475.60799999999995"/>
  <unicode hex="00B9"/>
  <outline>
    <contour>
      <point x="45.855000000000004" y="370.0" type="line"/>
      <point x="449.61199999999997" y="370.0" type="line"/>
      <point x="449.61199999999997" y="430.16" type="line"/>
      <point x="308.759" y="430.16" type="line"/>
      <point x="308.759" y="767.267" type="line"/>
      <point x="260.04699999999997" y="767.267" type="line"/>
      <point x="28.392000000000003" y="677.8559999999999" type="line"/>
      <point x="51.805" y="612.921" type="line"/>
      <point x="211.49899999999997" y="677.5790000000001" type="line"/>
      <point x="211.49899999999997" y="430.16" type="line"/>
      <point x="45.855000000000004" y="430.16" type="line"/>
    </contour>
  </outline>
</glyph>
<glyph name="ordmasculine" format="2">
  <advance width="485.332"/>
  <unicode hex="00BA"/>
  <outline>
    <contour>
      <point x="56.873" y="235.296" type="line"/>
      <point x="434.688" y="235.296" type="line"/>
      <point x="434.688" y="302.20599999999996" type="line"/>
      <point x="56.873" y="302.20599999999996" type="line"/>
    </contour>
    <component base="o.superior" xOffset="10.052000000000001"/>
  </outline>
</glyph>
<glyph name="questiondown" format="2">
  <advance width="594.231"/>
  <unicode hex="00BF"/>
  <outline>
    <contour>
      <point x="374.005" y="276.22700000000003" type="line"/>
      <point x="267.317" y="276.22700000000003" type="line"/>
      <point x="266.715" y="213.89399999999998" type="line"/>
      <point x="104.762" y="165.74099999999999"/>
      <point x="35.621" y="103.71499999999999"/>
      <point x="35.621" y="-5.5500000000000025" type="curve" smooth="yes"/>
      <point x="35.621" y="-157.95000000000002"/>
      <point x="168.27700000000002" y="-212.99099999999999"/>
      <point x="299.743" y="-212.99099999999999" type="curve" smooth="yes"/>
      <point x="391.47999999999996" y="-212.99099999999999"/>
      <point x="502.0679999999999" y="-186.107"/>
      <point x="576.3559999999999" y="-138.726" type="curve"/>
      <point x="542.02" y="-49.212" type="line"/>
      <point x="470.081" y="-90.419"/>
      <point x="389.808" y="-111.118"/>
      <point x="318.835" y="-111.118" type="curve" smooth="yes"/>
      <point x="239.76999999999995" y="-111.118"/>
      <point x="164.582" y="-80.38199999999999"/>
      <point x="164.582" y="2.922999999999999" type="curve" smooth="yes"/>
      <point x="164.582" y="65.198"/>
      <point x="205.36" y="113.07300000000001"/>
      <point x="376.62799999999993" y="156.177" type="curve"/>
    </contour>
    <contour>
      <point x="388.663" y="482.384" type="curve" smooth="yes"/>
      <point x="388.663" y="524.1410000000001"/>
      <point x="370.324" y="541.481"/>
      <point x="318.255" y="541.481" type="curve" smooth="yes"/>
      <point x="265.874" y="541.481"/>
      <point x="248.018" y="524.1410000000001"/>
      <point x="248.018" y="482.384" type="curve" smooth="yes"/>
      <point x="248.018" y="440.197"/>
      <point x="265.874" y="422.857"/>
      <point x="318.255" y="422.857" type="curve" smooth="yes"/>
      <point x="371.065" y="422.857"/>
      <point x="388.663" y="440.197"/>
    </contour>
  </outline>
</glyph>
<glyph name="AE" format="2">
  <advance width="1277.6580000000001"/>
  <unicode hex="00C6"/>
  <anchor x="661.648" y="700.0" name="top"/>
  <outline>
    <contour>
      <point x="3.948000000000001" y="0.0" type="line"/>
      <point x="155.452" y="-0.47200000000000014" type="line"/>
      <point x="332.92400000000004" y="231.144" type="line"/>
      <point x="596.4499999999999" y="231.144" type="line"/>
      <point x="596.4499999999999" y="0.0" type="line"/>
      <point x="1240.182" y="0.0" type="line"/>
      <point x="1240.182" y="106.85999999999999" type="line"/>
      <point x="727.39" y="106.85999999999999" type="line"/>
      <point x="727.39" y="298.61199999999997" type="line"/>
      <point x="1189.294" y="298.61199999999997" type="line"/>
      <point x="1189.294" y="402.89199999999994" type="line"/>
      <point x="727.39" y="402.89199999999994" type="line"/>
      <point x="727.39" y="593.14" type="line"/>
      <point x="1217.14" y="593.14" type="line"/>
      <point x="1217.14" y="700.0" type="line"/>
      <point x="537.8499999999999" y="700.0" type="line"/>
    </contour>
    <contour>
      <point x="399.69199999999995" y="332.37199999999996" type="line"/>
      <point x="596.02" y="603.7360000000001" type="line"/>
      <point x="596.02" y="332.37199999999996" type="line"/>
    </contour>
  </outline>
</glyph>
<glyph name="multiply" format="2">
  <advance width="542.7520000000001"/>
  <unicode hex="00D7"/>
  <outline>
    <contour>
      <point x="116.974" y="80.46499999999997" type="line"/>
      <point x="271.604" y="240.381" type="line"/>
      <point x="425.37899999999996" y="81.833" type="line"/>
      <point x="487.449" y="151.695" type="line"/>
      <point x="342.882" y="303.867" type="line"/>
      <point x="488.076" y="457.47999999999996" type="line"/>
      <point x="426.006" y="527.342" type="line"/>
      <point x="271.604" y="367.524" type="line"/>
      <point x="116.575" y="528.14" type="line"/>
      <point x="54.504999999999995" y="458.27799999999996" type="line"/>
      <point x="200.19600000000003" y="303.867" type="line"/>
      <point x="54.904" y="150.327" type="line"/>
    </contour>
  </outline>
</glyph>
<glyph name="Oslash" format="2">
  <advance width="951.9399999999999"/>
  <unicode hex="00D8"/>
  <anchor x="474.545" y="700.0" name="top"/>
  <outline>
    <contour>
      <point x="170.01000000000002" y="-13.009999999999998" type="line"/>
      <point x="261.63" y="67.82000000000001" type="line"/>
      <point x="264.425" y="65.885" type="line"/>
      <point x="760.1299999999999" y="575.3149999999999" type="line"/>
      <point x="762.9249999999998" y="573.595" type="line"/>
      <point x="897.2899999999998" y="714.3" type="line"/>
      <point x="779.6449999999999" y="714.3" type="line"/>
      <point x="690.0899999999998" y="628.1550000000001" type="line"/>
      <point x="687.2249999999999" y="630.02" type="line"/>
      <point x="192.595" y="129.12" type="line"/>
      <point x="190.23" y="129.98000000000002" type="line"/>
      <point x="53.510000000000005" y="-13.009999999999998" type="line"/>
    </contour>
    <contour>
      <point x="474.76" y="79.375" type="curve" smooth="yes"/>
      <point x="325.145" y="79.375"/>
      <point x="182.29999999999998" y="138.85"/>
      <point x="182.29999999999998" y="350.36" type="curve" smooth="yes"/>
      <point x="182.29999999999998" y="566.425"/>
      <point x="324.93" y="620.6250000000001"/>
      <point x="474.76" y="620.6250000000001" type="curve" smooth="yes"/>
      <point x="624.085" y="620.6250000000001"/>
      <point x="767.9300000000001" y="566.5649999999999"/>
      <point x="767.9300000000001" y="350.36" type="curve" smooth="yes"/>
      <point x="767.9300000000001" y="134.01"/>
      <point x="624.085" y="79.375"/>
    </contour>
    <contour>
      <point x="474.975" y="-10.0" type="curve" smooth="yes"/>
      <point x="717.41" y="-10.0"/>
      <point x="897.5049999999999" y="74.14499999999998"/>
      <point x="897.5049999999999" y="353.43" type="curve" smooth="yes"/>
      <point x="897.5049999999999" y="623.9200000000001"/>
      <point x="719.6599999999999" y="710.0"/>
      <point x="474.76" y="710.0" type="curve" smooth="yes"/>
      <point x="227.78999999999994" y="710.0"/>
      <point x="53.29500000000001" y="622.28"/>
      <point x="53.29500000000001" y="351.005" type="curve" smooth="yes"/>
      <point x="53.29500000000001" y="80.77"/>
      <point x="234.66999999999996" y="-10.0"/>
    </contour>
  </outline>
</glyph>
<glyph name="Thorn" format="2">
  <advance width="861.879"/>
  <unicode hex="00DE"/>
  <outline>
    <contour>
      <point x="89.42399999999999" y="0.0" type="line"/>
      <point x="219.84799999999998" y="0.0" type="line"/>
      <point x="219.84799999999998" y="140.68800000000002" type="line"/>
      <point x="338.269" y="137.201"/>
      <point x="355.399" y="136.80199999999996"/>
      <point x="461.815" y="136.80199999999996" type="curve" smooth="yes"/>
      <point x="722.847" y="136.80199999999996"/>
      <point x="814.089" y="202.88400000000001"/>
      <point x="814.089" y="388.582" type="curve" smooth="yes"/>
      <point x="814.089" y="563.9300000000001"/>
      <point x="738.6779999999999" y="629.973"/>
      <point x="420.404" y="629.973" type="curve" smooth="yes"/>
      <point x="382.22099999999995" y="629.973"/>
      <point x="325.39399999999995" y="628.703"/>
      <point x="219.97699999999998" y="624.868" type="curve"/>
      <point x="219.97699999999998" y="700.0" type="line"/>
      <point x="89.42399999999999" y="700.0" type="line"/>
    </contour>
    <contour>
      <point x="415.288" y="233.385" type="curve" smooth="yes"/>
      <point x="344.06399999999996" y="233.385"/>
      <point x="305.17699999999996" y="234.88299999999998"/>
      <point x="219.97699999999998" y="237.713" type="curve"/>
      <point x="219.97699999999998" y="529.2729999999999" type="line"/>
      <point x="340.038" y="534.569"/>
      <point x="377.82899999999995" y="535.538"/>
      <point x="430.25" y="535.538" type="curve" smooth="yes"/>
      <point x="632.256" y="535.538"/>
      <point x="681.558" y="492.311"/>
      <point x="681.558" y="389.316" type="curve" smooth="yes"/>
      <point x="681.558" y="278.864"/>
      <point x="634.5229999999999" y="233.385"/>
    </contour>
  </outline>
</glyph>
<glyph name="germandbls" format="2">
  <advance width="834.278"/>
  <unicode hex="00DF"/>
  <outline>
    <contour>
      <point x="127.03800000000001" y="0.0" type="line"/>
      <point x="251.18399999999997" y="0.0" type="line"/>
      <point x="251.18399999999997" y="492.094" type="line" smooth="yes"/>
      <point x="251.18399999999997" y="608.4839999999999"/>
      <point x="325.03" y="662.388"/>
      <point x="465.78999999999996" y="662.388" type="curve" smooth="yes"/>
      <point x="586.364" y="662.388"/>
      <point x="620.98" y="643.516"/>
      <point x="620.98" y="596.8919999999999" type="curve" smooth="yes"/>
      <point x="620.98" y="561.242"/>
      <point x="595.256" y="546.568"/>
      <point x="512.664" y="525.706" type="curve" smooth="yes"/>
      <point x="398.854" y="500.92600000000004"/>
      <point x="353.76800000000003" y="455.128"/>
      <point x="353.76800000000003" y="382.296" type="curve" smooth="yes"/>
      <point x="353.76800000000003" y="290.252"/>
      <point x="402.72600000000006" y="250.414"/>
      <point x="580.99" y="222.73" type="curve" smooth="yes"/>
      <point x="680.724" y="204.49"/>
      <point x="715.2259999999999" y="189.352"/>
      <point x="715.2259999999999" y="144.12" type="curve" smooth="yes"/>
      <point x="715.2259999999999" y="95.538"/>
      <point x="649.8219999999999" y="73.91399999999999"/>
      <point x="572.1080000000001" y="73.91399999999999" type="curve" smooth="yes"/>
      <point x="498.086" y="73.91399999999999"/>
      <point x="402.188" y="89.726"/>
      <point x="330.074" y="111.114" type="curve"/>
      <point x="314.388" y="26.065999999999995" type="line"/>
      <point x="395.17199999999997" y="2.0439999999999987"/>
      <point x="486.33000000000004" y="-10.5"/>
      <point x="566.862" y="-10.5" type="curve" smooth="yes"/>
      <point x="702.038" y="-10.5"/>
      <point x="830.944" y="32.400000000000006"/>
      <point x="830.944" y="152.892" type="curve" smooth="yes"/>
      <point x="830.944" y="246.668"/>
      <point x="773.1500000000001" y="289.296"/>
      <point x="602.982" y="316.06600000000003" type="curve" smooth="yes"/>
      <point x="498.384" y="333.494"/>
      <point x="464.24" y="347.724"/>
      <point x="464.24" y="389.52" type="curve" smooth="yes"/>
      <point x="464.24" y="427.20799999999997"/>
      <point x="497.52199999999993" y="437.32"/>
      <point x="567.8820000000001" y="454.386" type="curve" smooth="yes"/>
      <point x="681.7319999999999" y="483.956"/>
      <point x="736.1819999999999" y="513.9179999999999"/>
      <point x="736.1819999999999" y="594.21" type="curve" smooth="yes"/>
      <point x="736.1819999999999" y="700.37"/>
      <point x="646.06" y="750.0"/>
      <point x="462.646" y="750.0" type="curve" smooth="yes"/>
      <point x="238.608" y="750.0"/>
      <point x="127.232" y="672.354"/>
      <point x="127.03800000000001" y="512.328" type="curve" smooth="yes"/>
      <point x="127.03800000000001" y="489.67600000000004" type="line"/>
      <point x="25.196" y="479.704" type="line"/>
      <point x="25.196" y="405.34799999999996" type="line"/>
      <point x="127.03800000000001" y="405.34799999999996" type="line"/>
    </contour>
  </outline>
</glyph>
<glyph name="ae" format="2">
  <advance width="1090.0900000000004"/>
  <unicode hex="00E6"/>
  <anchor x="557.0699999999999" y="538.6" name="top"/>
  <outline>
    <contour>
      <point x="214.45" y="-10.0" type="curve" smooth="yes"/>
      <point x="339.12" y="-10.0"/>
      <point x="413.08" y="26.58"/>
      <point x="501.34999999999997" y="89.30000000000001" type="curve"/>
      <point x="502.7799999999999" y="89.30000000000001" type="line"/>
      <point x="552.4699999999999" y="21.159999999999997"/>
      <point x="637.9699999999999" y="-10.0"/>
      <point x="771.63" y="-10.0" type="curve" smooth="yes"/>
      <point x="888.1899999999999" y="-10.0"/>
      <point x="966.9999999999999" y="3.3499999999999983"/>
      <point x="1042.9199999999998" y="22.720000000000002" type="curve"/>
      <point x="1027.74" y="109.73" type="line"/>
      <point x="958.9799999999999" y="94.44"/>
      <point x="875.0899999999999" y="80.95"/>
      <point x="782.0200000000001" y="80.95" type="curve" smooth="yes"/>
      <point x="653.6800000000001" y="80.95"/>
      <point x="591.7099999999999" y="123.64"/>
      <point x="588.06" y="228.57000000000002" type="curve" smooth="yes"/>
      <point x="587.1999999999999" y="235.13"/>
      <point x="587.1999999999999" y="240.11999999999998"/>
      <point x="588.2699999999999" y="247.96" type="curve"/>
      <point x="814.92" y="250.54000000000002"/>
      <point x="974.4200000000001" y="264.53"/>
      <point x="1045.33" y="268.96000000000004" type="curve"/>
      <point x="1045.83" y="279.40999999999997"/>
      <point x="1046.76" y="292.51"/>
      <point x="1046.76" y="307.73999999999995" type="curve" smooth="yes"/>
      <point x="1046.76" y="471.02"/>
      <point x="951.5399999999998" y="548.6"/>
      <point x="768.88" y="548.6" type="curve" smooth="yes"/>
      <point x="657.63" y="548.6"/>
      <point x="581.0699999999999" y="511.36"/>
      <point x="539.8299999999999" y="437.84000000000003" type="curve"/>
      <point x="538.83" y="437.84000000000003" type="line"/>
      <point x="508.21999999999997" y="511.66999999999996"/>
      <point x="443.54999999999995" y="548.6"/>
      <point x="315.86999999999995" y="548.6" type="curve" smooth="yes"/>
      <point x="245.90999999999997" y="548.6"/>
      <point x="162.3" y="537.24"/>
      <point x="82.57" y="516.38" type="curve"/>
      <point x="99.53999999999998" y="428.08000000000004" type="line"/>
      <point x="171.81" y="446.86"/>
      <point x="252.42" y="456.78999999999996"/>
      <point x="308.3399999999999" y="456.78999999999996" type="curve" smooth="yes"/>
      <point x="412.25999999999993" y="456.78999999999996"/>
      <point x="462.13000000000005" y="423.21"/>
      <point x="462.13000000000005" y="361.46" type="curve" smooth="yes"/>
      <point x="462.13000000000005" y="318.28" type="line"/>
      <point x="145.85000000000002" y="305.23"/>
      <point x="42.16" y="268.0"/>
      <point x="42.16" y="137.14" type="curve" smooth="yes"/>
      <point x="42.16" y="42.1"/>
      <point x="104.96999999999998" y="-10.0"/>
    </contour>
    <contour>
      <point x="259.16999999999996" y="67.98" type="curve" smooth="yes"/>
      <point x="203.03999999999996" y="67.98"/>
      <point x="169.66" y="92.36000000000001"/>
      <point x="169.66" y="143.43" type="curve" smooth="yes"/>
      <point x="169.66" y="222.32000000000002"/>
      <point x="244.37" y="243.29"/>
      <point x="461.4899999999999" y="253.63" type="curve"/>
      <point x="461.41999999999985" y="246.06"/>
      <point x="461.41999999999985" y="238.13000000000002"/>
      <point x="461.41999999999985" y="226.71" type="curve" smooth="yes"/>
      <point x="461.41999999999985" y="198.47000000000003"/>
      <point x="463.1999999999999" y="175.35999999999999"/>
      <point x="468.1899999999999" y="155.73999999999998" type="curve"/>
      <point x="416.0" y="104.62"/>
      <point x="331.54999999999995" y="67.98"/>
    </contour>
    <contour>
      <point x="589.41" y="316.47999999999996" type="curve"/>
      <point x="600.6199999999999" y="424.89"/>
      <point x="670.07" y="466.31999999999994"/>
      <point x="761.43" y="466.31999999999994" type="curve" smooth="yes"/>
      <point x="857.7699999999999" y="466.31999999999994"/>
      <point x="913.6" y="419.68999999999994"/>
      <point x="918.7599999999999" y="329.03" type="curve"/>
      <point x="871.02" y="325.96"/>
      <point x="750.4399999999998" y="316.47999999999996"/>
    </contour>
  </outline>
</glyph>
<glyph name="eth" format="2">
  <advance width="720.7599999999999"/>
  <unicode hex="00F0"/>
  <outline>
    <contour>
      <point x="575.3199999999999" y="397.30999999999995" type="curve"/>
      <point x="577.54" y="474.43" type="line"/>
      <point x="513.4799999999999" y="513.24"/>
      <point x="442.67999999999995" y="529.66"/>
      <point x="349.71" y="529.66" type="curve" smooth="yes"/>
      <point x="138.92000000000002" y="529.66"/>
      <point x="43.3" y="433.28"/>
      <point x="43.3" y="253.12" type="curve" smooth="yes"/>
      <point x="43.3" y="76.93999999999998"/>
      <point x="144.03" y="-10.0"/>
      <point x="341.43999999999994" y="-10.0" type="curve" smooth="yes"/>
      <point x="577.0799999999999" y="-10.0"/>
      <point x="678.4599999999999" y="92.93999999999998"/>
      <point x="678.4599999999999" y="355.98" type="curve" smooth="yes"/>
      <point x="678.4599999999999" y="619.9"/>
      <point x="539.75" y="732.7900000000001"/>
      <point x="289.48" y="732.7900000000001" type="curve" smooth="yes"/>
      <point x="214.04999999999998" y="732.7900000000001"/>
      <point x="143.14999999999998" y="724.9300000000001"/>
      <point x="56.35" y="706.36" type="curve"/>
      <point x="66.72999999999999" y="631.53" type="line"/>
      <point x="147.32" y="646.81"/>
      <point x="199.29" y="655.38"/>
      <point x="263.83" y="655.38" type="curve" smooth="yes"/>
      <point x="474.45000000000005" y="655.38"/>
      <point x="557.41" y="578.42"/>
      <point x="557.41" y="352.33" type="curve" smooth="yes"/>
      <point x="557.41" y="144.48999999999998"/>
      <point x="497.65" y="76.57999999999998"/>
      <point x="355.63" y="76.57999999999998" type="curve" smooth="yes"/>
      <point x="232.78000000000003" y="76.57999999999998"/>
      <point x="170.79999999999995" y="131.36"/>
      <point x="170.79999999999995" y="257.13" type="curve" smooth="yes"/>
      <point x="170.79999999999995" y="392.82000000000005"/>
      <point x="236.96" y="450.53000000000003"/>
      <point x="370.36" y="450.53000000000003" type="curve" smooth="yes"/>
      <point x="450.41999999999996" y="450.53000000000003"/>
      <point x="517.1700000000001" y="432.46"/>
    </contour>
    <contour>
      <point x="226.55" y="549.8100000000001" type="line"/>
      <point x="467.24999999999994" y="651.9" type="line"/>
      <point x="466.44999999999993" y="656.98" type="line"/>
      <point x="664.57" y="742.2199999999999" type="line"/>
      <point x="530.4399999999999" y="742.2199999999999" type="line"/>
      <point x="399.44999999999993" y="686.26" type="line"/>
      <point x="404.32" y="683.11" type="line"/>
      <point x="91.99000000000002" y="549.8100000000001" type="line"/>
    </contour>
  </outline>
</glyph>
<glyph name="divide" format="2">
  <advance width="576.5300000000001"/>
  <unicode hex="00F7"/>
  <outline>
    <contour>
      <point x="229.89599999999996" y="116.42200000000001" type="curve" smooth="yes"/>
      <point x="229.89599999999996" y="81.932"/>
      <point x="245.57199999999997" y="68.892"/>
      <point x="288.48" y="68.892" type="curve" smooth="yes"/>
      <point x="332.34600000000006" y="68.892"/>
      <point x="347.0640000000001" y="81.932"/>
      <point x="347.0640000000001" y="116.42200000000001" type="curve" smooth="yes"/>
      <point x="347.0640000000001" y="150.482"/>
      <point x="332.304" y="164.38199999999998"/>
      <point x="288.48" y="164.38199999999998" type="curve" smooth="yes"/>
      <point x="244.61399999999998" y="164.38199999999998"/>
      <point x="229.89599999999996" y="150.482"/>
    </contour>
    <contour>
      <point x="229.89599999999996" y="490.388" type="curve" smooth="yes"/>
      <point x="229.89599999999996" y="456.7579999999999"/>
      <point x="245.614" y="442.858"/>
      <point x="288.48" y="442.858" type="curve" smooth="yes"/>
      <point x="332.34600000000006" y="442.858"/>
      <point x="347.0640000000001" y="456.7579999999999"/>
      <point x="347.0640000000001" y="490.388" type="curve" smooth="yes"/>
      <point x="347.0640000000001" y="525.308"/>
      <point x="332.34600000000006" y="538.778"/>
      <point x="288.48" y="538.778" type="curve" smooth="yes"/>
      <point x="244.61399999999998" y="538.778"/>
      <point x="229.89599999999996" y="525.308"/>
    </contour>
    <contour>
      <point x="55.542" y="256.64" type="line"/>
      <point x="521.418" y="256.64" type="line"/>
      <point x="521.418" y="350.59999999999997" type="line"/>
      <point x="55.542" y="350.59999999999997" type="line"/>
    </contour>
  </outline>
</glyph>
<glyph name="oslash" format="2">
  <advance width="730.5500000000001"/>
  <unicode hex="00F8"/>
  <anchor x="364.80999999999995" y="538.6" name="top"/>
  <outline>
    <contour>
      <point x="364.80999999999995" y="-10.0" type="curve" smooth="yes"/>
      <point x="138.1" y="-10.0"/>
      <point x="44.16" y="83.18000000000002"/>
      <point x="44.16" y="270.8" type="curve" smooth="yes"/>
      <point x="44.16" y="449.34999999999997"/>
      <point x="125.23999999999998" y="548.6"/>
      <point x="364.80999999999995" y="548.6" type="curve" smooth="yes"/>
      <point x="603.5899999999999" y="548.6"/>
      <point x="685.53" y="449.34999999999997"/>
      <point x="685.53" y="270.8" type="curve" smooth="yes"/>
      <point x="685.53" y="83.18000000000002"/>
      <point x="591.5899999999999" y="-10.0"/>
    </contour>
    <contour>
      <point x="364.81" y="70.55999999999999" type="curve" smooth="yes"/>
      <point x="504.97999999999985" y="70.55999999999999"/>
      <point x="561.9" y="131.71"/>
      <point x="561.9" y="270.8" type="curve" smooth="yes"/>
      <point x="561.9" y="403.67999999999995"/>
      <point x="513.5399999999998" y="468.04"/>
      <point x="364.81" y="468.04" type="curve" smooth="yes"/>
      <point x="215.71999999999997" y="468.04"/>
      <point x="167.36" y="403.67999999999995"/>
      <point x="167.36" y="270.8" type="curve" smooth="yes"/>
      <point x="167.36" y="131.71"/>
      <point x="224.27999999999997" y="70.55999999999999"/>
    </contour>
    <contour>
      <point x="44.089999999999996" y="-8.71" type="line"/>
      <point x="151.97000000000003" y="101.83" type="line"/>
      <point x="152.47000000000003" y="101.4" type="line"/>
      <point x="521.43" y="484.44" type="line"/>
      <point x="521.93" y="484.01" type="line"/>
      <point x="584.79" y="548.6" type="line"/>
      <point x="685.5999999999999" y="548.6" type="line"/>
      <point x="578.4300000000001" y="437.90999999999997" type="line"/>
      <point x="577.9300000000001" y="438.34000000000003" type="line"/>
      <point x="209.62000000000003" y="57.739999999999995" type="line"/>
      <point x="209.11999999999998" y="58.16999999999999" type="line"/>
      <point x="143.17999999999998" y="-8.71" type="line"/>
    </contour>
  </outline>
</glyph>
<glyph name="thorn" format="2">
  <advance width="720.479"/>
  <unicode hex="00FE"/>
  <outline>
    <contour>
      <point x="75.705" y="-210.0" type="line"/>
      <point x="200.023" y="-210.0" type="line"/>
      <point x="200.023" y="2.6450000000000005" type="line"/>
      <point x="248.31199999999998" y="-5.766"/>
      <point x="298.882" y="-10.0"/>
      <point x="343.824" y="-10.0" type="curve" smooth="yes"/>
      <point x="575.771" y="-10.0"/>
      <point x="675.9749999999999" y="74.24600000000001"/>
      <point x="675.9749999999999" y="274.836" type="curve" smooth="yes"/>
      <point x="675.9749999999999" y="451.842"/>
      <point x="580.12" y="548.6"/>
      <point x="405.851" y="548.6" type="curve" smooth="yes"/>
      <point x="340.304" y="548.6"/>
      <point x="270.544" y="535.429"/>
      <point x="200.281" y="510.812" type="curve"/>
      <point x="200.281" y="740.0" type="line"/>
      <point x="75.705" y="740.0" type="line"/>
    </contour>
    <contour>
      <point x="344.388" y="73.803" type="curve" smooth="yes"/>
      <point x="303.207" y="73.803"/>
      <point x="254.72400000000002" y="79.36999999999999"/>
      <point x="200.10899999999998" y="91.245" type="curve"/>
      <point x="200.10899999999998" y="428.36400000000003" type="line"/>
      <point x="256.567" y="444.387"/>
      <point x="310.71799999999996" y="452.199"/>
      <point x="355.763" y="452.199" type="curve" smooth="yes"/>
      <point x="483.523" y="452.199"/>
      <point x="549.077" y="391.85900000000004"/>
      <point x="549.077" y="267.913" type="curve" smooth="yes"/>
      <point x="549.077" y="128.89499999999998"/>
      <point x="485.814" y="73.803"/>
    </contour>
  </outline>
</glyph>
<glyph name="Dcroat" format="2">
  <advance width="911.7139999999999"/>
  <unicode hex="0110"/>
  <outline>
    <contour>
      <point x="5.1" y="312.59" type="line"/>
      <point x="399.45199999999994" y="312.59" type="line"/>
      <point x="399.45199999999994" y="400.96" type="line"/>
      <point x="5.1" y="400.96" type="line"/>
    </contour>
    <component base="D" xOffset="3.3040000000000003"/>
  </outline>
</glyph>
<glyph name="dcroat" format="2">
  <advance width="725.51"/>
  <unicode hex="0111"/>
  <outline>
    <contour>
      <point x="318.37800000000004" y="606.39" type="line"/>
      <point x="734.3039999999999" y="606.39" type="line"/>
      <point x="734.3039999999999" y="671.26" type="line"/>
      <point x="318.37800000000004" y="671.26" type="line"/>
    </contour>
    <component base="d"/>
  </outline>
</glyph>
<glyph name="Hbar" format="2">
  <advance width="928.183"/>
  <unicode hex="0126"/>
  <outline>
    <contour>
      <point x="26.419999999999998" y="496.51500000000004" type="line"/>
      <point x="89.72500000000001" y="496.51500000000004" type="line"/>
      <point x="89.72500000000001" y="0.0" type="line"/>
      <point x="220.02" y="0.0" type="line"/>
      <point x="220.02" y="258.69500000000005" type="line"/>
      <point x="711.173" y="258.69500000000005" type="line"/>
      <point x="711.173" y="0.0" type="line"/>
      <point x="838.458" y="0.0" type="line"/>
      <point x="838.458" y="496.51500000000004" type="line"/>
      <point x="901.763" y="496.51500000000004" type="line"/>
      <point x="901.763" y="576.331" type="line"/>
      <point x="838.458" y="576.331" type="line"/>
      <point x="838.458" y="700.0" type="line"/>
      <point x="711.173" y="700.0" type="line"/>
      <point x="711.173" y="576.331" type="line"/>
      <point x="220.02" y="576.331" type="line"/>
      <point x="220.02" y="700.0" type="line"/>
      <point x="89.72500000000001" y="700.0" type="line"/>
      <point x="89.72500000000001" y="576.331" type="line"/>
      <point x="26.419999999999998" y="576.331" type="line"/>
    </contour>
    <contour>
      <point x="220.02" y="366.029" type="line"/>
      <point x="220.02" y="496.51500000000004" type="line"/>
      <point x="711.173" y="496.51500000000004" type="line"/>
      <point x="711.173" y="366.029" type="line"/>
    </contour>
  </outline>
</glyph>
<glyph name="hbar" format="2">
  <advance width="723.4809999999999"/>
  <unicode hex="0127"/>
  <outline>
    <contour>
      <point x="-8.751999999999997" y="606.175" type="line"/>
      <point x="428.74899999999997" y="606.175" type="line"/>
      <point x="428.74899999999997" y="665.885" type="line"/>
      <point x="-8.751999999999997" y="665.885" type="line"/>
    </contour>
    <component base="h"/>
  </outline>
</glyph>
<glyph name="Idotaccent" format="2">
  <advance width="309.143"/>
  <unicode hex="0130"/>
  <outline>
    <contour>
      <point x="154.76500000000001" y="781.4309999999999" type="curve" smooth="yes"/>
      <point x="210.92899999999997" y="781.4309999999999"/>
      <point x="230.76399999999998" y="798.212"/>
      <point x="230.76399999999998" y="838.4209999999999" type="curve" smooth="yes"/>
      <point x="230.76399999999998" y="878.888"/>
      <point x="210.67099999999996" y="895.5400000000001"/>
      <point x="154.76500000000001" y="895.5400000000001" type="curve" smooth="yes"/>
      <point x="98.72999999999999" y="895.5400000000001"/>
      <point x="78.63699999999999" y="878.888"/>
      <point x="78.63699999999999" y="838.4209999999999" type="curve" smooth="yes"/>
      <point x="78.63699999999999" y="798.0830000000001"/>
      <point x="99.29999999999998" y="781.4309999999999"/>
    </contour>
    <component base="I"/>
  </outline>
</glyph>
<glyph name="dotlessi" format="2">
  <advance width="276.072"/>
  <unicode hex="0131"/>
  <anchor x="190.42199999999997" y="4.3" name="ogonek"/>
  <anchor x="138.29399999999998" y="0.0" name="bottom"/>
  <anchor x="138.036" y="538.6" name="top"/>
  <outline>
    <contour>
      <point x="75.705" y="0.0" type="line"/>
      <point x="200.367" y="0.0" type="line"/>
      <point x="200.367" y="538.6" type="line"/>
      <point x="75.705" y="538.6" type="line"/>
    </contour>
  </outline>
</glyph>
<glyph name="kgreenlandic" format="2">
  <advance width="677.29"/>
  <unicode hex="0138"/>
  <anchor x="338.41999999999996" y="538.6" name="top"/>
  <anchor x="338.41999999999996" y="0.0" name="bottom"/>
  <outline>
    <contour>
      <point x="629.13" y="-9.430000000000001" type="curve" smooth="yes"/>
      <point x="642.6599999999999" y="-9.430000000000001"/>
      <point x="652.17" y="-8.86"/>
      <point x="660.6100000000001" y="-7.43" type="curve"/>
      <point x="658.4" y="109.74999999999999" type="line"/>
      <point x="651.6800000000001" y="109.17999999999999"/>
      <point x="645.3899999999999" y="108.67999999999999"/>
      <point x="640.3100000000001" y="108.67999999999999" type="curve" smooth="yes"/>
      <point x="599.3000000000001" y="108.67999999999999"/>
      <point x="549.24" y="132.94"/>
      <point x="419.51" y="230.94" type="curve" smooth="yes"/>
      <point x="195.67999999999998" y="400.17" type="line"/>
      <point x="195.67999999999998" y="538.6" type="line"/>
      <point x="75.49000000000001" y="538.6" type="line"/>
      <point x="75.49000000000001" y="0.0" type="line"/>
      <point x="195.67999999999998" y="0.0" type="line"/>
      <point x="195.67999999999998" y="264.45" type="line"/>
      <point x="399.59999999999997" y="109.97" type="line" smooth="yes"/>
      <point x="541.71" y="1.6500000000000004"/>
      <point x="581.96" y="-9.430000000000001"/>
    </contour>
    <contour>
      <point x="333.93999999999994" y="252.06" type="line"/>
      <point x="432.84000000000003" y="315.21"/>
      <point x="577.5899999999999" y="412.04999999999995"/>
      <point x="631.3299999999999" y="535.6000000000001" type="curve"/>
      <point x="500.0200000000001" y="545.6700000000001" type="line"/>
      <point x="454.23" y="441.75"/>
      <point x="345.50999999999993" y="369.84"/>
      <point x="217.31999999999996" y="285.34000000000003" type="curve"/>
    </contour>
  </outline>
</glyph>
<glyph name="Ldot" format="2">
  <advance width="717.5699999999999"/>
  <unicode hex="013F"/>
  <outline>
    <contour>
      <point x="442.104" y="396.919" type="curve" smooth="yes"/>
      <point x="442.104" y="358.77399999999994"/>
      <point x="458.94" y="343.23999999999995"/>
      <point x="507.955" y="343.23999999999995" type="curve" smooth="yes"/>
      <point x="557.669" y="343.23999999999995"/>
      <point x="573.935" y="358.77399999999994"/>
      <point x="573.935" y="396.919" type="curve" smooth="yes"/>
      <point x="573.935" y="435.49399999999997"/>
      <point x="557.669" y="451.02799999999996"/>
      <point x="507.955" y="451.02799999999996" type="curve" smooth="yes"/>
      <point x="458.36999999999995" y="451.02799999999996"/>
      <point x="442.104" y="435.49399999999997"/>
    </contour>
    <component base="L"/>
  </outline>
</glyph>
<glyph name="ldot" format="2">
  <advance width="381.71500000000003"/>
  <unicode hex="0140"/>
  <outline>
    <contour>
      <point x="338.92999999999995" y="336.41900000000004" type="curve" smooth="yes"/>
      <point x="370.24" y="336.41900000000004"/>
      <point x="380.35699999999997" y="348.08299999999997"/>
      <point x="380.35699999999997" y="380.122" type="curve" smooth="yes"/>
      <point x="380.35699999999997" y="412.29"/>
      <point x="370.24" y="423.954"/>
      <point x="338.92999999999995" y="423.954" type="curve" smooth="yes"/>
      <point x="307.74899999999997" y="423.954"/>
      <point x="297.63199999999995" y="412.29"/>
      <point x="297.63199999999995" y="380.122" type="curve" smooth="yes"/>
      <point x="297.63199999999995" y="348.08299999999997"/>
      <point x="308.319" y="336.41900000000004"/>
    </contour>
    <component base="l"/>
  </outline>
</glyph>
<glyph name="Lslash" format="2">
  <advance width="723.867"/>
  <unicode hex="0141"/>
  <outline>
    <contour>
      <point x="14.649999999999997" y="176.275" type="line"/>
      <point x="95.721" y="222.615" type="line"/>
      <point x="95.721" y="0.0" type="line"/>
      <point x="699.787" y="0.0" type="line"/>
      <point x="699.787" y="106.43100000000001" type="line"/>
      <point x="226.14499999999998" y="106.43100000000001" type="line"/>
      <point x="226.14499999999998" y="282.75700000000006" type="line"/>
      <point x="490.703" y="430.975" type="line"/>
      <point x="490.703" y="536.071" type="line"/>
      <point x="226.14499999999998" y="388.024" type="line"/>
      <point x="226.14499999999998" y="700.0" type="line"/>
      <point x="95.721" y="700.0" type="line"/>
      <point x="95.721" y="327.88200000000006" type="line"/>
      <point x="14.649999999999997" y="281.54200000000003" type="line"/>
    </contour>
  </outline>
</glyph>
<glyph name="lslash" format="2">
  <advance width="369.07300000000004"/>
  <unicode hex="0142"/>
  <outline>
    <contour>
      <point x="235.084" y="-10.0" type="curve" smooth="yes"/>
      <point x="284.993" y="-10.0"/>
      <point x="334.703" y="-0.4460000000000006"/>
      <point x="374.169" y="11.071" type="curve"/>
      <point x="360.36499999999995" y="105.419" type="line"/>
      <point x="330.534" y="98.933"/>
      <point x="302.793" y="93.93599999999999"/>
      <point x="278.858" y="93.93599999999999" type="curve" smooth="yes"/>
      <point x="237.90699999999998" y="93.93599999999999"/>
      <point x="204.667" y="111.073"/>
      <point x="204.667" y="189.856" type="curve" smooth="yes"/>
      <point x="204.667" y="296.34499999999997" type="line"/>
      <point x="326.82" y="394.3759999999999" type="line"/>
      <point x="326.82" y="488.77000000000004" type="line"/>
      <point x="204.667" y="390.73900000000003" type="line"/>
      <point x="204.667" y="740.0" type="line"/>
      <point x="80.392" y="740.0" type="line"/>
      <point x="80.392" y="320.12899999999996" type="line"/>
      <point x="13.742999999999997" y="266.606" type="line"/>
      <point x="13.742999999999997" y="172.383" type="line"/>
      <point x="80.994" y="226.036" type="line"/>
      <point x="81.596" y="158.208" type="line" smooth="yes"/>
      <point x="86.71300000000001" y="27.046999999999997"/>
      <point x="144.535" y="-10.0"/>
    </contour>
  </outline>
</glyph>
<glyph name="Eng" format="2">
  <advance width="905.225"/>
  <unicode hex="014A"/>
  <outline>
    <contour>
      <point x="89.49499999999999" y="0.0" type="line"/>
      <point x="207.74999999999997" y="0.0" type="line"/>
      <point x="207.74999999999997" y="523.21" type="line"/>
      <point x="694.8949999999999" y="2.7349999999999994" type="line"/>
      <point x="694.8949999999999" y="-6.334999999999999" type="line" smooth="yes"/>
      <point x="692.6149999999998" y="-79.75999999999999"/>
      <point x="629.6450000000001" y="-109.29000000000002"/>
      <point x="539.1899999999999" y="-109.29000000000002" type="curve" smooth="yes"/>
      <point x="497.80499999999995" y="-109.29000000000002"/>
      <point x="449.62999999999994" y="-102.86999999999999"/>
      <point x="405.99" y="-93.65499999999999" type="curve"/>
      <point x="387.2249999999999" y="-184.75" type="line"/>
      <point x="436.23999999999995" y="-195.97"/>
      <point x="494.7299999999999" y="-204.325"/>
      <point x="552.52" y="-204.325" type="curve" smooth="yes"/>
      <point x="708.1999999999998" y="-204.325"/>
      <point x="815.7299999999999" y="-144.81"/>
      <point x="815.7299999999999" y="-10.860000000000001" type="curve" smooth="yes"/>
      <point x="815.7299999999999" y="700.0" type="line"/>
      <point x="697.905" y="700.0" type="line"/>
      <point x="697.905" y="167.545" type="line"/>
      <point x="205.46499999999997" y="703.99" type="line"/>
      <point x="89.49499999999999" y="703.99" type="line"/>
    </contour>
  </outline>
</glyph>
